<?xml version="1.0" encoding="UTF-8"?>
<svg version="1.1" xmlns="http://www.w3.org/2000/svg" width="512" height="512">
<path d="M0 0 C0.94797958 -0.00623996 1.89595917 -0.01247993 2.87266541 -0.01890898 C6.05728845 -0.03489625 9.24115218 -0.02221207 12.42578125 -0.00964355 C14.70557096 -0.01506211 16.98535717 -0.02218326 19.26513672 -0.03088379 C25.46340485 -0.04915162 31.66140728 -0.04203519 37.85968018 -0.02936745 C44.33875254 -0.01925776 50.81780177 -0.02862747 57.296875 -0.03491211 C68.87591855 -0.04266121 80.45484057 -0.03021132 92.03386497 -0.00987476 C102.53435542 0.00799652 113.034669 0.00489249 123.53515625 -0.0135498 C135.72646104 -0.03495168 147.91763985 -0.04292622 160.10896301 -0.03110075 C166.56340788 -0.02485665 173.01773088 -0.02405542 179.47216797 -0.0372467 C185.53953207 -0.04878018 191.60656133 -0.04082497 197.67388916 -0.01766968 C199.90398604 -0.01236923 202.13411097 -0.01391904 204.36419678 -0.02272034 C207.4020357 -0.03360641 210.43879302 -0.01999576 213.4765625 0 C214.36488266 -0.00892289 215.25320282 -0.01784577 216.16844177 -0.02703905 C222.11357677 0.049178 222.11357677 0.049178 225.28539276 2.3784256 C227.13921855 5.09559121 227.2451483 6.76132306 227.25585938 10.03918457 C227.26846802 11.14713379 227.28107666 12.25508301 227.29406738 13.39660645 C227.28597046 14.58834473 227.27787354 15.78008301 227.26953125 17.00793457 C227.27335815 18.2357666 227.27718506 19.46359863 227.28112793 20.7286377 C227.28384967 23.32434916 227.27647036 25.92008793 227.25976562 28.51574707 C227.238362 32.49293056 227.25956088 36.46830739 227.28515625 40.44543457 C227.28251302 42.9662719 227.27738816 45.4871081 227.26953125 48.00793457 C227.27762817 49.19967285 227.2857251 50.39141113 227.29406738 51.6192627 C227.27515442 53.28118652 227.27515442 53.28118652 227.25585938 54.97668457 C227.252677 55.95057129 227.24949463 56.92445801 227.24621582 57.92785645 C226.59193525 61.25130614 225.38143317 62.45003811 222.73828125 64.50793457 C219.72265625 64.89855957 219.72265625 64.89855957 216.48828125 64.75793457 C215.410625 64.72184082 214.33296875 64.68574707 213.22265625 64.64855957 C212.4028125 64.60215332 211.58296875 64.55574707 210.73828125 64.50793457 C210.73828125 67.14793457 210.73828125 69.78793457 210.73828125 72.50793457 C211.558125 72.46152832 212.37796875 72.41512207 213.22265625 72.36730957 C214.3003125 72.33121582 215.37796875 72.29512207 216.48828125 72.25793457 C217.555625 72.21152832 218.62296875 72.16512207 219.72265625 72.11730957 C223.50274116 72.60695788 224.39666354 73.56002312 226.73828125 76.50793457 C227.24621582 79.0880127 227.24621582 79.0880127 227.25585938 82.03918457 C227.26846802 83.14713379 227.28107666 84.25508301 227.29406738 85.39660645 C227.28597046 86.58834473 227.27787354 87.78008301 227.26953125 89.00793457 C227.27335815 90.2357666 227.27718506 91.46359863 227.28112793 92.7286377 C227.28384967 95.32434916 227.27647036 97.92008793 227.25976562 100.51574707 C227.238362 104.49293056 227.25956088 108.46830739 227.28515625 112.44543457 C227.28251302 114.9662719 227.27738816 117.4871081 227.26953125 120.00793457 C227.27762817 121.19967285 227.2857251 122.39141113 227.29406738 123.6192627 C227.27515442 125.28118652 227.27515442 125.28118652 227.25585938 126.97668457 C227.252677 127.95057129 227.24949463 128.92445801 227.24621582 129.92785645 C226.57405826 133.34211317 225.56743527 134.50457896 222.73828125 136.50793457 C219.72265625 136.89855957 219.72265625 136.89855957 216.48828125 136.75793457 C215.410625 136.72184082 214.33296875 136.68574707 213.22265625 136.64855957 C212.4028125 136.60215332 211.58296875 136.55574707 210.73828125 136.50793457 C210.7471637 137.45118591 210.75604614 138.39443726 210.76519775 139.36627197 C210.84626816 148.25350918 210.90623912 157.14067141 210.94552994 166.02819443 C210.9664089 170.59744421 210.99473196 175.16639559 211.04003906 179.73547363 C211.08348613 184.1445433 211.10741603 188.55332587 211.11779022 192.96259308 C211.12518368 194.64514944 211.13962142 196.32769 211.16120148 198.01012421 C211.19022128 200.36618558 211.194238 202.7210593 211.19238281 205.07727051 C211.20676392 205.77354553 211.22114502 206.46982056 211.23596191 207.18719482 C211.20814022 210.45058789 210.9190665 212.25357385 209.00970459 214.94000244 C206.39339455 216.74600509 205.09264037 217.01345596 201.94140625 217.0255127 C200.51973145 217.04442566 200.51973145 217.04442566 199.06933594 217.0637207 C198.05258789 217.05562378 197.03583984 217.04752686 195.98828125 217.03918457 C194.41288574 217.04492493 194.41288574 217.04492493 192.80566406 217.05078125 C190.58657878 217.05350153 188.36746151 217.04613234 186.1484375 217.02941895 C182.7505753 217.00801202 179.35482764 217.02921782 175.95703125 217.05480957 C173.80077658 217.05216632 171.64452323 217.04704139 169.48828125 217.03918457 C168.4715332 217.04728149 167.45478516 217.05537842 166.40722656 217.0637207 C159.42798568 216.97087378 159.42798568 216.97087378 156.26855469 214.85021973 C154.49100695 212.12944867 152.94925491 209.41350025 151.50390625 206.50012207 C150.93027344 205.34898926 150.35664063 204.19785645 149.765625 203.01184082 C149.47413574 202.41645508 149.18264648 201.82106934 148.88232422 201.2076416 C147.98548256 199.37722256 147.07582108 197.55361805 146.1640625 195.73059082 C141.73828125 186.78870625 141.73828125 186.78870625 141.73828125 184.50793457 C140.74828125 184.50793457 139.75828125 184.50793457 138.73828125 184.50793457 C138.8223389 202.31099779 138.91752979 220.1139655 139.02580833 237.91689777 C139.07583234 246.18395977 139.12227603 254.45101235 139.16015625 262.71813965 C139.19319952 269.92761708 139.23309793 277.13701922 139.28107131 284.34641331 C139.30621428 288.16022743 139.32803085 291.97399238 139.34162521 295.78786659 C139.35455727 299.38544932 139.37672876 302.9828624 139.40566444 306.58035088 C139.41890564 308.51408472 139.42264004 310.44787654 139.42597961 312.38165283 C139.53556941 323.92891708 140.11491466 335.42940771 148.38671875 344.26965332 C151.37703271 346.97607672 154.55654288 349.372909 157.79296875 351.77746582 C173.20640588 363.24632971 184.39347147 377.15088707 190.73828125 395.50793457 C191.32802734 397.18822754 191.32802734 397.18822754 191.9296875 398.90246582 C198.46356948 420.64412884 196.32896418 444.90072435 185.87084961 464.96984863 C173.81850522 487.07458507 155.57931131 502.34844899 131.61328125 509.94543457 C114.50991896 514.89874599 94.52476441 514.38707153 77.73828125 508.50793457 C76.701875 508.15730957 75.66546875 507.80668457 74.59765625 507.44543457 C52.24675153 499.01996263 35.40469802 481.8711713 25.4296875 460.45324707 C16.66398186 440.63217721 14.89134088 414.93628213 22.73828125 394.50793457 C30.72198214 375.7342486 41.9899394 362.04583192 58.14794922 349.72277832 C67.33476785 342.70503047 71.34747135 337.13365606 73.32929611 325.66414452 C74.06549926 319.98273587 74.04724787 314.31278785 74.05712891 308.59118652 C74.06644981 307.22996947 74.07662161 305.86875803 74.08757019 304.5075531 C74.11464097 300.84717599 74.12995073 297.18683684 74.14299822 293.5263865 C74.15873022 289.68801329 74.18548778 285.84971652 74.21102905 282.01139832 C74.2576399 274.75860353 74.29446908 267.50579408 74.32770193 260.25292701 C74.36604908 251.98917827 74.41542584 243.72550663 74.46568608 235.46182311 C74.56874245 218.47724953 74.65808754 201.49263117 74.73828125 184.50793457 C73.74828125 184.50793457 72.75828125 184.50793457 71.73828125 184.50793457 C71.4642749 185.37901855 71.19026855 186.25010254 70.90795898 187.14758301 C69.01704455 192.57996586 66.36744274 197.61850776 63.80078125 202.75793457 C63.26259766 203.85879395 62.72441406 204.95965332 62.16992188 206.09387207 C61.64720703 207.14316895 61.12449219 208.19246582 60.5859375 209.27355957 C60.11164307 210.23036621 59.63734863 211.18717285 59.14868164 212.17297363 C57.73828125 214.50793457 57.73828125 214.50793457 54.73828125 216.50793457 C52.58216858 216.77536011 52.58216858 216.77536011 50.05493164 216.79846191 C49.10707291 216.81122162 48.15921417 216.82398132 47.18263245 216.83712769 C45.64976845 216.84046616 45.64976845 216.84046616 44.0859375 216.84387207 C43.03425888 216.85052887 41.98258026 216.85718567 40.89903259 216.86404419 C38.67399852 216.87417303 36.44893406 216.87886114 34.22387695 216.87854004 C30.8173629 216.88291328 27.41214412 216.91923184 24.00585938 216.95715332 C21.84505652 216.96302134 19.6842475 216.96699083 17.5234375 216.96887207 C15.99360985 216.99042862 15.99360985 216.99042862 14.43287659 217.01242065 C13.00636024 217.00319077 13.00636024 217.00319077 11.55102539 216.99377441 C10.71624161 216.99662445 9.88145782 216.99947449 9.02137756 217.00241089 C5.76984851 216.29819 4.65901262 215.21411663 2.73828125 212.50793457 C2.36373144 209.88675128 2.23016929 207.69223595 2.28417969 205.07727051 C2.28359558 204.33541504 2.28301147 203.59355957 2.28240967 202.82922363 C2.285191 200.38310555 2.31628339 197.9382141 2.34765625 195.49230957 C2.35511851 193.7940945 2.36081152 192.09587081 2.36480713 190.39764404 C2.38006474 185.93237447 2.41934736 181.46762704 2.46362305 177.00256348 C2.50457318 172.44452986 2.52281758 167.8864117 2.54296875 163.32824707 C2.58584172 154.38791376 2.6540944 145.44796762 2.73828125 136.50793457 C1.9184375 136.55434082 1.09859375 136.60074707 0.25390625 136.64855957 C-0.82375 136.68465332 -1.90140625 136.72074707 -3.01171875 136.75793457 C-4.0790625 136.80434082 -5.14640625 136.85074707 -6.24609375 136.89855957 C-9.26171875 136.50793457 -9.26171875 136.50793457 -11.61999512 134.8380127 C-13.62812409 131.98789998 -13.76797012 130.44295718 -13.77929688 126.97668457 C-13.79190552 125.86873535 -13.80451416 124.76078613 -13.81750488 123.6192627 C-13.80940796 122.42752441 -13.80131104 121.23578613 -13.79296875 120.00793457 C-13.79679565 118.78010254 -13.80062256 117.55227051 -13.80456543 116.28723145 C-13.80728717 113.69151998 -13.79990786 111.09578121 -13.78320312 108.50012207 C-13.7617995 104.52293858 -13.78299838 100.54756175 -13.80859375 96.57043457 C-13.80595052 94.04959724 -13.80082566 91.52876104 -13.79296875 89.00793457 C-13.80106567 87.81619629 -13.8091626 86.62445801 -13.81750488 85.39660645 C-13.80489624 84.28865723 -13.7922876 83.18070801 -13.77929688 82.03918457 C-13.7761145 81.06529785 -13.77293213 80.09141113 -13.76965332 79.0880127 C-13.11537275 75.764563 -11.90487067 74.56583103 -9.26171875 72.50793457 C-6.24609375 72.11730957 -6.24609375 72.11730957 -3.01171875 72.25793457 C-1.9340625 72.29402832 -0.85640625 72.33012207 0.25390625 72.36730957 C1.07375 72.41371582 1.89359375 72.46012207 2.73828125 72.50793457 C2.73828125 69.86793457 2.73828125 67.22793457 2.73828125 64.50793457 C1.9184375 64.55434082 1.09859375 64.60074707 0.25390625 64.64855957 C-0.82375 64.68465332 -1.90140625 64.72074707 -3.01171875 64.75793457 C-4.0790625 64.80434082 -5.14640625 64.85074707 -6.24609375 64.89855957 C-10.02617866 64.40891127 -10.92010104 63.45584602 -13.26171875 60.50793457 C-13.76965332 57.92785645 -13.76965332 57.92785645 -13.77929688 54.97668457 C-13.79190552 53.86873535 -13.80451416 52.76078613 -13.81750488 51.6192627 C-13.80940796 50.42752441 -13.80131104 49.23578613 -13.79296875 48.00793457 C-13.79679565 46.78010254 -13.80062256 45.55227051 -13.80456543 44.28723145 C-13.80728717 41.69151998 -13.79990786 39.09578121 -13.78320312 36.50012207 C-13.7617995 32.52293858 -13.78299838 28.54756175 -13.80859375 24.57043457 C-13.80595052 22.04959724 -13.80082566 19.52876104 -13.79296875 17.00793457 C-13.80106567 15.81619629 -13.8091626 14.62445801 -13.81750488 13.39660645 C-13.80489624 12.28865723 -13.7922876 11.18070801 -13.77929688 10.03918457 C-13.7761145 9.06529785 -13.77293213 8.09141113 -13.76965332 7.0880127 C-12.28460989 -0.45533696 -6.33421708 -0.06362515 0 0 Z M2.73828125 16.50793457 C2.73828125 27.06793457 2.73828125 37.62793457 2.73828125 48.50793457 C71.37828125 48.50793457 140.01828125 48.50793457 210.73828125 48.50793457 C210.73828125 37.94793457 210.73828125 27.38793457 210.73828125 16.50793457 C142.09828125 16.50793457 73.45828125 16.50793457 2.73828125 16.50793457 Z M18.73828125 64.50793457 C18.73828125 67.14793457 18.73828125 69.78793457 18.73828125 72.50793457 C76.81828125 72.50793457 134.89828125 72.50793457 194.73828125 72.50793457 C194.73828125 69.86793457 194.73828125 67.22793457 194.73828125 64.50793457 C136.65828125 64.50793457 78.57828125 64.50793457 18.73828125 64.50793457 Z M2.73828125 88.50793457 C2.73828125 99.06793457 2.73828125 109.62793457 2.73828125 120.50793457 C71.37828125 120.50793457 140.01828125 120.50793457 210.73828125 120.50793457 C210.73828125 109.94793457 210.73828125 99.38793457 210.73828125 88.50793457 C142.09828125 88.50793457 73.45828125 88.50793457 2.73828125 88.50793457 Z M18.73828125 136.50793457 C18.73828125 157.62793457 18.73828125 178.74793457 18.73828125 200.50793457 C27.64828125 200.50793457 36.55828125 200.50793457 45.73828125 200.50793457 C46.79789063 198.35391113 47.8575 196.1998877 48.94921875 193.98059082 C49.97707212 191.90150263 51.00698701 189.82344812 52.03710938 187.7454834 C52.75314227 186.29831074 53.46701964 184.85006953 54.17871094 183.40075684 C55.20075684 181.32036674 56.23043722 179.24391496 57.26171875 177.16809082 C57.57950287 176.51703873 57.89728699 175.86598663 58.22470093 175.19520569 C60.51053784 170.62180628 60.51053784 170.62180628 62.73828125 169.50793457 C65.49886273 169.39906464 68.23460192 169.35060796 70.99584961 169.34680176 C72.27653069 169.3393544 72.27653069 169.3393544 73.58308411 169.33175659 C76.41477252 169.31712016 79.24640494 169.31033106 82.078125 169.30480957 C84.04106143 169.29906002 86.00399783 169.29330227 87.9669342 169.28753662 C92.0852993 169.27702289 96.20364485 169.27118243 100.32202148 169.2677002 C105.6061888 169.26220994 110.89009914 169.23817213 116.17418575 169.20972824 C120.22930158 169.19113162 124.28435509 169.18589789 128.33950996 169.18436432 C130.28801442 169.1813313 132.23651762 169.17328106 134.18498039 169.16017914 C136.90729381 169.14317818 139.62897382 169.14498402 142.35131836 169.15148926 C143.16025543 169.14227448 143.9691925 169.13305969 144.80264282 169.12356567 C150.24557099 169.16443577 150.24557099 169.16443577 152.66085815 170.84828186 C154.34971696 173.44978457 155.72170443 176.14404946 157.09375 178.92590332 C157.55349968 179.85176994 157.55349968 179.85176994 158.02253723 180.79634094 C158.99597531 182.75995095 159.96096555 184.72757598 160.92578125 186.69543457 C161.58603467 188.03099499 162.24683592 189.36628472 162.90820312 190.70129395 C164.52564172 193.96661225 166.1315823 197.23723037 167.73828125 200.50793457 C176.64828125 200.50793457 185.55828125 200.50793457 194.73828125 200.50793457 C194.73828125 179.38793457 194.73828125 158.26793457 194.73828125 136.50793457 C136.65828125 136.50793457 78.57828125 136.50793457 18.73828125 136.50793457 Z M90.73828125 184.50793457 C90.72893555 188.96398193 90.71958984 193.4200293 90.70996094 198.0111084 C90.6761672 212.747344 90.62080469 227.48344057 90.55437851 242.21956348 C90.5146362 251.15252277 90.48221935 260.08539457 90.46728516 269.01843262 C90.45424364 276.80807252 90.42721547 284.59751955 90.38366818 292.38705081 C90.36110934 296.50832775 90.3453672 300.62936729 90.3463974 304.75071144 C90.34714734 308.63733905 90.32906426 312.52344301 90.29711342 316.409935 C90.28866017 317.82917832 90.28683309 319.24848069 90.29247856 320.66773796 C90.34106006 334.7695949 86.71282782 347.01943593 76.859375 357.50793457 C73.43335038 360.60865989 69.7578204 363.18707286 65.92578125 365.75793457 C50.37761532 376.50551471 41.78851533 390.6695541 36.73828125 408.50793457 C36.55942383 409.13329102 36.38056641 409.75864746 36.19628906 410.4029541 C32.23484489 428.60954882 36.83113314 448.21257571 46.54052734 463.7442627 C57.76482428 480.27184546 75.12839503 491.74591712 94.73828125 495.50793457 C111.63460408 498.62041509 130.16500567 494.3126219 144.73828125 485.50793457 C161.5429971 473.59605519 173.01754952 458.3274594 177.34130859 437.9510498 C180.41654281 419.02493126 176.78133317 400.10584066 166.1484375 384.11730957 C159.96671708 375.79744115 152.78729481 368.67921241 144.11328125 363.00793457 C133.20225162 355.67828996 126.39255298 345.48460759 123.73828125 332.50793457 C123.63780628 330.47651046 123.59212821 328.44213573 123.58006287 326.40826416 C123.57027405 325.1574707 123.56048523 323.90667725 123.55039978 322.61798096 C123.544496 321.23461952 123.53868553 319.85125769 123.53295898 318.46789551 C123.52337738 317.00919316 123.51336713 315.55049357 123.50296021 314.09179688 C123.47593569 310.13349996 123.45491285 306.17519116 123.43495822 302.21685314 C123.41308354 298.07950361 123.3857021 293.94219064 123.35890198 289.80487061 C123.30899514 281.97101186 123.26404886 274.1371328 123.22087961 266.30323434 C123.17149007 257.38430288 123.11657831 248.4654081 123.06120002 239.54651213 C122.94741081 221.20035215 122.8412941 202.85415844 122.73828125 184.50793457 C112.17828125 184.50793457 101.61828125 184.50793457 90.73828125 184.50793457 Z " fill="#000000" transform="translate(149.26171875,-0.5079345703125)"/>
<path d="M0 0 C2.45777238 1.66400293 4.76824948 3.4186264 7.07421875 5.28515625 C8.12609375 6.04828125 9.17796875 6.81140625 10.26171875 7.59765625 C19.88902401 16.79708128 26.79256296 30.15635578 27.54296875 43.546875 C27.57708455 45.35517696 27.58691674 47.16407708 27.57421875 48.97265625 C27.56849854 49.92946289 27.56277832 50.88626953 27.55688477 51.87207031 C27.2333109 64.85424587 23.29865432 75.12443166 15.07421875 85.28515625 C14.31109375 86.33703125 13.54796875 87.38890625 12.76171875 88.47265625 C3.56229372 98.09996151 -9.79698078 105.00350046 -23.1875 105.75390625 C-24.99580196 105.78802205 -26.80470208 105.79785424 -28.61328125 105.78515625 C-29.57008789 105.77943604 -30.52689453 105.77371582 -31.51269531 105.76782227 C-44.49487087 105.4442484 -54.76505666 101.50959182 -64.92578125 93.28515625 C-65.97765625 92.52203125 -67.02953125 91.75890625 -68.11328125 90.97265625 C-77.75458338 81.75985644 -84.71807558 68.34380378 -85.359375 54.91796875 C-85.38272733 53.08217931 -85.3835773 51.24598202 -85.36328125 49.41015625 C-85.35570801 48.44489014 -85.34813477 47.47962402 -85.34033203 46.48510742 C-85.17120423 39.15520735 -84.16003867 32.93335206 -80.92578125 26.28515625 C-80.466875 25.32351563 -80.00796875 24.361875 -79.53515625 23.37109375 C-71.81135436 8.28935428 -59.62816001 -0.28778317 -43.75390625 -5.8203125 C-29.11871314 -9.24016885 -13.00071128 -7.61990955 0 0 Z M-59.92578125 24.28515625 C-67.37959543 34.41430208 -69.16967133 44.90845 -67.92578125 57.28515625 C-65.56512636 68.283662 -58.92841308 76.75741767 -49.92578125 83.28515625 C-41.09193879 88.67615136 -30.82988318 90.13893965 -20.73828125 88.28515625 C-11.32963798 85.90163329 -2.82798093 81.14515876 3.07421875 73.28515625 C9.63698988 61.85227442 12.02500794 51.0626057 9.42578125 38.03515625 C5.72352746 26.89675169 -2.13368497 18.53310551 -12.34765625 12.96484375 C-29.51285861 5.52658939 -47.72048558 10.58134563 -59.92578125 24.28515625 Z " fill="#000000" transform="translate(284.92578125,374.71484375)"/>
<path d="M0 0 C0.69641602 -0.00700928 1.39283203 -0.01401855 2.11035156 -0.02124023 C4.40730932 -0.03881383 6.70303021 -0.02720107 9 -0.01367188 C10.59896073 -0.01636701 12.19791987 -0.0202496 13.796875 -0.02526855 C17.14599226 -0.03116269 20.49468243 -0.0226038 23.84375 -0.00390625 C28.13478591 0.01888377 32.42482111 0.00576017 36.71582031 -0.01819611 C40.01700366 -0.03265667 43.31795011 -0.02804703 46.61914062 -0.01768494 C48.20117308 -0.01501834 49.78322711 -0.0182851 51.36523438 -0.02760315 C53.57740163 -0.03777366 55.787953 -0.02226378 58 0 C59.8871875 0.00477356 59.8871875 0.00477356 61.8125 0.00964355 C65.55520109 0.60605054 66.73159929 1.54273163 69 4.51757812 C69.53125 6.51757812 69.53125 6.51757812 69.5 8.51757812 C69.51546875 9.50757813 69.51546875 9.50757813 69.53125 10.51757812 C68.74176632 13.48975197 67.39936627 14.61414098 65 16.51757812 C61.8125 17.0255127 61.8125 17.0255127 58 17.03515625 C57.30358398 17.04216553 56.60716797 17.0491748 55.88964844 17.05639648 C53.59269068 17.07397008 51.29696979 17.06235732 49 17.04882812 C47.40103927 17.05152326 45.80208013 17.05540585 44.203125 17.0604248 C40.85400774 17.06631894 37.50531757 17.05776005 34.15625 17.0390625 C29.86521409 17.01627248 25.57517889 17.02939608 21.28417969 17.05335236 C17.98299634 17.06781292 14.68204989 17.06320328 11.38085938 17.05284119 C9.79882692 17.05017459 8.21677289 17.05344135 6.63476562 17.0627594 C4.42259837 17.07292991 2.212047 17.05742003 0 17.03515625 C-1.258125 17.03197388 -2.51625 17.0287915 -3.8125 17.0255127 C-7.55520109 16.42910571 -8.73159929 15.49242462 -11 12.51757812 C-11.53125 10.51757812 -11.53125 10.51757812 -11.5 8.51757812 C-11.51546875 7.52757812 -11.51546875 7.52757812 -11.53125 6.51757812 C-9.93997703 0.52690342 -5.4948528 0.01389899 0 0 Z " fill="#000000" transform="translate(227,143.482421875)"/>
</svg>
