<?xml version="1.0" encoding="UTF-8"?>
<svg version="1.1" xmlns="http://www.w3.org/2000/svg" width="512" height="512">
<path d="M0 0 C1.20378548 -0.01043099 2.40757095 -0.02086198 3.64783478 -0.03160906 C4.98531837 -0.02296064 6.32279955 -0.01393401 7.66027832 -0.00457001 C9.07981761 -0.00917763 10.49935214 -0.01552962 11.91887665 -0.02347898 C15.82438754 -0.04021479 19.7295087 -0.03190688 23.63502121 -0.01953411 C27.84504622 -0.01050322 32.05500307 -0.02444357 36.26501465 -0.0354538 C44.51427726 -0.05326464 52.76339452 -0.04938765 61.01266289 -0.03780323 C67.71544465 -0.02877925 74.41818559 -0.02754042 81.12097168 -0.0318985 C82.07399909 -0.03251143 83.02702651 -0.03312436 84.00893354 -0.03375587 C85.9448325 -0.03503474 87.88073144 -0.03633159 89.81663036 -0.03764623 C107.98070128 -0.04905954 126.14469152 -0.03592656 144.3087492 -0.01444477 C159.90317953 0.00342689 175.49749077 0.000323 191.09191895 -0.01811981 C209.18983167 -0.03951327 227.28767363 -0.04796084 245.38559723 -0.03567076 C247.31447855 -0.03439653 249.24335987 -0.03313904 251.17224121 -0.0318985 C252.59590791 -0.03097285 252.59590791 -0.03097285 254.04833555 -0.03002849 C260.74509088 -0.02657101 267.44180142 -0.03241249 274.1385498 -0.04181671 C282.29677774 -0.05302116 290.45485168 -0.05002948 298.6130619 -0.02869374 C302.77761946 -0.01816229 306.94192003 -0.01409691 311.10647583 -0.02729034 C314.91610992 -0.03917707 318.72524792 -0.03271391 322.53483677 -0.01138014 C323.91566253 -0.00689817 325.29652987 -0.00921599 326.67732906 -0.01888329 C328.54926179 -0.03098755 330.42131131 -0.01622032 332.29321289 0 C333.33451607 0.00064941 334.37581924 0.00129882 335.44867706 0.00196791 C338.88023338 0.63970545 340.06245707 1.7438769 342.14660645 4.50336456 C342.54116432 7.45121726 342.69392959 10.02513739 342.66418457 12.97211456 C342.67469849 14.25082428 342.67469849 14.25082428 342.6854248 15.55536652 C342.70302213 18.37169776 342.69137604 21.1870232 342.67785645 24.00336456 C342.68055086 25.96104882 342.68443286 27.91873177 342.68945312 29.87641144 C342.69535052 33.97875463 342.68677738 38.08074938 342.66809082 42.18305206 C342.6453012 47.44257085 342.65842298 52.7012732 342.68238068 57.96076202 C342.69683208 62.00310167 342.69223567 66.04524762 342.68186951 70.08759308 C342.6792004 72.02688442 342.68247842 73.96619333 342.69178772 75.90546417 C342.70194246 78.61565507 342.68646772 81.32452231 342.66418457 84.03461456 C342.67228149 84.83681427 342.68037842 85.63901398 342.6887207 86.46552277 C342.60672343 91.84630092 342.23625315 92.41371786 338.14660645 96.50336456 C331.54660645 96.50336456 324.94660645 96.50336456 318.14660645 96.50336456 C318.14660645 128.18336456 318.14660645 159.86336456 318.14660645 192.50336456 C348.2439174 192.34501121 348.2439174 192.34501121 378.34094238 192.143013 C384.16271973 192.12494659 384.16271973 192.12494659 386.8883667 192.12158966 C388.79156229 192.11544827 390.69474233 192.10138175 392.59783936 192.08106232 C395.48123196 192.05181588 398.36367385 192.04773927 401.24719238 192.049263 C402.09468929 192.03487057 402.9421862 192.02047813 403.81536484 192.00564957 C407.33235251 192.03055803 409.56528268 192.1792229 412.67047119 193.91065216 C414.98326511 197.97288796 414.70329844 201.84294178 414.66418457 206.44086456 C414.67469849 207.95365997 414.67469849 207.95365997 414.6854248 209.49701691 C414.70303863 212.83274571 414.69136955 216.16762704 414.67785645 219.50336456 C414.68055037 221.81977247 414.68443196 224.13617928 414.68945312 226.45258331 C414.69535279 231.30816154 414.68676983 236.16344552 414.66809082 241.01898956 C414.64530141 247.24701102 414.65842193 253.47434302 414.68238068 259.70233917 C414.69682577 264.48583941 414.6922385 269.26917583 414.68186951 274.05268097 C414.67919867 276.34923128 414.68248445 278.64579639 414.69178772 280.94232941 C414.70193172 284.15057597 414.68648128 287.35770162 414.66418457 290.56586456 C414.67228149 291.51767609 414.68037842 292.46948761 414.6887207 293.45014191 C414.64043396 297.19512364 414.53989692 299.77720582 412.74023438 303.10004425 C408.6402639 305.31839322 404.71589375 304.99449503 400.13098145 304.89398956 C399.16001526 304.88832977 398.18904907 304.88266998 397.18865967 304.87683868 C394.09080475 304.85446768 390.99411111 304.80426929 387.89660645 304.75336456 C385.79506066 304.73330053 383.69349673 304.71504959 381.59191895 304.69867706 C376.44303475 304.65460037 371.29501741 304.58556715 366.14660645 304.50336456 C366.15993011 305.7236586 366.17325378 306.94395264 366.1869812 308.20122528 C366.30879645 319.72104316 366.39864349 331.24072976 366.45747948 342.76104641 C366.48874515 348.68332016 366.53113218 354.6050725 366.59924316 360.5270462 C366.66460372 366.24589958 366.70034831 371.96425254 366.7158699 377.6834507 C366.72692615 379.86151312 366.74851679 382.03954924 366.78098679 384.21739769 C366.82477109 387.27677456 366.83053124 390.3341039 366.82775879 393.39374542 C366.84933044 394.28711105 366.8709021 395.18047668 366.89312744 396.100914 C366.82803573 402.77245721 364.87241527 407.70132608 360.14660645 412.50336456 C353.5240652 417.81102652 346.32486193 417.06993016 338.16690063 417.02475739 C336.62459062 417.03080137 335.08228661 417.03858082 333.53999317 417.04794252 C329.3088919 417.06850841 325.07812946 417.06413765 320.84700036 417.05558133 C316.28109089 417.05064787 311.71526311 417.06867385 307.14938354 417.08365631 C298.20704617 417.10915746 289.26482888 417.11273683 280.32246126 417.10805579 C273.05390786 417.10448993 265.78539093 417.10798765 258.51684189 417.11650467 C257.48240372 417.11769505 256.44796555 417.11888543 255.38218077 417.12011188 C253.28072509 417.12253537 251.17926941 417.12496364 249.07781373 417.12739663 C229.36940829 417.14915048 209.66107128 417.1448213 189.95266198 417.13262694 C171.92395851 417.12228838 153.89547117 417.14479939 135.86681046 417.18282337 C117.35353175 417.22157004 98.84035531 417.23809396 80.32703578 417.23057687 C69.93378327 417.22675122 59.54071471 417.23174353 49.14749527 417.26000595 C40.29957398 417.28382276 31.45194988 417.28665586 22.60402454 417.26242562 C18.09037378 417.25064016 13.57726672 417.24846953 9.06365204 417.27243042 C4.92926715 417.29412294 0.79588068 417.28797447 -3.33845724 417.25990705 C-4.83166828 417.25460589 -6.32495723 417.25936961 -7.81809185 417.27537878 C-16.70619364 417.36403912 -23.22349496 416.83096803 -29.85339355 410.50336456 C-34.25967465 405.27749308 -34.43871748 400.13380989 -34.40270996 393.48822784 C-34.41804276 392.01608322 -34.41804276 392.01608322 -34.4336853 390.5141983 C-34.46138746 387.28377343 -34.45957086 384.05420629 -34.45495605 380.82367706 C-34.46273513 378.56837398 -34.47140553 376.31307381 -34.48092651 374.0577774 C-34.4958317 369.33527877 -34.49528274 364.61307922 -34.48474121 359.89057159 C-34.4731562 353.85233997 -34.5070101 347.8153362 -34.55343056 341.77730751 C-34.58296096 337.12055102 -34.58464118 332.46408833 -34.5784111 327.80725479 C-34.57943482 325.58179925 -34.58985946 323.35632669 -34.61003494 321.13096237 C-34.63483994 318.01227114 -34.6211411 314.89594652 -34.59802246 311.77729034 C-34.62095367 310.41165955 -34.62095367 310.41165955 -34.64434814 309.01844025 C-34.5320385 302.12949704 -32.2865585 297.73874397 -27.85339355 292.50336456 C-21.44160596 286.92304277 -13.57210553 287.99279633 -5.5135498 288.11273956 C-4.20349976 288.11676788 -2.89344971 288.1207962 -1.54370117 288.12494659 C3.33237794 288.14581527 8.20825681 288.20166054 13.08410645 288.25336456 C23.99473145 288.33586456 34.90535645 288.41836456 46.14660645 288.50336456 C46.14660645 262.10336456 46.14660645 235.70336456 46.14660645 208.50336456 C37.94945801 208.57297394 29.75230957 208.64258331 21.3067627 208.71430206 C15.44529835 208.74886877 9.58391083 208.77962407 3.72240925 208.80488777 C-3.86566968 208.83809955 -11.45335163 208.88022188 -19.0411377 208.95600128 C-25.69360461 209.02240771 -32.34575523 209.0570935 -38.99856758 209.07262802 C-41.53387779 209.08369544 -44.06916506 209.10530777 -46.60429192 209.1377449 C-50.16171534 209.18144306 -53.71737483 209.18729263 -57.27502441 209.18451691 C-58.31800186 209.20608856 -59.36097931 209.22766022 -60.43556213 209.24988556 C-67.70469827 209.18870622 -72.49390033 207.50959629 -77.85339355 202.50336456 C-82.35859528 197.43321894 -82.43807412 192.01507191 -82.40270996 185.48822784 C-82.41293182 184.5067981 -82.42315369 183.52536835 -82.4336853 182.5141983 C-82.46138746 179.28377343 -82.45957086 176.05420629 -82.45495605 172.82367706 C-82.46273513 170.56837398 -82.47140553 168.31307381 -82.48092651 166.0577774 C-82.4958317 161.33527877 -82.49528274 156.61307922 -82.48474121 151.89057159 C-82.4731562 145.85233997 -82.5070101 139.8153362 -82.55343056 133.77730751 C-82.58296096 129.12055102 -82.58464118 124.46408833 -82.5784111 119.80725479 C-82.57943482 117.58179925 -82.58985946 115.35632669 -82.61003494 113.13096237 C-82.63483994 110.01227114 -82.6211411 106.89594652 -82.59802246 103.77729034 C-82.61330994 102.86686981 -82.62859741 101.95644928 -82.64434814 101.01844025 C-82.5321947 94.13907837 -80.30130189 89.72068552 -75.85339355 84.50336456 C-69.63851529 79.28994776 -63.09773913 79.98380553 -55.2635498 80.11273956 C-53.96388779 80.11839935 -52.66422577 80.12405914 -51.32518005 80.12989044 C-47.89066093 80.14507253 -44.45683183 80.18428762 -41.02258301 80.22870636 C-37.50990124 80.2698213 -33.99710661 80.28793582 -30.48425293 80.30805206 C-23.60701858 80.35079115 -16.73023931 80.41895027 -9.85339355 80.50336456 C-9.862276 79.56011322 -9.87115845 78.61686188 -9.88031006 77.64502716 C-9.96138046 68.75778995 -10.02135142 59.87062772 -10.06064224 50.98310471 C-10.0815212 46.41385493 -10.10984427 41.84490354 -10.15515137 37.2758255 C-10.19859844 32.86675584 -10.22252834 28.45797326 -10.23290253 24.04870605 C-10.24029598 22.3661497 -10.25473372 20.68360913 -10.27631378 19.00117493 C-10.30533359 16.64511355 -10.3093503 14.29023983 -10.30749512 11.93402863 C-10.32187622 11.2377536 -10.33625732 10.54147858 -10.35107422 9.82410431 C-10.32420445 6.67236872 -10.12544811 4.85955904 -8.18916702 2.32443285 C-5.24684044 0.03046997 -3.70407178 0.00231005 0 0 Z M6.14660645 16.50336456 C6.14660645 37.62336456 6.14660645 58.74336456 6.14660645 80.50336456 C111.74660645 80.50336456 217.34660645 80.50336456 326.14660645 80.50336456 C326.14660645 59.38336456 326.14660645 38.26336456 326.14660645 16.50336456 C220.54660645 16.50336456 114.94660645 16.50336456 6.14660645 16.50336456 Z M-61.85339355 96.50336456 C-65.94304026 100.59301127 -66.31351054 101.16042821 -66.39550781 106.54120636 C-66.38741089 107.34340607 -66.37931396 108.14560577 -66.37097168 108.97211456 C-66.37798096 109.82458771 -66.38499023 110.67706085 -66.39221191 111.55536652 C-66.40980924 114.37169776 -66.39816315 117.1870232 -66.38464355 120.00336456 C-66.38733797 121.96104882 -66.39121997 123.91873177 -66.39624023 125.87641144 C-66.40213763 129.97875463 -66.39356449 134.08074938 -66.37487793 138.18305206 C-66.35208831 143.44257085 -66.36521009 148.7012732 -66.38916779 153.96076202 C-66.40361919 158.00310167 -66.39902278 162.04524762 -66.38865662 166.08759308 C-66.38598751 168.02688442 -66.38926553 169.96619333 -66.39857483 171.90546417 C-66.40872957 174.61565507 -66.39325483 177.32452231 -66.37097168 180.03461456 C-66.3790686 180.83681427 -66.38716553 181.63901398 -66.39550781 182.46552277 C-66.31351054 187.84630092 -65.94304026 188.41371786 -61.85339355 192.50336456 C-55.25339355 192.50336456 -48.65339355 192.50336456 -41.85339355 192.50336456 C-41.85339355 160.82336456 -41.85339355 129.14336456 -41.85339355 96.50336456 C-48.45339355 96.50336456 -55.05339355 96.50336456 -61.85339355 96.50336456 Z M-25.85339355 96.50336456 C-25.85339355 128.18336456 -25.85339355 159.86336456 -25.85339355 192.50336456 C3.18660645 192.50336456 32.22660645 192.50336456 62.14660645 192.50336456 C62.14660645 160.82336456 62.14660645 129.14336456 62.14660645 96.50336456 C33.10660645 96.50336456 4.06660645 96.50336456 -25.85339355 96.50336456 Z M78.14660645 96.50336456 C78.14660645 128.18336456 78.14660645 159.86336456 78.14660645 192.50336456 C104.54660645 192.50336456 130.94660645 192.50336456 158.14660645 192.50336456 C158.14660645 160.82336456 158.14660645 129.14336456 158.14660645 96.50336456 C131.74660645 96.50336456 105.34660645 96.50336456 78.14660645 96.50336456 Z M174.14660645 96.50336456 C174.14660645 128.18336456 174.14660645 159.86336456 174.14660645 192.50336456 C203.18660645 192.50336456 232.22660645 192.50336456 262.14660645 192.50336456 C262.14660645 160.82336456 262.14660645 129.14336456 262.14660645 96.50336456 C233.10660645 96.50336456 204.06660645 96.50336456 174.14660645 96.50336456 Z M278.14660645 96.50336456 C278.14660645 128.18336456 278.14660645 159.86336456 278.14660645 192.50336456 C284.74660645 192.50336456 291.34660645 192.50336456 298.14660645 192.50336456 C302.23625315 188.41371786 302.60672343 187.84630092 302.6887207 182.46552277 C302.68062378 181.66332306 302.67252686 180.86112335 302.66418457 180.03461456 C302.67119385 179.18214142 302.67820312 178.32966827 302.6854248 177.45136261 C302.70302213 174.63503137 302.69137604 171.81970593 302.67785645 169.00336456 C302.68055086 167.04568031 302.68443286 165.08799736 302.68945312 163.13031769 C302.69535052 159.0279745 302.68677738 154.92597975 302.66809082 150.82367706 C302.6453012 145.56415828 302.65842298 140.30545593 302.68238068 135.0459671 C302.69683208 131.00362746 302.69223567 126.96148151 302.68186951 122.91913605 C302.6792004 120.9798447 302.68247842 119.04053579 302.69178772 117.10126495 C302.70194246 114.39107406 302.68646772 111.68220681 302.66418457 108.97211456 C302.67228149 108.16991486 302.68037842 107.36771515 302.6887207 106.54120636 C302.60672343 101.16042821 302.23625315 100.59301127 298.14660645 96.50336456 C291.54660645 96.50336456 284.94660645 96.50336456 278.14660645 96.50336456 Z M62.14660645 208.50336456 C62.14660645 234.90336456 62.14660645 261.30336456 62.14660645 288.50336456 C173.02660645 288.50336456 283.90660645 288.50336456 398.14660645 288.50336456 C398.14660645 262.10336456 398.14660645 235.70336456 398.14660645 208.50336456 C287.26660645 208.50336456 176.38660645 208.50336456 62.14660645 208.50336456 Z M-13.85339355 304.50336456 C-17.94304026 308.59301127 -18.31351054 309.16042821 -18.39550781 314.54120636 C-18.38741089 315.34340607 -18.37931396 316.14560577 -18.37097168 316.97211456 C-18.37798096 317.82458771 -18.38499023 318.67706085 -18.39221191 319.55536652 C-18.40980924 322.37169776 -18.39816315 325.1870232 -18.38464355 328.00336456 C-18.38733797 329.96104882 -18.39121997 331.91873177 -18.39624023 333.87641144 C-18.40213763 337.97875463 -18.39356449 342.08074938 -18.37487793 346.18305206 C-18.35208831 351.44257085 -18.36521009 356.7012732 -18.38916779 361.96076202 C-18.40361919 366.00310167 -18.39902278 370.04524762 -18.38865662 374.08759308 C-18.38598751 376.02688442 -18.38926553 377.96619333 -18.39857483 379.90546417 C-18.40872957 382.61565507 -18.39325483 385.32452231 -18.37097168 388.03461456 C-18.3790686 388.83681427 -18.38716553 389.63901398 -18.39550781 390.46552277 C-18.31351054 395.84630092 -17.94304026 396.41371786 -13.85339355 400.50336456 C-7.25339355 400.50336456 -0.65339355 400.50336456 6.14660645 400.50336456 C6.14660645 368.82336456 6.14660645 337.14336456 6.14660645 304.50336456 C-0.45339355 304.50336456 -7.05339355 304.50336456 -13.85339355 304.50336456 Z M22.14660645 304.50336456 C22.14660645 336.18336456 22.14660645 367.86336456 22.14660645 400.50336456 C51.18660645 400.50336456 80.22660645 400.50336456 110.14660645 400.50336456 C110.14660645 368.82336456 110.14660645 337.14336456 110.14660645 304.50336456 C81.10660645 304.50336456 52.06660645 304.50336456 22.14660645 304.50336456 Z M126.14660645 304.50336456 C126.14660645 336.18336456 126.14660645 367.86336456 126.14660645 400.50336456 C152.54660645 400.50336456 178.94660645 400.50336456 206.14660645 400.50336456 C206.14660645 368.82336456 206.14660645 337.14336456 206.14660645 304.50336456 C179.74660645 304.50336456 153.34660645 304.50336456 126.14660645 304.50336456 Z M222.14660645 304.50336456 C222.14660645 336.18336456 222.14660645 367.86336456 222.14660645 400.50336456 C251.18660645 400.50336456 280.22660645 400.50336456 310.14660645 400.50336456 C310.14660645 368.82336456 310.14660645 337.14336456 310.14660645 304.50336456 C281.10660645 304.50336456 252.06660645 304.50336456 222.14660645 304.50336456 Z M326.14660645 304.50336456 C326.14660645 336.18336456 326.14660645 367.86336456 326.14660645 400.50336456 C332.74660645 400.50336456 339.34660645 400.50336456 346.14660645 400.50336456 C350.23625315 396.41371786 350.60672343 395.84630092 350.6887207 390.46552277 C350.68062378 389.66332306 350.67252686 388.86112335 350.66418457 388.03461456 C350.67119385 387.18214142 350.67820312 386.32966827 350.6854248 385.45136261 C350.70302213 382.63503137 350.69137604 379.81970593 350.67785645 377.00336456 C350.68055086 375.04568031 350.68443286 373.08799736 350.68945312 371.13031769 C350.69535052 367.0279745 350.68677738 362.92597975 350.66809082 358.82367706 C350.6453012 353.56415828 350.65842298 348.30545593 350.68238068 343.0459671 C350.69683208 339.00362746 350.69223567 334.96148151 350.68186951 330.91913605 C350.6792004 328.9798447 350.68247842 327.04053579 350.69178772 325.10126495 C350.70194246 322.39107406 350.68646772 319.68220681 350.66418457 316.97211456 C350.67228149 316.16991486 350.68037842 315.36771515 350.6887207 314.54120636 C350.60672343 309.16042821 350.23625315 308.59301127 346.14660645 304.50336456 C339.54660645 304.50336456 332.94660645 304.50336456 326.14660645 304.50336456 Z " fill="#000000" transform="translate(89.8533935546875,55.49663543701172)"/>
</svg>
