<?xml version="1.0" encoding="UTF-8"?>
<svg version="1.1" xmlns="http://www.w3.org/2000/svg" width="512" height="512">
<path d="M0 0 C0.69156923 -0.00453111 1.38313845 -0.00906223 2.09566432 -0.01373065 C4.40074398 -0.02633709 6.70558621 -0.02475672 9.01069641 -0.02310181 C10.66859235 -0.02908954 12.3264855 -0.03589565 13.984375 -0.04345703 C18.48049762 -0.06110244 22.97654407 -0.06581188 27.47269797 -0.0670886 C30.28531224 -0.06851194 33.09790726 -0.07278507 35.91051674 -0.07808304 C45.73331045 -0.09658067 55.55604993 -0.10475426 65.37886047 -0.10317993 C74.51744859 -0.10197961 83.65580011 -0.12306121 92.79432839 -0.15466726 C100.65359085 -0.18087466 108.51277627 -0.19154531 116.37208205 -0.19026911 C121.06003599 -0.18976066 125.74777974 -0.19537881 130.43568993 -0.21662521 C134.84924671 -0.23608218 139.2623945 -0.23608145 143.67596626 -0.22159195 C145.288752 -0.21951175 146.90156384 -0.22415735 148.51430511 -0.23631287 C163.75451891 -0.34366866 175.82961883 3.03997499 186.96113586 13.95492554 C190.45549221 18.19222694 192.50007773 22.50172489 194.55097961 27.53305054 C194.89064758 28.35353378 195.23031555 29.17401703 195.58027649 30.0193634 C199.65722305 39.96569323 203.43597188 50.02802709 207.19258118 60.09872437 C208.41988058 63.3868433 209.65500249 66.67195418 210.89082336 69.95687866 C211.67513469 72.05110855 212.45900624 74.1455032 213.24238586 76.24008179 C213.61101746 77.22009659 213.97964905 78.20011139 214.35945129 79.20982361 C214.8612793 80.55910194 214.8612793 80.55910194 215.37324524 81.93563843 C215.81670288 83.12208702 215.81670288 83.12208702 216.26911926 84.33250427 C216.89863586 86.26742554 216.89863586 86.26742554 216.89863586 88.26742554 C217.82412231 88.25854309 218.74960876 88.24966064 219.70314026 88.24050903 C228.47017291 88.1600085 237.23707954 88.09928202 246.00439835 88.06017685 C250.51064712 88.03939585 255.01658779 88.01125412 259.5226593 87.96566772 C263.87989535 87.92186822 268.23683704 87.89821729 272.59427643 87.88791656 C274.24789303 87.88058585 275.90149546 87.86627251 277.55498505 87.84450531 C294.09722791 87.63560709 306.22584216 91.05418258 318.64863586 102.57992554 C328.92445426 113.43739404 331.37630937 125.41327398 331.19160461 139.93148804 C331.18735977 141.20470917 331.18311493 142.4779303 331.17874146 143.78973389 C331.16488501 147.14031649 331.13803327 150.49026074 331.10462952 153.84066772 C331.0736899 157.27322945 331.06018561 160.70585769 331.04512024 164.13851929 C331.01218673 170.84832781 330.96208949 177.55783991 330.89863586 184.26742554 C331.82418274 184.23390991 332.74972961 184.20039429 333.70332336 184.16586304 C338.85961643 184.32975499 341.60306325 186.89647415 345.04707336 190.54086304 C348.3762444 195.72537809 347.47134589 202.35367698 347.39863586 208.26742554 C347.41410461 209.52555054 347.42957336 210.78367554 347.44551086 212.07992554 C347.39623147 223.70986199 347.39623147 223.70986199 342.89863586 228.26742554 C338.36773311 231.83216184 335.49281131 232.75621486 329.75019836 232.65805054 C329.0928067 232.65239075 328.43541504 232.64673096 327.75810242 232.64089966 C325.67917395 232.61868829 323.60203423 232.56852974 321.52363586 232.51742554 C320.10569219 232.49734043 318.68772122 232.47909319 317.26972961 232.46273804 C313.8121271 232.4188762 310.35555636 232.34995991 306.89863586 232.26742554 C306.77891418 232.92621704 306.6591925 233.58500854 306.5358429 234.26376343 C303.74228046 249.01718054 296.62201696 261.46565435 284.46894836 270.55258179 C274.20065925 277.40330963 263.55251172 280.85407402 251.21113586 280.76742554 C250.25432922 280.76170532 249.29752258 280.75598511 248.3117218 280.75009155 C235.38563828 280.42791575 224.974146 276.53810516 214.89863586 268.26742554 C213.41750305 267.1034021 213.41750305 267.1034021 211.90644836 265.91586304 C202.5247376 258.03267154 197.79318747 246.87472293 194.89863586 235.26742554 C194.89863586 234.27742554 194.89863586 233.28742554 194.89863586 232.26742554 C131.53863586 232.26742554 68.17863586 232.26742554 2.89863586 232.26742554 C2.23863586 235.56742554 1.57863586 238.86742554 0.89863586 242.26742554 C-3.95648085 256.7010477 -13.69209243 267.99697167 -27.10136414 275.07992554 C-35.37411861 279.17198445 -43.61100796 280.83186303 -52.78886414 280.76742554 C-53.74567078 280.76170532 -54.70247742 280.75598511 -55.6882782 280.75009155 C-68.61436172 280.42791575 -79.025854 276.53810516 -89.10136414 268.26742554 C-90.58249695 267.1034021 -90.58249695 267.1034021 -92.09355164 265.91586304 C-101.4752624 258.03267154 -106.20681253 246.87472293 -109.10136414 235.26742554 C-109.10136414 234.27742554 -109.10136414 233.28742554 -109.10136414 232.26742554 C-109.9787323 232.2883728 -110.85610046 232.30932007 -111.76005554 232.3309021 C-115.03653096 232.39935154 -118.31223926 232.44935605 -121.5891571 232.4871521 C-123.00334208 232.50718396 -124.4174451 232.53441802 -125.8313446 232.56918335 C-127.87207832 232.61808042 -129.91171103 232.64047676 -131.95292664 232.65805054 C-133.17834167 232.6789978 -134.40375671 232.69994507 -135.66630554 232.7215271 C-140.83450023 232.0383116 -143.854435 229.53098039 -147.44511414 225.89242554 C-150.06787395 220.15204557 -149.67797773 214.49866413 -149.60136414 208.26742554 C-149.61683289 207.00930054 -149.63230164 205.75117554 -149.64823914 204.45492554 C-149.5998183 193.02760794 -149.5998183 193.02760794 -145.10136414 188.26742554 C-140.8763629 184.77720713 -138.48632813 184.07242684 -133.10136414 184.26742554 C-133.11024658 183.56744446 -133.11912903 182.86746338 -133.12828064 182.14627075 C-133.20895651 175.49839081 -133.26959452 168.85065061 -133.30861282 162.20238876 C-133.32934814 158.78570147 -133.35740176 155.36942396 -133.40312195 151.95297241 C-133.45553561 148.01096777 -133.47442549 144.06911985 -133.49198914 140.12680054 C-133.51263428 138.92005676 -133.53327942 137.71331299 -133.55455017 136.47000122 C-133.5583373 121.92564518 -128.60559272 111.09819196 -118.78886414 100.51742554 C-107.40342071 89.74191658 -95.14651662 87.78645533 -79.97636414 88.07992554 C-78.62481668 88.09501122 -77.27325278 88.10869271 -75.92167664 88.12094116 C-72.64781043 88.1560183 -69.37480734 88.20517457 -66.10136414 88.26742554 C-65.97806732 87.534095 -65.85477051 86.80076447 -65.72773743 86.04521179 C-65.12193113 83.35863429 -64.29989448 81.28069187 -63.07939148 78.82284546 C-62.66160431 77.97393234 -62.24381714 77.12501923 -61.81336975 76.25038147 C-61.35926727 75.3420607 -60.90516479 74.43373993 -60.43730164 73.49789429 C-59.96700531 72.54409378 -59.49670898 71.59029327 -59.01216125 70.60758972 C-57.50575573 67.55393253 -55.99170021 64.5041597 -54.47636414 61.45492554 C-52.50052088 57.47145344 -50.52894156 53.48591823 -48.56230164 49.49789429 C-48.08549454 48.53216995 -47.60868744 47.56644562 -47.11743164 46.57145691 C-43.7069216 39.61851001 -40.54705466 32.59443723 -37.56840515 25.44662476 C-32.14613821 13.69612382 -22.27102377 5.80196365 -10.41678143 1.23262596 C-6.78413163 0.17507127 -3.78025569 0.01026911 0 0 Z M-11.85136414 20.82992554 C-12.52683289 21.2643396 -13.20230164 21.69875366 -13.89823914 22.14633179 C-20.50358586 28.50573475 -24.04265379 37.02873881 -27.72636414 45.26742554 C-28.84656243 47.7235377 -29.9694112 50.17820959 -31.09745789 52.63070679 C-31.40119827 53.29169876 -31.70493866 53.95269073 -32.0178833 54.63371277 C-36.04337545 63.35814579 -40.22744324 72.00659897 -44.42649841 80.64852905 C-45.3348839 82.51975188 -46.24084982 84.39215121 -47.14439392 86.26571655 C-48.41951231 88.90862744 -49.70261224 91.54750621 -50.98808289 94.18539429 C-51.37400101 94.98825363 -51.75991913 95.79111298 -52.15753174 96.61830139 C-54.87245112 102.15296903 -54.87245112 102.15296903 -57.10136414 103.26742554 C-59.0766079 103.39815237 -61.05586751 103.47017515 -63.03495789 103.51351929 C-64.24216492 103.54639038 -65.44937195 103.57926147 -66.69316101 103.61312866 C-69.22173553 103.6734857 -71.75038323 103.73086407 -74.27909851 103.78500366 C-87.02983566 104.14237493 -98.25976826 104.90558975 -107.95292664 114.00570679 C-111.65236821 118.11518498 -115.10136414 122.56096166 -115.10136414 128.26742554 C-114.3294574 128.28200806 -113.55755066 128.29659058 -112.76225281 128.31161499 C-109.27061321 128.38600587 -105.77993924 128.48269644 -102.28886414 128.57992554 C-101.07392273 128.60248413 -99.85898132 128.62504272 -98.60722351 128.64828491 C-96.86215515 128.70145874 -96.86215515 128.70145874 -95.08183289 128.75570679 C-94.00828552 128.78189087 -92.93473816 128.80807495 -91.82865906 128.83505249 C-89.10136414 129.26742554 -89.10136414 129.26742554 -87.25248718 130.35018921 C-85.45719889 133.34030564 -85.71188638 135.99731626 -85.70292664 139.45492554 C-85.70005646 140.15383911 -85.69718628 140.85275269 -85.69422913 141.57284546 C-85.69218988 143.04884655 -85.69771011 144.52487475 -85.71025085 146.00082397 C-85.72630834 148.25957692 -85.71039943 150.51654072 -85.69120789 152.77523804 C-85.69319034 154.21013782 -85.69703408 155.64503649 -85.70292664 157.07992554 C-85.70631042 158.38574585 -85.70969421 159.69156616 -85.71318054 161.03695679 C-86.10136414 164.26742554 -86.10136414 164.26742554 -87.22514343 166.18466187 C-89.99625707 167.78386668 -92.33505408 167.70710178 -95.51933289 167.77914429 C-96.77294617 167.81459351 -98.02655945 167.85004272 -99.31816101 167.88656616 C-100.62849304 167.90912476 -101.93882507 167.93168335 -103.28886414 167.95492554 C-104.62418426 167.9881022 -105.95947245 168.0225922 -107.29472351 168.05844116 C-110.56330239 168.14104063 -113.83232057 168.20590557 -117.10136414 168.26742554 C-117.10136414 173.54742554 -117.10136414 178.82742554 -117.10136414 184.26742554 C-101.0297902 185.97077928 -101.0297902 185.97077928 -86.60136414 180.51742554 C-85.08444013 179.1188956 -83.58218645 177.70412652 -82.10136414 176.26742554 C-73.40363282 170.72652676 -63.60204939 168.69589455 -53.41386414 168.76742554 C-52.4570575 168.77314575 -51.50025085 168.77886597 -50.51445007 168.78475952 C-37.23596848 169.11571865 -25.11361182 173.22523101 -15.5301218 182.8445406 C-11.90082794 184.97075831 -8.28196026 184.69777321 -4.19046021 184.68202209 C-3.280088 184.6902299 -2.3697158 184.6984377 -1.43175656 184.70689422 C1.62581528 184.73061092 4.68301929 184.73279521 7.74067688 184.73495483 C9.93029456 184.74720286 12.1199058 184.76065471 14.30950928 184.77522278 C20.26437338 184.81032567 26.21912656 184.8255411 32.17408109 184.83505988 C35.89559825 184.84163202 39.61708592 184.85197588 43.33859062 184.86356544 C55.65484644 184.90127253 67.97103564 184.92456679 80.28734506 184.931968 C80.9512805 184.93237357 81.61521594 184.93277915 82.29927063 184.93319702 C82.96402092 184.933599 83.62877121 184.93400098 84.31366544 184.93441514 C95.07297424 184.94189677 105.83178105 184.98633379 116.59090853 185.04705443 C127.64828886 185.10895469 138.70540704 185.1399808 149.7629618 185.1421445 C155.96691047 185.14398397 162.17019022 185.15858962 168.37397957 185.20496178 C174.21425698 185.24768729 180.05333264 185.25195199 185.89370155 185.22716713 C188.03220212 185.22458616 190.17077071 185.235575 192.30911636 185.26144409 C204.82089569 185.40365986 212.52228571 185.20136314 221.89863586 176.26742554 C230.70392985 170.80289142 240.31422062 168.69530669 250.58613586 168.76742554 C251.5429425 168.77314575 252.49974915 168.77886597 253.48554993 168.78475952 C267.22038352 169.12709299 278.34445272 173.63299644 288.67427063 182.85214233 C291.48901549 184.64306275 293.22263853 184.61331911 296.53926086 184.56039429 C298.14414368 184.54589233 298.14414368 184.54589233 299.78144836 184.53109741 C300.89262024 184.50596069 302.00379211 184.48082397 303.14863586 184.45492554 C304.27527649 184.44139038 305.40191711 184.42785522 306.56269836 184.41390991 C309.34154867 184.37858554 312.12015294 184.32477954 314.89863586 184.26742554 C314.89863586 178.98742554 314.89863586 173.70742554 314.89863586 168.26742554 C312.91219055 168.23004272 310.92574524 168.19265991 308.87910461 168.15414429 C306.95288974 168.10546738 305.02667592 168.05668746 303.10054016 168.00497437 C301.10572957 167.95541235 299.11056329 167.9209142 297.11543274 167.88656616 C295.86181946 167.85111694 294.60820618 167.81566772 293.31660461 167.77914429 C292.15926819 167.75296021 291.00193176 167.72677612 289.80952454 167.69979858 C286.89863586 167.26742554 286.89863586 167.26742554 285.02241516 166.18466187 C283.26671542 163.18933054 283.50912101 160.52321739 283.50019836 157.07992554 C283.49732819 156.38101196 283.49445801 155.68209839 283.49150085 154.96200562 C283.48946161 153.48600452 283.49498184 152.00997632 283.50752258 150.5340271 C283.52358007 148.27527416 283.50767116 146.01831036 283.48847961 143.75961304 C283.49046207 142.32471326 283.49430581 140.88981459 283.50019836 139.45492554 C283.50358215 138.14910522 283.50696594 136.84328491 283.51045227 135.49789429 C283.89863586 132.26742554 283.89863586 132.26742554 285.04975891 130.35018921 C287.69212258 128.8027334 289.82797165 128.83012466 292.87910461 128.75570679 C294.04248352 128.72025757 295.20586243 128.68480835 296.40449524 128.64828491 C297.61943665 128.62572632 298.83437805 128.60316772 300.08613586 128.57992554 C301.31267883 128.54576538 302.5392218 128.51160522 303.80293274 128.47640991 C306.83474264 128.39383143 309.86625966 128.32471184 312.89863586 128.26742554 C311.57136513 120.97460482 307.81531142 115.45959362 301.96113586 110.89242554 C292.20887245 104.21203257 282.56744257 104.11812272 271.17504883 104.12939453 C269.42837747 104.12516261 269.42837747 104.12516261 267.64641982 104.1208452 C264.43223122 104.11397744 261.21807369 104.11147529 258.00387895 104.11079407 C254.53084889 104.10894617 251.05783113 104.10133509 247.58480835 104.09431458 C241.57282351 104.08281564 235.56084144 104.07455777 229.54884911 104.06819534 C220.04976945 104.05785163 210.55072453 104.03728598 201.05166626 104.01507568 C197.79996406 104.0075972 194.54826172 104.00018338 191.29655933 103.99278831 C190.4840886 103.99093775 189.67161786 103.98908718 188.8345268 103.98718054 C179.59702941 103.96627539 170.35952821 103.94743387 161.12202454 103.92953491 C160.27800088 103.92789673 159.43397723 103.92625855 158.56437711 103.92457072 C144.86434862 103.89824384 131.16431744 103.87962075 117.46427431 103.86294301 C103.39645036 103.84554076 89.32867949 103.81672091 75.26089793 103.77805364 C66.5833978 103.75462968 57.90598413 103.74065694 49.22845212 103.738726 C43.28919767 103.73662148 37.35002947 103.72373319 31.41081371 103.70224668 C27.98155985 103.69018576 24.55247727 103.6830875 21.12320328 103.68895912 C17.41104707 103.69282542 13.69940324 103.67849147 9.98730469 103.65942383 C8.89647085 103.66495352 7.80563702 103.67048322 6.68174762 103.67618048 C5.19626177 103.66292072 5.19626177 103.66292072 3.68076611 103.64939308 C2.82351726 103.64803655 1.96626841 103.64668002 1.08304232 103.64528239 C-1.60942611 103.17954139 -2.49732448 102.45199768 -4.10136414 100.26742554 C-4.48231506 97.19345093 -4.48231506 97.19345093 -4.48954773 93.36508179 C-4.49480469 92.66720551 -4.50006165 91.96932922 -4.50547791 91.25030518 C-4.5186826 88.94328434 -4.50993868 86.6369534 -4.49980164 84.32992554 C-4.50182225 82.72714099 -4.50473358 81.12435733 -4.50849915 79.52157593 C-4.51292311 76.16235603 -4.50648926 72.80337544 -4.49247742 69.44418335 C-4.47538529 65.13635715 -4.48522611 60.82909164 -4.50319481 56.52128601 C-4.51403079 53.21159636 -4.5105872 49.90203983 -4.50281143 46.59234619 C-4.5008089 45.00390558 -4.50327057 43.41545291 -4.51025009 41.82702637 C-4.51786177 39.60761458 -4.50626559 37.38911319 -4.48954773 35.16976929 C-4.48716095 33.90640747 -4.48477417 32.64304565 -4.48231506 31.34140015 C-4.10136414 28.26742554 -4.10136414 28.26742554 -3.008214 26.60022259 C-0.12084188 24.58208728 2.29375398 24.88142729 5.78918457 24.86869812 C6.49411885 24.86205129 7.19905313 24.85540447 7.92534906 24.84855622 C10.29313664 24.82986793 12.66042149 24.83253533 15.02827454 24.83505249 C16.72328407 24.82603886 18.41828706 24.81571263 20.11328125 24.8041687 C24.72041176 24.77652561 29.32741885 24.7673043 33.93462157 24.76131463 C38.74732745 24.75194993 43.55994043 24.72574815 48.37258911 24.7013092 C57.48854082 24.65758798 66.60447457 24.62907559 75.72049934 24.60598582 C86.09769198 24.57896424 96.47479143 24.5350509 106.85191762 24.4896971 C128.20077362 24.39677031 149.54965752 24.3251264 170.89863586 24.26742554 C164.66004316 17.84229683 159.64613403 16.49907129 150.70701122 16.13879108 C149.61292603 16.13711524 148.51884085 16.1354394 147.39160156 16.13371277 C146.12589325 16.12944778 144.86018494 16.1251828 143.55612183 16.12078857 C142.17118832 16.12113802 140.78625484 16.12159951 139.40132141 16.12216187 C137.92884741 16.11916654 136.45637418 16.11576315 134.98390198 16.11198425 C130.99823075 16.103178 127.01258102 16.10080756 123.02690101 16.10016847 C120.53273087 16.09945604 118.03856614 16.09731806 115.54439735 16.09467125 C106.83150004 16.08542893 98.11861799 16.08133496 89.40571594 16.0821228 C81.30268991 16.08272327 73.19973052 16.07217474 65.09672135 16.05637914 C58.1240793 16.04327465 51.15145896 16.03794013 44.1788047 16.03857821 C40.02136724 16.03883235 35.86398906 16.03602795 31.70656395 16.02540016 C27.79376459 16.01567011 23.88108057 16.01567339 19.96827698 16.02291679 C18.53890628 16.02395657 17.10952821 16.02163616 15.68017006 16.01555634 C1.29008497 15.71346137 1.29008497 15.71346137 -11.85136414 20.82992554 Z M10.89863586 40.26742554 C10.89863586 56.10742554 10.89863586 71.94742554 10.89863586 88.26742554 C34.65863586 88.26742554 58.41863586 88.26742554 82.89863586 88.26742554 C82.89863586 72.42742554 82.89863586 56.58742554 82.89863586 40.26742554 C59.13863586 40.26742554 35.37863586 40.26742554 10.89863586 40.26742554 Z M98.89863586 40.26742554 C98.89863586 56.10742554 98.89863586 71.94742554 98.89863586 88.26742554 C131.89863586 88.26742554 164.89863586 88.26742554 198.89863586 88.26742554 C192.90442925 71.12657463 192.90442925 71.12657463 186.52363586 54.14242554 C186.08664368 53.0093396 185.64965149 51.87625366 185.19941711 50.70883179 C183.21240052 45.41708076 183.21240052 45.41708076 180.89863586 40.26742554 C153.83863586 40.26742554 126.77863586 40.26742554 98.89863586 40.26742554 Z M-117.10136414 144.26742554 C-117.10136414 146.90742554 -117.10136414 149.54742554 -117.10136414 152.26742554 C-111.82136414 152.26742554 -106.54136414 152.26742554 -101.10136414 152.26742554 C-101.10136414 149.62742554 -101.10136414 146.98742554 -101.10136414 144.26742554 C-106.38136414 144.26742554 -111.66136414 144.26742554 -117.10136414 144.26742554 Z M298.89863586 144.26742554 C298.89863586 146.90742554 298.89863586 149.54742554 298.89863586 152.26742554 C304.17863586 152.26742554 309.45863586 152.26742554 314.89863586 152.26742554 C314.89863586 149.62742554 314.89863586 146.98742554 314.89863586 144.26742554 C309.61863586 144.26742554 304.33863586 144.26742554 298.89863586 144.26742554 Z M-81.85136414 196.39242554 C-90.41258764 205.46083053 -92.5973767 216.19243653 -92.37870789 228.14633179 C-91.87068658 239.16862482 -86.19972322 247.50396708 -78.47636414 254.95492554 C-69.02739459 262.71340147 -58.92139867 264.49324084 -47.0579071 263.50668335 C-36.33612746 262.19555981 -28.1006551 256.1019078 -21.28886414 248.01742554 C-14.10108805 238.05483357 -12.54400694 227.26140033 -14.10136414 215.26742554 C-16.73367245 204.23197915 -23.7474405 195.71644569 -33.28886414 189.76742554 C-49.86491624 180.72825734 -67.89199395 183.92327134 -81.85136414 196.39242554 Z M222.14863586 196.39242554 C213.58741236 205.46083053 211.4026233 216.19243653 211.62129211 228.14633179 C212.12931342 239.16862482 217.80027678 247.50396708 225.52363586 254.95492554 C234.97260541 262.71340147 245.07860133 264.49324084 256.9420929 263.50668335 C267.66387254 262.19555981 275.8993449 256.1019078 282.71113586 248.01742554 C289.89891195 238.05483357 291.45599306 227.26140033 289.89863586 215.26742554 C287.26632755 204.23197915 280.2525595 195.71644569 270.71113586 189.76742554 C254.13508376 180.72825734 236.10800605 183.92327134 222.14863586 196.39242554 Z M-133.10136414 200.26742554 C-133.10136414 205.54742554 -133.10136414 210.82742554 -133.10136414 216.26742554 C-125.18136414 216.26742554 -117.26136414 216.26742554 -109.10136414 216.26742554 C-107.45136414 210.98742554 -105.80136414 205.70742554 -104.10136414 200.26742554 C-113.67136414 200.26742554 -123.24136414 200.26742554 -133.10136414 200.26742554 Z M-2.10136414 200.26742554 C-0.45136414 205.54742554 1.19863586 210.82742554 2.89863586 216.26742554 C66.25863586 216.26742554 129.61863586 216.26742554 194.89863586 216.26742554 C197.37363586 208.34742554 197.37363586 208.34742554 199.89863586 200.26742554 C133.23863586 200.26742554 66.57863586 200.26742554 -2.10136414 200.26742554 Z M301.89863586 200.26742554 C303.54863586 205.54742554 305.19863586 210.82742554 306.89863586 216.26742554 C314.81863586 216.26742554 322.73863586 216.26742554 330.89863586 216.26742554 C330.89863586 210.98742554 330.89863586 205.70742554 330.89863586 200.26742554 C321.32863586 200.26742554 311.75863586 200.26742554 301.89863586 200.26742554 Z " fill="#000000" transform="translate(157.1013641357422,119.73257446289063)"/>
<path d="M0 0 C5.82485779 3.51996782 10.54466582 8.98962934 12.5625 15.5 C13.36764105 23.33608208 13.68710392 31.11922577 8.5625 37.5 C3.75801361 42.54521222 -0.59927055 46.10562995 -7.70703125 46.8359375 C-16.22326573 46.92983204 -22.11345494 46.6177288 -28.40234375 40.62890625 C-34.7841668 33.72505269 -35.91792252 28.29832071 -35.7421875 18.9453125 C-35.04689797 11.08319245 -31.38995981 6.95041296 -25.53515625 1.9453125 C-18.47077988 -2.92213491 -7.84396301 -3.47595223 0 0 Z M-16.8125 17.125 C-18.92456506 20.21186432 -19.04945145 21.8282913 -18.4375 25.5 C-16.9375 28 -16.9375 28 -14.4375 29.5 C-10.7657913 30.11195145 -9.14936432 29.98706506 -6.0625 27.875 C-3.95043494 24.78813568 -3.82554855 23.1717087 -4.4375 19.5 C-5.9375 17 -5.9375 17 -8.4375 15.5 C-12.1092087 14.88804855 -13.72563568 15.01293494 -16.8125 17.125 Z " fill="#000000" transform="translate(419.4375,321.5)"/>
<path d="M0 0 C5.82485779 3.51996782 10.54466582 8.98962934 12.5625 15.5 C13.36764105 23.33608208 13.68710392 31.11922577 8.5625 37.5 C3.75801361 42.54521222 -0.59927055 46.10562995 -7.70703125 46.8359375 C-16.22326573 46.92983204 -22.11345494 46.6177288 -28.40234375 40.62890625 C-34.7841668 33.72505269 -35.91792252 28.29832071 -35.7421875 18.9453125 C-35.04689797 11.08319245 -31.38995981 6.95041296 -25.53515625 1.9453125 C-18.47077988 -2.92213491 -7.84396301 -3.47595223 0 0 Z M-16.8125 17.125 C-18.92456506 20.21186432 -19.04945145 21.8282913 -18.4375 25.5 C-16.9375 28 -16.9375 28 -14.4375 29.5 C-10.7657913 30.11195145 -9.14936432 29.98706506 -6.0625 27.875 C-3.95043494 24.78813568 -3.82554855 23.1717087 -4.4375 19.5 C-5.9375 17 -5.9375 17 -8.4375 15.5 C-12.1092087 14.88804855 -13.72563568 15.01293494 -16.8125 17.125 Z " fill="#000000" transform="translate(115.4375,321.5)"/>
<path d="M0 0 C1.05026367 -0.0038269 2.10052734 -0.00765381 3.18261719 -0.01159668 C5.40170247 -0.01431696 7.62081974 -0.00694777 9.83984375 0.00976562 C13.23770595 0.03117255 16.63345361 0.00996675 20.03125 -0.015625 C22.18750467 -0.01298175 24.34375802 -0.00785682 26.5 0 C27.51674805 -0.00809692 28.53349609 -0.01619385 29.58105469 -0.02453613 C36.61077417 0.06898232 36.61077417 0.06898232 39.88867188 2.43945312 C41.35641689 4.69476864 41.79171277 5.86163257 41.75 8.53125 C41.7603125 9.19125 41.770625 9.85125 41.78125 10.53125 C40.9489357 13.66466854 39.90683918 14.60990886 37.25 16.53125 C33.67231501 17.14709573 30.12279111 17.09135028 26.5 17.0625 C24.92460449 17.06824036 24.92460449 17.06824036 23.31738281 17.07409668 C21.09829753 17.07681696 18.87918026 17.06944777 16.66015625 17.05273438 C13.26229405 17.03132745 9.86654639 17.05253325 6.46875 17.078125 C4.31249533 17.07548175 2.15624198 17.07035682 0 17.0625 C-1.01674805 17.07059692 -2.03349609 17.07869385 -3.08105469 17.08703613 C-10.11077417 16.99351768 -10.11077417 16.99351768 -13.38867188 14.62304688 C-14.85641689 12.36773136 -15.29171277 11.20086743 -15.25 8.53125 C-15.26546875 7.54125 -15.26546875 7.54125 -15.28125 6.53125 C-13.27705847 -1.01394163 -6.37452488 -0.05076385 0 0 Z " fill="#000000" transform="translate(262.75,231.46875)"/>
</svg>
