<?xml version="1.0" standalone="no"?>
<!DOCTYPE svg PUBLIC "-//W3C//DTD SVG 20010904//EN"
 "http://www.w3.org/TR/2001/REC-SVG-20010904/DTD/svg10.dtd">
<svg version="1.0" xmlns="http://www.w3.org/2000/svg"
 width="512.000000pt" height="512.000000pt" viewBox="0 0 512.000000 512.000000"
 preserveAspectRatio="xMidYMid meet">

<g transform="translate(0.000000,512.000000) scale(0.100000,-0.100000)"
fill="#000000" stroke="none">
<path d="M266 5024 c-34 -11 -64 -31 -102 -68 -89 -90 -84 -21 -84 -1117 0
-1094 -5 -1024 85 -1114 90 -91 19 -86 1135 -83 l975 3 50 27 c59 31 94 67
126 128 l24 45 3 975 c3 1116 8 1045 -83 1135 -90 90 -19 85 -1119 84 -824 0
-968 -3 -1010 -15z m2016 -182 l33 -32 0 -970 0 -970 -33 -32 -32 -33 -970 0
-970 0 -32 33 -33 32 0 969 0 969 25 27 c14 15 34 31 45 36 11 4 451 7 977 6
l958 -2 32 -33z"/>
<path d="M1165 4713 c-60 -8 -181 -42 -239 -68 -482 -213 -670 -804 -400
-1257 65 -108 194 -237 302 -302 346 -206 789 -151 1073 133 112 112 191 253
235 417 27 103 26 312 -3 419 -92 340 -362 591 -698 650 -81 14 -198 17 -270
8z m247 -167 c102 -20 175 -49 260 -105 101 -66 196 -172 247 -274 61 -124 76
-190 75 -337 -1 -107 -5 -137 -27 -205 -38 -115 -90 -198 -182 -290 -92 -92
-175 -144 -290 -182 -68 -22 -98 -26 -205 -27 -147 -1 -213 14 -337 75 -145
72 -287 228 -343 377 -77 204 -59 439 47 622 47 80 178 213 256 259 152 89
328 120 499 87z"/>
<path d="M1225 4215 c-14 -13 -25 -31 -25 -40 0 -12 -12 -15 -55 -15 -46 0
-60 -4 -80 -25 -24 -23 -25 -28 -25 -175 0 -147 1 -152 25 -175 23 -24 29 -25
160 -25 l135 0 0 -40 0 -40 -135 0 c-131 0 -137 -1 -160 -25 -33 -32 -33 -78
0 -110 19 -20 34 -25 77 -25 50 0 54 -2 68 -33 18 -38 58 -55 98 -41 15 5 33
23 42 41 14 31 18 33 68 33 43 0 58 5 77 25 24 23 25 28 25 175 0 147 -1 152
-25 175 -23 24 -29 25 -160 25 l-135 0 0 40 0 40 135 0 c131 0 137 1 160 25
16 15 25 36 25 55 0 51 -38 80 -105 80 -43 0 -55 3 -55 15 0 27 -47 65 -80 65
-19 0 -40 -9 -55 -25z"/>
<path d="M2826 5024 c-34 -11 -64 -31 -102 -68 -89 -90 -84 -21 -84 -1117 0
-1094 -5 -1024 85 -1114 90 -91 19 -86 1135 -83 l975 3 50 27 c59 31 94 67
126 128 l24 45 3 975 c3 1116 8 1045 -83 1135 -90 90 -19 85 -1119 84 -824 0
-968 -3 -1010 -15z m2016 -182 l33 -32 0 -970 0 -970 -33 -32 -32 -33 -970 0
-970 0 -32 33 -33 32 0 969 0 969 25 27 c14 15 34 31 45 36 11 4 451 7 977 6
l958 -2 32 -33z"/>
<path d="M266 2464 c-34 -11 -64 -31 -102 -68 -89 -90 -84 -21 -84 -1117 0
-1094 -5 -1024 85 -1114 90 -91 19 -86 1135 -83 l975 3 50 27 c59 31 94 67
126 128 l24 45 3 975 c3 1116 8 1045 -83 1135 -90 90 -19 85 -1119 84 -824 0
-968 -3 -1010 -15z m2016 -182 l33 -32 0 -970 0 -970 -33 -32 -32 -33 -970 0
-970 0 -32 33 -33 32 0 969 0 969 25 27 c14 15 34 31 45 36 11 4 451 7 977 6
l958 -2 32 -33z"/>
<path d="M2826 2464 c-34 -11 -64 -31 -102 -68 -89 -90 -84 -21 -84 -1116 0
-1094 -5 -1026 83 -1114 92 -92 19 -87 1137 -84 l975 3 50 27 c59 31 94 67
126 128 l24 45 3 975 c3 1118 8 1045 -84 1137 -88 88 -19 83 -1118 82 -824 0
-968 -3 -1010 -15z m2016 -182 l33 -32 0 -970 0 -970 -33 -32 -32 -33 -970 0
-970 0 -32 33 -33 32 0 969 0 969 25 27 c14 15 34 31 45 36 11 4 451 7 977 6
l958 -2 32 -33z"/>
<path d="M3706 1984 c-34 -11 -64 -31 -102 -68 -63 -64 -84 -122 -84 -238 l0
-78 -95 0 c-88 0 -98 -2 -120 -25 -14 -13 -25 -32 -25 -42 0 -10 -18 -232 -40
-493 -22 -261 -40 -483 -40 -493 0 -10 11 -29 25 -42 l24 -25 591 0 591 0 24
25 c14 13 25 32 25 42 0 10 -18 232 -40 493 -22 261 -40 483 -40 493 0 10 -11
29 -25 42 -22 23 -32 25 -120 25 l-95 0 0 79 c0 112 -22 174 -85 236 -35 36
-66 56 -104 68 -66 21 -197 21 -265 1z m256 -182 c31 -31 33 -37 37 -117 l3
-85 -162 0 -162 0 3 84 c4 73 7 88 29 111 36 39 56 45 142 42 73 -2 80 -4 110
-35z m-442 -417 c0 -67 29 -105 80 -105 51 0 80 38 80 105 l0 55 160 0 160 0
0 -55 c0 -67 29 -105 80 -105 51 0 80 38 80 105 l0 55 45 0 c40 0 45 -3 45
-22 0 -13 14 -183 30 -378 16 -195 30 -365 30 -377 l0 -23 -470 0 -470 0 0 23
c0 12 14 182 30 377 16 195 30 365 30 378 0 19 5 22 45 22 l45 0 0 -55z"/>
</g>
</svg>
