<?xml version="1.0" encoding="UTF-8"?>
<svg version="1.1" xmlns="http://www.w3.org/2000/svg" width="512" height="512">
<path d="M0 0 C1.84790182 -0.00967334 1.84790182 -0.00967334 3.73313498 -0.0195421 C5.09204 -0.01660011 6.45094461 -0.0134647 7.80984879 -0.01015663 C9.25983232 -0.01389444 10.70981385 -0.01849649 12.15979218 -0.02388728 C16.14030709 -0.03611666 20.12073794 -0.03585688 24.10126734 -0.03349853 C28.39588496 -0.03309034 32.69047565 -0.0441297 36.98508072 -0.05361366 C45.3978004 -0.07022453 53.81049205 -0.07572326 62.22322676 -0.07683842 C69.06224734 -0.07778889 75.90125868 -0.08189917 82.74027634 -0.08823967 C102.13298551 -0.10585267 121.52567254 -0.1150785 140.91838977 -0.11357872 C142.48649395 -0.11345885 142.48649395 -0.11345885 144.08627701 -0.11333656 C145.65629744 -0.11321392 145.65629744 -0.11321392 147.25803545 -0.1130888 C164.21910194 -0.11227599 181.18007961 -0.13141238 198.1411204 -0.1596133 C215.55937612 -0.18834572 232.97758852 -0.20215338 250.39586854 -0.20042574 C260.1737698 -0.19976194 269.95157795 -0.20524979 279.72945786 -0.22678185 C288.05506777 -0.24499839 296.38054239 -0.24933712 304.70616361 -0.235763 C308.95249765 -0.22923561 313.19857214 -0.22910775 317.44488144 -0.2464695 C321.33614664 -0.26221567 325.22694684 -0.25932112 329.11820081 -0.24190123 C330.52196069 -0.2388347 331.9257554 -0.24245069 333.32947418 -0.25362138 C344.06396924 -0.33335237 353.17678035 1.00371151 361.2610817 8.55414391 C367.35093203 15.32754887 370.05138181 22.42798533 370.01938248 31.54779625 C370.01967453 32.25092949 370.01996658 32.95406273 370.02026749 33.67850304 C370.01888331 35.98353332 370.00336567 38.28823316 369.9876442 40.59320641 C369.98391081 42.19888698 369.98106538 43.80456985 369.97906876 45.41025352 C369.97145791 49.6221408 369.95183149 53.83388861 369.9296608 58.04572105 C369.9091473 62.34929074 369.9000553 66.6528831 369.88998795 70.95648766 C369.86858303 79.39014517 369.83447809 87.82368966 369.7923317 96.25726891 C370.80432632 96.22584801 370.80432632 96.22584801 371.83676529 96.19379234 C374.94679736 96.10972304 378.05658929 96.05832447 381.1673317 96.00726891 C382.22823013 95.97375328 383.28912857 95.94023766 384.38217545 95.90570641 C394.00285384 95.78766127 402.10004235 97.86600338 409.2610817 104.55414391 C415.94337866 111.98649461 418.09558699 119.61262547 418.05975723 129.42214012 C418.06428835 130.33563231 418.06881946 131.24912449 418.07348788 132.19029826 C418.08613164 135.2462835 418.08451151 138.30209051 418.08285904 141.35809898 C418.0888443 143.55125215 418.09564984 145.74440321 418.10321426 147.9375515 C418.12088166 153.89216731 418.12556996 159.84672565 418.12684584 165.80136514 C418.12826757 169.52253457 418.13253758 173.24368939 418.13784027 176.96485519 C418.15538817 189.27942793 418.16468022 201.59396994 418.16317932 213.90855471 C418.16309941 214.57188479 418.1630195 215.23521487 418.16293716 215.91864586 C418.1628554 216.58278976 418.16277364 217.24693367 418.1626894 217.93120315 C418.16187671 228.69156834 418.18101178 239.45179349 418.2092139 250.21211819 C418.23797091 261.27179423 418.25138672 272.33139865 418.25002635 283.39111251 C418.24951665 289.5958732 418.25520436 295.80047538 418.27638245 302.00520325 C418.29576067 307.84194734 418.29589186 313.67838163 418.28134918 319.51513672 C418.2792595 321.65445471 418.28397143 323.79379206 418.2960701 325.93307686 C418.3115457 328.85956266 418.30219881 331.78498329 418.28680801 334.71144676 C418.3022387 335.97334295 418.3022387 335.97334295 418.31798112 337.260732 C418.21121039 346.48372564 414.11726747 354.61318499 407.7923317 361.25726891 C399.7197495 367.61846368 392.03575187 368.55251354 382.01227188 368.52469444 C380.22021952 368.53149111 380.22021952 368.53149111 378.39196408 368.53842509 C375.0839109 368.54888483 371.77607537 368.55039677 368.46802115 368.54803634 C364.8974488 368.54762774 361.32690873 368.55867107 357.75635147 368.56815147 C350.76538894 368.58475061 343.77446014 368.59026045 336.78347956 368.59137623 C331.1028736 368.59232682 325.42227877 368.59643765 319.74167633 368.60277748 C303.63882393 368.62038367 287.53599818 368.62961684 271.43313609 368.62811653 C270.131497 368.62799666 270.131497 368.62799666 268.80356216 368.62787437 C267.9347449 368.62779261 267.06592764 368.62771085 266.17078258 368.62762661 C252.07679277 368.62681295 237.98290963 368.64597234 223.88895069 368.67415111 C209.42005502 368.70285165 194.95121144 368.7166931 180.48228657 368.71496356 C172.35783513 368.71429888 164.23349566 368.71982574 156.10906982 368.74131966 C149.19522312 368.75949384 142.28153918 368.76390962 135.36767898 368.75030081 C131.83901344 368.74375317 128.31066053 368.74371819 124.78202438 368.76100731 C120.96067801 368.77953865 117.13979257 368.76723115 113.31842422 368.75174522 C112.19801141 368.76203235 111.07759859 368.77231948 109.92323387 368.78291833 C108.90181836 368.77372074 107.88040285 368.76452315 106.82803535 368.75504684 C105.94577998 368.75548158 105.06352461 368.75591632 104.15453422 368.75636423 C100.98044563 368.08573047 99.77800143 366.77389368 97.7923317 364.25726891 C97.27475357 360.92914391 97.27475357 360.92914391 97.2610817 357.00726891 C97.25725479 356.31214195 97.25342789 355.617015 97.24948502 354.90082359 C97.2467699 353.4349885 97.25410334 351.96910463 97.27084732 350.50336266 C97.29226751 348.26397916 97.27103727 346.02780304 97.2454567 343.78851891 C97.24810005 342.36142852 97.2532252 340.93434012 97.2610817 339.50726891 C97.26559341 338.21305016 97.27010513 336.91883141 97.27475357 335.58539391 C97.7923317 332.25726891 97.7923317 332.25726891 99.40463638 329.84222984 C102.56831469 327.74216854 104.74299347 327.71427484 108.5267067 327.64789391 C109.82221451 327.61566734 111.11772232 327.58344078 112.45248795 327.55023766 C113.81576471 327.53549422 115.17904615 327.52117668 116.5423317 327.50726891 C117.92127545 327.47910077 119.30018444 327.44917213 120.67905045 327.41742516 C124.04982519 327.3467096 127.42108262 327.29972796 130.7923317 327.25726891 C132.1123317 322.30726891 133.4323317 317.35726891 134.7923317 312.25726891 C112.0223317 312.25726891 89.2523317 312.25726891 65.7923317 312.25726891 C65.7923317 322.81726891 65.7923317 333.37726891 65.7923317 344.25726891 C60.80477017 355.47928235 56.75833661 362.58266441 45.24295425 367.30209923 C40.89867808 368.5046419 36.9426014 368.55252119 32.45737076 368.54779625 C31.53621475 368.55451347 30.61505875 368.5612307 29.66598892 368.56815147 C26.62992282 368.58710123 23.59407821 368.59105437 20.5579567 368.59320641 C18.43814377 368.59963716 16.31833174 368.60636573 14.19852066 368.61337852 C9.75678832 368.62534427 5.3151337 368.62906014 0.87338638 368.62787437 C-4.80017951 368.6276714 -10.47324331 368.65495491 -16.14669037 368.68941879 C-20.52550135 368.71172937 -24.90419237 368.71571061 -29.28305435 368.71465492 C-31.37370405 368.71700533 -33.46435733 368.72579706 -35.55495071 368.74131966 C-38.48869408 368.76106063 -41.42136619 368.75510941 -44.35512924 368.74310875 C-45.20742111 368.75434776 -46.05971298 368.76558678 -46.93783188 368.77716637 C-55.54888488 368.68829473 -63.33472936 365.88329207 -69.6764183 359.96039391 C-75.35538721 353.64398972 -78.44762642 346.68689392 -78.47509384 338.13623619 C-78.48362381 336.93080162 -78.49215378 335.72536705 -78.50094223 334.48340416 C-78.50003586 333.17417992 -78.49912949 331.86495567 -78.49819565 330.51605797 C-78.50418511 329.11269334 -78.51099162 327.70933201 -78.51855087 326.30597496 C-78.53617789 322.50410946 -78.54090492 318.70233405 -78.54218245 314.90043163 C-78.54360674 312.52133886 -78.54788164 310.1422688 -78.55317688 307.76318169 C-78.57166786 299.45227677 -78.57984886 291.1414359 -78.57827377 282.83051109 C-78.57707336 275.10175348 -78.59815823 267.37327558 -78.6297611 259.64458871 C-78.65597706 252.99467167 -78.66663881 246.34484566 -78.66536295 239.69487739 C-78.66485478 235.72961506 -78.67045701 231.76460132 -78.69171906 227.79939079 C-78.71119094 224.06623644 -78.71116558 220.33356546 -78.69668579 216.6003933 C-78.69362289 214.5913208 -78.71021222 212.58224779 -78.72756577 210.57324791 C-78.6588144 200.60174181 -76.87342646 192.24345946 -69.9107933 184.78851891 C-61.3746309 177.11380408 -52.98805868 175.9614561 -41.8326683 176.13226891 C-40.15624252 176.14580406 -40.15624252 176.14580406 -38.44594955 176.15961266 C-35.69963369 176.18308544 -32.95376358 176.21592163 -30.2076683 176.25726891 C-30.21135548 175.48311953 -30.21504265 174.70897015 -30.21884155 173.91136169 C-30.30729775 155.04773958 -30.37342901 136.18415903 -30.41491699 117.32037354 C-30.43551515 108.197863 -30.46358305 99.07549117 -30.50942612 89.95306969 C-30.54937819 81.99909983 -30.57512107 74.04523046 -30.58402228 66.09116304 C-30.58922291 61.88209867 -30.60138851 57.67332172 -30.63058853 53.46434975 C-30.65789021 49.49658196 -30.66608379 45.52921793 -30.66009903 41.56136513 C-30.66119271 40.11101647 -30.66905858 38.66065325 -30.6844902 37.21038628 C-30.79507732 26.27403257 -29.61274382 17.03505178 -21.9107933 8.78851891 C-15.56040489 3.07899537 -8.59384186 0.01140496 0 0 Z M-10.1451683 22.00726891 C-15.02058516 29.68974395 -14.48400808 37.43295405 -14.43471909 46.27069664 C-14.43415433 47.69043024 -14.4344728 49.11016443 -14.4356041 50.52989769 C-14.43617608 54.36825542 -14.42444684 58.20648722 -14.41045618 62.04481578 C-14.39792304 66.06200246 -14.39677629 70.07919228 -14.39440536 74.09639549 C-14.38819817 81.69645668 -14.37179768 89.29646009 -14.35170639 96.89649588 C-14.32932367 105.55186629 -14.31834799 114.20723951 -14.30831552 122.86263168 C-14.28743076 140.6608768 -14.25226962 158.4590682 -14.2076683 176.25726891 C-13.52830215 176.26091454 -12.848936 176.26456017 -12.148983 176.26831627 C-5.04271537 176.31030593 2.06291629 176.3797668 9.16879654 176.46478844 C11.81651812 176.49291785 14.46432242 176.51417206 17.11215591 176.528265 C20.93045534 176.54980486 24.7477685 176.59651537 28.5657692 176.64789391 C29.73908798 176.64912254 30.91240677 176.65035118 32.12128067 176.65161705 C42.12094176 176.82760634 50.66431368 178.96348303 57.7923317 186.25726891 C72.76346724 206.39949305 65.33798628 230.81392558 65.7923317 256.25726891 C113.3123317 256.25726891 160.8323317 256.25726891 209.7923317 256.25726891 C209.96278552 211.94996005 209.96278552 211.94996005 210.09018326 167.64252281 C210.13559341 159.05487633 210.13559341 159.05487633 210.16189957 155.02908897 C210.17884068 152.22947374 210.18476616 149.43007263 210.18387222 146.63040733 C210.18309645 143.04955038 210.20155247 139.46925861 210.23342085 135.88854861 C210.24584774 133.96741596 210.23900454 132.04618754 210.2312088 130.12503052 C210.35271413 120.02731283 212.42292716 111.45918697 219.7923317 104.25726891 C228.06324359 98.10973812 235.3530017 96.95831725 245.48910904 96.93842125 C246.66041367 96.92837563 247.83171829 96.91833 249.038517 96.90797997 C252.90176284 96.87714241 256.76493935 96.86011091 260.6282692 96.84320641 C263.31013369 96.82449523 265.99198165 96.80501786 268.67383194 96.7845211 C275.00597351 96.73780457 281.33813194 96.7010261 287.67035735 96.66784823 C294.88202256 96.62957635 302.09359827 96.58017953 309.30518794 96.52986407 C324.13416662 96.4266503 338.96320964 96.33735569 353.7923317 96.25726891 C353.86211118 88.06817448 353.91528381 79.87920611 353.94776821 71.68988705 C353.96336599 67.88647519 353.98449518 64.08326806 354.01865005 60.27997398 C354.05145554 56.60356661 354.06922889 52.92735508 354.07696342 49.25081253 C354.0824692 47.8543032 354.09321984 46.45780351 354.10952187 45.06137848 C354.49360254 32.67656294 354.49360254 32.67656294 349.51710892 21.68282127 C342.39605738 15.10123999 333.29740485 15.96989196 324.25525284 15.99657249 C322.86969067 15.99354984 321.48413017 15.98965979 320.09857261 15.98497993 C316.3008059 15.97470578 312.50313366 15.97688025 308.70535922 15.98116052 C304.60573864 15.98362881 300.50614074 15.9746123 296.40652847 15.96712303 C288.37862448 15.95437682 280.35075394 15.95258225 272.32284154 15.95492329 C265.7970517 15.95670672 259.27127202 15.9549563 252.7454834 15.95069885 C251.81650896 15.95010366 250.88753452 15.94950847 249.93040933 15.94889525 C248.04315965 15.94768349 246.15590997 15.94646936 244.26866029 15.94525287 C226.57180507 15.93437762 208.87496891 15.93653975 191.17811261 15.94263772 C174.99243145 15.94780675 158.80681047 15.93655176 142.62114121 15.9175395 C125.99725802 15.89816236 109.3734033 15.88990489 92.74950874 15.89366275 C83.41824416 15.895575 74.08703081 15.89308495 64.75577545 15.87894821 C56.81189038 15.86703502 48.86808807 15.86562883 40.92420186 15.87773838 C36.8724513 15.88362752 32.82085212 15.88472556 28.76911163 15.87273598 C25.05687469 15.86187883 21.34491555 15.86497838 17.63269161 15.87899766 C15.66032061 15.88289507 13.68793729 15.8720961 11.71559536 15.86070079 C-0.28453535 15.90672884 -0.28453535 15.90672884 -10.1451683 22.00726891 Z M229.8548317 118.00726891 C225.99786123 124.08491933 225.49791674 129.95105707 225.53163528 136.93497276 C225.52780974 137.78398254 225.52398419 138.63299231 225.52004272 139.50772965 C225.50976201 142.33950838 225.51369548 145.17108249 225.51767349 148.00287437 C225.51332428 150.03854115 225.50814044 152.07420629 225.50218582 154.109869 C225.48880687 159.63056235 225.48821595 165.1511872 225.49074912 170.6718936 C225.49181961 175.28417133 225.48693345 179.89643525 225.4821437 184.50871003 C225.47105226 195.39186649 225.47060903 206.27498843 225.47665787 217.15814781 C225.48269776 228.37746709 225.47038536 239.59666097 225.4490878 250.81595886 C225.4314623 260.45608407 225.42547196 270.0961694 225.42872554 279.73631012 C225.43053707 285.49054253 225.42791515 291.24468549 225.414011 296.99890327 C225.40142197 302.41128598 225.40338706 307.82347344 225.41642189 313.2358532 C225.41878489 315.21875004 225.41606293 317.20166067 225.40779877 319.1845417 C225.39730614 321.89845207 225.40545209 324.61171033 225.41810989 327.32559776 C225.41073561 328.1039246 225.40336132 328.88225143 225.39576358 329.68416393 C225.45350419 335.59839572 226.2677869 342.09357355 230.06723708 346.85494792 C237.32857845 353.45038758 246.49455517 352.54930311 255.66293716 352.53192711 C257.06807093 352.53627932 258.47320232 352.54146416 259.87833023 352.54741478 C263.68007859 352.56076189 267.48172727 352.56138821 271.28349447 352.55885148 C274.46422561 352.55777876 277.64493683 352.56267285 280.82566369 352.5674569 C288.33361127 352.57853745 295.84150881 352.5789978 303.3494606 352.57294273 C311.07878126 352.56690469 318.8079198 352.57921293 326.53720939 352.6005128 C333.18797869 352.61816244 339.8386902 352.62412484 346.48948205 352.62087506 C350.45520682 352.61906727 354.42080169 352.62164765 358.38650513 352.6355896 C362.11796844 352.64821809 365.84914911 352.64617681 369.58060837 352.63317871 C371.59104025 352.6297075 373.60148096 352.64095404 375.61188126 352.6527462 C386.64340551 352.65588554 386.64340551 352.65588554 396.36970711 347.98235607 C401.73191225 342.16691823 402.08910487 335.05192422 402.05302811 327.57956505 C402.05685365 326.73055528 402.0606792 325.8815455 402.06462067 325.00680816 C402.07490138 322.17502943 402.07096791 319.34345533 402.0669899 316.51166344 C402.07133911 314.47599666 402.07652295 312.44033152 402.08247757 310.40466881 C402.09585652 304.88397546 402.09644744 299.36335062 402.09391427 293.84264421 C402.09284378 289.23036648 402.09772995 284.61810256 402.10251969 280.00582778 C402.11361113 269.12267132 402.11405436 258.23954938 402.10800552 247.35639 C402.10196563 236.13707072 402.11427803 224.91787684 402.13557559 213.69857895 C402.15320109 204.05845374 402.15919143 194.41836841 402.15593785 184.77822769 C402.15412632 179.02399528 402.15674824 173.26985233 402.17065239 167.51563454 C402.18324142 162.10325183 402.18127633 156.69106438 402.1682415 151.27868462 C402.1658785 149.29578777 402.16860046 147.31287714 402.17686462 145.32999611 C402.18735725 142.61608574 402.1792113 139.90282749 402.1665535 137.18894005 C402.17392778 136.41061321 402.18130207 135.63228638 402.18889982 134.83037388 C402.1311592 128.91614209 401.31687649 122.42096426 397.51742631 117.65958989 C390.25608494 111.06415024 381.09010822 111.9652347 371.92172623 111.9826107 C370.51659246 111.97825849 369.11146107 111.97307365 367.70633316 111.96712303 C363.9045848 111.95377592 360.10293613 111.95314961 356.30116892 111.95568633 C353.12043778 111.95675905 349.93972656 111.95186496 346.75899971 111.94708091 C339.25105213 111.93600036 331.74315458 111.93554001 324.23520279 111.94159508 C316.50588213 111.94763312 308.77674359 111.93532488 301.047454 111.91402501 C294.3966847 111.89637537 287.74597319 111.89041297 281.09518135 111.89366275 C277.12945657 111.89547054 273.1638617 111.89289016 269.19815826 111.87894821 C265.46669496 111.86631972 261.73551428 111.86836101 258.00405502 111.8813591 C255.99362314 111.88483032 253.98318243 111.87358377 251.97278214 111.86179161 C239.83720157 111.87122218 239.83720157 111.87122218 229.8548317 118.00726891 Z M-56.8092308 196.54633141 C-63.0947812 203.42000347 -62.50097825 211.94398327 -62.48232651 220.65912437 C-62.48743744 221.89414696 -62.49254837 223.12916954 -62.49781418 224.40161705 C-62.50929918 227.77368154 -62.51178909 231.1454995 -62.50925088 234.5175662 C-62.50817725 237.34041108 -62.51307458 240.16323356 -62.5178563 242.98607361 C-62.52893241 249.65021972 -62.52939975 256.31430946 -62.52334213 262.97846031 C-62.51730484 269.83528484 -62.52961138 276.69190403 -62.5509122 283.54869354 C-62.56857171 289.45212443 -62.57452268 295.35549023 -62.57127446 301.25894654 C-62.5694682 304.77754691 -62.57203154 308.29600084 -62.585989 311.8145771 C-62.60098677 315.74200702 -62.59155924 319.66917877 -62.57998276 323.59662437 C-62.5876265 324.75016411 -62.59527023 325.90370384 -62.6031456 327.09219933 C-62.55885407 333.90718048 -62.40526715 341.28667637 -57.93275547 346.84038162 C-52.33759932 351.9777108 -45.47656873 352.5573199 -38.21206284 352.53192711 C-37.44521164 352.53703804 -36.67836044 352.54214897 -35.88827133 352.54741478 C-33.37226008 352.56122882 -30.8565253 352.56036013 -28.3404808 352.55805016 C-26.57842534 352.56194177 -24.81637081 352.5662774 -23.05431747 352.57103539 C-19.36761047 352.57848014 -15.68099925 352.57821914 -11.9942894 352.57294273 C-7.28813313 352.56715248 -2.58237099 352.58407682 2.12372017 352.60728741 C5.76131833 352.62207585 9.39882271 352.62288948 13.03644562 352.61977768 C14.77065308 352.62028839 16.50486613 352.62547879 18.23904419 352.6355896 C32.05594848 353.24234833 32.05594848 353.24234833 44.35406876 347.98232079 C50.7072871 341.17059007 50.08559476 332.54865056 50.0669899 323.85541344 C50.0746563 322.00287956 50.0746563 322.00287956 50.08247757 320.11292076 C50.09396257 316.74085627 50.09645248 313.36903832 50.09391427 309.99697161 C50.09284064 307.17412673 50.09773797 304.35130425 50.10251969 301.5284642 C50.1135958 294.86431809 50.11406314 288.20022835 50.10800552 281.5360775 C50.10196823 274.67925297 50.11427477 267.82263378 50.13557559 260.96584427 C50.1532351 255.06241338 50.15918607 249.15904758 50.15593785 243.25559127 C50.15413159 239.7369909 50.15669493 236.21853698 50.17065239 232.69996071 C50.18565016 228.77253079 50.17622263 224.84535904 50.16464615 220.91791344 C50.17228989 219.7643737 50.17993362 218.61083397 50.18780899 217.42233849 C50.14351746 210.60735734 49.98993054 203.22786145 45.51741886 197.67415619 C40.52383778 193.08917785 35.09212106 192.15538556 28.5579567 192.21430016 C27.66366959 192.22050377 26.76938248 192.22670738 25.84799576 192.23309898 C25.16962662 192.24107506 24.49125748 192.24905113 23.7923317 192.25726891 C23.59599136 192.84741783 23.39965103 193.43756676 23.19736099 194.04559898 C22.30068872 196.72349504 21.39043799 199.39658062 20.4798317 202.06976891 C20.17110123 202.99853844 19.86237076 203.92730797 19.54428482 204.88422203 C19.23813248 205.77689781 18.93198013 206.66957359 18.61655045 207.58930016 C18.33899918 208.41148033 18.06144791 209.23366051 17.77548599 210.08075523 C16.70700204 212.44617228 15.78786046 213.61452425 13.7923317 215.25726891 C10.74370645 215.55574884 7.90373074 215.67748735 4.8548317 215.65570641 C3.97834976 215.65857658 3.10186783 215.66144676 2.19882584 215.66440392 C0.34619882 215.66644489 -1.50644973 215.66091268 -3.35903549 215.64838219 C-6.19709009 215.63232874 -9.03372057 215.64822946 -11.8717308 215.66742516 C-13.67121312 215.66544273 -15.47069455 215.66159907 -17.2701683 215.65570641 C-18.12022446 215.6617791 -18.97028061 215.66785179 -19.84609604 215.67410851 C-25.7876054 215.60307004 -25.7876054 215.60307004 -27.8940239 213.86903954 C-29.52090744 211.87294143 -30.20883163 210.02740773 -31.03188705 207.58930016 C-31.3380394 206.69662437 -31.64419174 205.80394859 -31.95962143 204.88422203 C-32.2683519 203.9554525 -32.57708237 203.02668297 -32.8951683 202.06976891 C-33.21550034 201.12939781 -33.53583237 200.18902672 -33.86587143 199.22015953 C-34.65436922 196.90174065 -35.43461379 194.58087348 -36.2076683 192.25726891 C-37.77394919 192.22657609 -39.34040859 192.20493075 -40.90688705 192.18695641 C-42.21532578 192.16737877 -42.21532578 192.16737877 -43.5501976 192.14740562 C-48.401618 192.34796963 -52.97652598 193.46147142 -56.8092308 196.54633141 Z M-18.2076683 192.25726891 C-17.5476683 194.89726891 -16.8876683 197.53726891 -16.2076683 200.25726891 C-9.6076683 200.25726891 -3.0076683 200.25726891 3.7923317 200.25726891 C4.4523317 197.61726891 5.1123317 194.97726891 5.7923317 192.25726891 C-2.1276683 192.25726891 -10.0476683 192.25726891 -18.2076683 192.25726891 Z M65.7923317 272.25726891 C65.7923317 280.17726891 65.7923317 288.09726891 65.7923317 296.25726891 C113.3123317 296.25726891 160.8323317 296.25726891 209.7923317 296.25726891 C209.7923317 288.33726891 209.7923317 280.41726891 209.7923317 272.25726891 C162.2723317 272.25726891 114.7523317 272.25726891 65.7923317 272.25726891 Z M152.7923317 312.25726891 C149.6432605 320.81005531 149.6432605 320.81005531 148.7923317 328.25726891 C162.6523317 328.25726891 176.5123317 328.25726891 190.7923317 328.25726891 C189.32382277 318.1043328 189.32382277 318.1043328 186.7923317 312.25726891 C175.5723317 312.25726891 164.3523317 312.25726891 152.7923317 312.25726891 Z M204.7923317 312.25726891 C205.07718016 313.98757181 205.37053107 315.71647605 205.6673317 317.44476891 C205.82975357 318.40769859 205.99217545 319.37062828 206.1595192 320.36273766 C206.77272686 323.16759494 207.64899513 325.62951638 208.7923317 328.25726891 C209.1223317 328.25726891 209.4523317 328.25726891 209.7923317 328.25726891 C209.7923317 322.97726891 209.7923317 317.69726891 209.7923317 312.25726891 C208.1423317 312.25726891 206.4923317 312.25726891 204.7923317 312.25726891 Z M113.7923317 344.25726891 C113.7923317 346.89726891 113.7923317 349.53726891 113.7923317 352.25726891 C146.4623317 352.25726891 179.1323317 352.25726891 212.7923317 352.25726891 C211.8023317 348.29726891 211.8023317 348.29726891 210.7923317 344.25726891 C178.7823317 344.25726891 146.7723317 344.25726891 113.7923317 344.25726891 Z " fill="#000000" transform="translate(86.20766830444336,71.74273109436035)"/>
<path d="M0 0 C1.27866943 -0.0112793 2.55733887 -0.02255859 3.87475586 -0.03417969 C5.28955305 -0.02640266 6.704348 -0.01821 8.11914062 -0.00964355 C9.61076542 -0.01506435 11.10238485 -0.02218677 12.59399414 -0.03088379 C16.6436169 -0.04912547 20.69283223 -0.04204633 24.74246216 -0.02936745 C28.97936099 -0.01924407 33.21622481 -0.02863128 37.453125 -0.03491211 C44.56842312 -0.04219046 51.68355521 -0.03259594 58.79882812 -0.0135498 C67.02641862 0.00821938 75.25361265 0.00116814 83.48119354 -0.02085543 C90.54373317 -0.03900413 97.6061534 -0.04157037 104.6687088 -0.03110075 C108.88752237 -0.02486287 113.10614956 -0.02403817 117.32495117 -0.0372467 C121.29119435 -0.04879699 125.25692611 -0.04079505 129.22311401 -0.01766968 C130.6791804 -0.01237811 132.1352898 -0.01390409 133.59133911 -0.02272034 C135.57780425 -0.03363977 137.56436338 -0.01752243 139.55078125 0 C141.21880798 0.00226215 141.21880798 0.00226215 142.92053223 0.00457001 C145.77539062 0.50793457 145.77539062 0.50793457 148.1326828 2.05573273 C150.37551079 5.40378212 150.33076631 8.35558099 150.2833252 12.25109863 C150.28956516 13.03573612 150.29580512 13.82037361 150.30223417 14.62878799 C150.31820218 17.26068327 150.30554543 19.89165726 150.29296875 22.52355957 C150.29838819 24.40926657 150.30550984 26.29496934 150.31420898 28.18066406 C150.33246645 33.30460461 150.32536477 38.42822352 150.31269264 43.5521698 C150.30257755 48.91015501 150.31195417 54.26811236 150.3182373 59.62609863 C150.32551805 68.62452142 150.31591477 77.62281295 150.296875 86.62121582 C150.27510548 97.03004092 150.28215655 107.43855264 150.30418062 117.84737015 C150.32232242 126.77825227 150.32489891 135.70903995 150.31442595 144.63993454 C150.30818431 149.97656136 150.30737381 155.3130408 150.3205719 160.6496582 C150.332112 165.66645504 150.3241383 170.68284718 150.30099487 175.69960022 C150.29569794 177.54268216 150.29723833 179.38579807 150.30604553 181.22886658 C150.31694598 183.74129704 150.30330506 186.25242357 150.2833252 188.76477051 C150.29224808 189.49745274 150.30117097 190.23013496 150.31036425 190.98501968 C150.25987893 194.24863346 149.9652393 196.22453221 148.1326828 198.96013641 C145.08754729 200.95957254 143.18544115 201.01093987 139.55078125 201.01586914 C138.27211182 201.02714844 136.99344238 201.03842773 135.67602539 201.05004883 C134.2612282 201.0422718 132.84643325 201.03407914 131.43164062 201.0255127 C129.94001583 201.03093349 128.4483964 201.03805591 126.95678711 201.04675293 C122.90716435 201.06499461 118.85794902 201.05791547 114.80831909 201.04523659 C110.57142026 201.03511321 106.33455644 201.04450042 102.09765625 201.05078125 C94.98235813 201.0580596 87.86722604 201.04846509 80.75195312 201.02941895 C72.52436263 201.00764976 64.2971686 201.014701 56.06958771 201.03672457 C49.00704808 201.05487327 41.94462785 201.05743951 34.88207245 201.04696989 C30.66325888 201.04073201 26.44463169 201.03990731 22.22583008 201.05311584 C18.2595869 201.06466613 14.29385514 201.05666419 10.32766724 201.03353882 C8.87160085 201.02824725 7.41549145 201.02977323 5.95944214 201.03858948 C3.972977 201.04950891 1.98641787 201.03339157 0 201.01586914 C-1.11201782 201.01436104 -2.22403564 201.01285294 -3.36975098 201.01129913 C-6.22460938 200.50793457 -6.22460938 200.50793457 -8.58190155 198.96013641 C-10.82472954 195.61208702 -10.77998506 192.66028815 -10.73254395 188.76477051 C-10.73878391 187.98013302 -10.74502387 187.19549553 -10.75145292 186.38708115 C-10.76742093 183.75518587 -10.75476418 181.12421188 -10.7421875 178.49230957 C-10.74760694 176.60660257 -10.75472859 174.7208998 -10.76342773 172.83520508 C-10.7816852 167.71126453 -10.77458352 162.58764562 -10.76191139 157.46369934 C-10.7517963 152.10571413 -10.76117292 146.74775678 -10.76745605 141.38977051 C-10.7747368 132.39134772 -10.76513352 123.39305619 -10.74609375 114.39465332 C-10.72432423 103.98582822 -10.7313753 93.5773165 -10.75339937 83.16849899 C-10.77154117 74.23761687 -10.77411766 65.30682919 -10.7636447 56.3759346 C-10.75740306 51.03930778 -10.75659256 45.70282834 -10.76979065 40.36621094 C-10.78133075 35.3494141 -10.77335705 30.33302196 -10.75021362 25.31626892 C-10.74491669 23.47318698 -10.74645708 21.63007108 -10.75526428 19.78700256 C-10.76616473 17.2745721 -10.75252381 14.76344557 -10.73254395 12.25109863 C-10.74146683 11.5184164 -10.75038972 10.78573418 -10.759583 10.03084946 C-10.70909768 6.76723568 -10.41445805 4.79133693 -8.58190155 2.05573273 C-5.53676604 0.0562966 -3.6346599 0.00492927 0 0 Z M5.77539062 16.50793457 C5.77539062 71.94793457 5.77539062 127.38793457 5.77539062 184.50793457 C48.01539063 184.50793457 90.25539063 184.50793457 133.77539062 184.50793457 C133.77539062 129.06793457 133.77539062 73.62793457 133.77539062 16.50793457 C91.53539062 16.50793457 49.29539062 16.50793457 5.77539062 16.50793457 Z " fill="#000000" transform="translate(330.224609375,191.4920654296875)"/>
<path d="M0 0 C1.04269043 -0.00574036 1.04269043 -0.00574036 2.10644531 -0.01159668 C3.57228041 -0.0143118 5.03816428 -0.00697835 6.50390625 0.00976562 C8.74328975 0.03118581 10.97946587 0.00995557 13.21875 -0.015625 C14.64584039 -0.01298165 16.07292879 -0.0078565 17.5 0 C19.44132812 0.00676758 19.44132812 0.00676758 21.421875 0.01367188 C25.25919979 0.61043894 26.44070951 1.47408051 28.75 4.53125 C29.28125 6.53125 29.28125 6.53125 29.25 8.53125 C29.2603125 9.19125 29.270625 9.85125 29.28125 10.53125 C28.48927074 13.51281897 27.16446325 14.62735121 24.75 16.53125 C21.421875 17.04882812 21.421875 17.04882812 17.5 17.0625 C16.80487305 17.0663269 16.10974609 17.07015381 15.39355469 17.07409668 C13.92771959 17.0768118 12.46183572 17.06947835 10.99609375 17.05273438 C8.75671025 17.03131419 6.52053413 17.05254443 4.28125 17.078125 C2.85415961 17.07548165 1.42707121 17.0703565 0 17.0625 C-1.29421875 17.05798828 -2.5884375 17.05347656 -3.921875 17.04882812 C-7.75919979 16.45206106 -8.94070951 15.58841949 -11.25 12.53125 C-11.78125 10.53125 -11.78125 10.53125 -11.75 8.53125 C-11.76546875 7.54125 -11.76546875 7.54125 -11.78125 6.53125 C-10.16044839 0.42940865 -5.57509951 0.01943511 0 0 Z " fill="#000000" transform="translate(43.25,399.46875)"/>
<path d="M0 0 C0.7115625 -0.01546875 1.423125 -0.0309375 2.15625 -0.046875 C5.60314984 -0.02115187 7.64752229 0.24568064 10.46875 2.28125 C12.08267327 4.61979188 12.54379543 5.69709278 12.5 8.5 C12.5103125 9.16 12.520625 9.82 12.53125 10.5 C11.72167176 13.54782397 10.55457707 14.65682414 8 16.5 C5.16934716 16.90100915 2.81653341 17.06122899 0 17 C-0.7115625 17.01546875 -1.423125 17.0309375 -2.15625 17.046875 C-5.60314984 17.02115187 -7.64752229 16.75431936 -10.46875 14.71875 C-12.08267327 12.38020812 -12.54379543 11.30290722 -12.5 8.5 C-12.51546875 7.51 -12.51546875 7.51 -12.53125 6.5 C-10.82633794 0.08150756 -5.75061521 -0.12501337 0 0 Z " fill="#000000" transform="translate(92,399.5)"/>
<path d="M0 0 C2.5 1.5 2.5 1.5 4 4 C4.791013 8.02098277 4.62153384 10.96411027 2.5 14.5 C-1.03588973 16.62153384 -3.97901723 16.791013 -8 16 C-10.5 14.5 -10.5 14.5 -12 12 C-12.791013 7.97901723 -12.62153384 5.03588973 -10.5 1.5 C-6.96411027 -0.62153384 -4.02098277 -0.791013 0 0 Z " fill="#000000" transform="translate(396,400)"/>
</svg>
