<?xml version="1.0" encoding="UTF-8"?>
<svg version="1.1" xmlns="http://www.w3.org/2000/svg" width="512" height="512">
<path d="M0 0 C4.64208111 2.10446185 8.92113148 4.76560137 13.25 7.4375 C14.5390233 8.21525515 15.82899995 8.99143219 17.11987305 9.76611328 C20.4482594 11.76923525 23.76377289 13.79265032 27.0758667 15.8225708 C30.04602252 17.64008947 33.02503351 19.44291098 36.00390625 21.24609375 C39.41929674 23.31572355 42.83376427 25.38675975 46.24267578 27.46704102 C55.32759993 33.00871061 64.46754988 38.45416198 73.625 43.875 C84.80597366 50.49413242 95.93945682 57.18094058 107 64 C107.01401855 62.39560059 107.01401855 62.39560059 107.02832031 60.75878906 C107.06823512 56.7850603 107.13399721 52.81210456 107.20751953 48.83886719 C107.23572067 47.12021831 107.25693954 45.40143995 107.27099609 43.68261719 C107.29243833 41.20961253 107.33909156 38.73816325 107.390625 36.265625 C107.39185364 35.49881409 107.39308228 34.73200317 107.39434814 33.94195557 C107.48548252 30.61224632 107.63141502 28.48082731 109.68841553 25.79742432 C112.52994476 23.58792957 113.96294623 23.49408203 117.53125 23.48242188 C118.63919922 23.46981323 119.74714844 23.45720459 120.88867188 23.44421387 C122.08041016 23.45231079 123.27214844 23.46040771 124.5 23.46875 C125.72783203 23.4649231 126.95566406 23.46109619 128.22070312 23.45715332 C130.81641459 23.45443158 133.41215336 23.46181089 136.0078125 23.47851562 C139.98499599 23.49991925 143.96037282 23.47872037 147.9375 23.453125 C150.45833733 23.45576823 152.97917353 23.46089309 155.5 23.46875 C156.69173828 23.46065308 157.88347656 23.45255615 159.11132812 23.44421387 C160.77325195 23.46312683 160.77325195 23.46312683 162.46875 23.48242188 C163.44263672 23.48560425 164.41652344 23.48878662 165.41992188 23.49206543 C168.87382033 24.17202718 169.99917369 25.10809511 172 28 C172.37454981 30.62118329 172.50811196 32.81569862 172.45410156 35.43066406 C172.45468567 36.17251953 172.45526978 36.914375 172.45587158 37.67871094 C172.45309025 40.12482902 172.42199786 42.56972047 172.390625 45.015625 C172.38316274 46.71384007 172.37746973 48.41206376 172.37347412 50.11029053 C172.35821651 54.5755601 172.31893389 59.04030753 172.2746582 63.50537109 C172.23370807 68.06340471 172.21546367 72.62152287 172.1953125 77.1796875 C172.15243953 86.12002081 172.08418685 95.05996695 172 104 C172.76187119 104.29490829 173.52374237 104.58981659 174.30870056 104.8936615 C177.55670452 106.22884991 180.50121415 107.95153154 183.50390625 109.75390625 C184.13172501 110.12699921 184.75954376 110.50009216 185.40638733 110.88449097 C187.46065387 112.1067971 189.51166171 113.33445187 191.5625 114.5625 C192.98932098 115.41365981 194.41624276 116.26465067 195.84326172 117.11547852 C205.45821953 122.85448734 215.04966887 128.63264194 224.625 134.4375 C225.50673386 134.97154953 225.50673386 134.97154953 226.40628052 135.51638794 C228.07652683 136.52883227 229.74532344 137.54366703 231.4140625 138.55859375 C232.3520166 139.12892334 233.2899707 139.69925293 234.25634766 140.28686523 C242.81564137 145.63128275 242.81564137 145.63128275 244 148 C244.10991241 149.52044936 244.15905711 151.0455129 244.17700195 152.56982422 C244.18983719 153.51775848 244.20267242 154.46569275 244.21589661 155.44235229 C244.22697701 156.98295822 244.22697701 156.98295822 244.23828125 158.5546875 C244.246353 159.60778107 244.25442474 160.66087463 244.26274109 161.74588013 C244.27658695 163.97689158 244.28730685 166.20792427 244.29516602 168.43896484 C244.31239531 171.85424778 244.35627966 175.26856701 244.40039062 178.68359375 C244.41051586 180.8489512 244.41903249 183.01431689 244.42578125 185.1796875 C244.44328934 186.20270966 244.46079742 187.22573181 244.47883606 188.27975464 C244.45762643 195.19774494 244.45762643 195.19774494 242.47338867 198.67626953 C238.95299035 200.56034807 235.84947183 200.66956221 232 200 C229.45804846 198.90492856 227.39615748 197.86742874 225.0859375 196.421875 C224.46780182 196.05402893 223.84966614 195.68618286 223.21279907 195.30718994 C221.25659882 194.13760516 219.31614615 192.94436557 217.375 191.75 C216.06604974 190.96326838 214.75615997 190.17809768 213.4453125 189.39453125 C207.87470037 186.0488336 202.41048951 182.606993 197 179 C196.67 254.57 196.34 330.14 196 408 C210.52 408 225.04 408 240 408 C244.5011443 412.5011443 244.5011443 412.5011443 244.51757812 416.0625 C244.53649109 417.24392578 244.53649109 417.24392578 244.55578613 418.44921875 C244.54364075 419.71185547 244.54364075 419.71185547 244.53125 421 C244.5350769 421.87269531 244.53890381 422.74539063 244.54284668 423.64453125 C244.5455649 425.48699092 244.53820994 427.32948924 244.52148438 429.171875 C244.50007248 431.99045934 244.52128801 434.80649485 244.546875 437.625 C244.54423171 439.41667229 244.53910669 441.20834299 244.53125 443 C244.53934692 443.84175781 244.54744385 444.68351562 244.55578613 445.55078125 C244.53687317 446.73220703 244.53687317 446.73220703 244.51757812 447.9375 C244.51439575 448.62714844 244.51121338 449.31679688 244.50793457 450.02734375 C243.73334346 453.03560914 242.45664335 454.10571352 240 456 C237.16901079 456.39197625 234.72765285 456.53772548 231.89770508 456.50336456 C231.07036173 456.50917833 230.24301838 456.51499209 229.39060402 456.52098203 C226.59995485 456.53565664 223.81017497 456.52166221 221.01953125 456.50793457 C219.00602262 456.51254054 216.99251736 456.51889139 214.97901917 456.52684355 C209.43172013 456.54360177 203.88469497 456.53526104 198.33739471 456.52289867 C192.36048998 456.51387701 186.38363353 456.52780355 180.40673828 456.53881836 C169.36999932 456.55560817 158.33333604 456.55410934 147.29659653 456.54317249 C137.1015302 456.53311901 126.90649604 456.53047936 116.71142578 456.53526306 C116.03574401 456.5355686 115.36006224 456.53587414 114.66390526 456.53618894 C111.92124518 456.53743425 109.17858511 456.53870785 106.43592507 456.540028 C80.69603975 456.55227009 54.95621032 456.54116051 29.21633363 456.51964041 C6.33690081 456.5006573 -16.54244296 456.50235578 -39.421875 456.52148438 C-65.11401232 456.54289265 -90.80610024 456.55140197 -116.49824524 456.53903532 C-119.23597208 456.53775241 -121.97369892 456.53650105 -124.71142578 456.53526306 C-125.38554752 456.53494675 -126.05966926 456.53463044 -126.75421894 456.53430455 C-136.94406964 456.52975041 -147.1338847 456.53508365 -157.32373047 456.54518127 C-168.90748683 456.55660281 -180.49115843 456.55340597 -192.0749054 456.5320583 C-197.98926771 456.52151929 -203.90344894 456.51747454 -209.81781006 456.53065491 C-215.22615637 456.54252565 -220.6341528 456.53610441 -226.04246712 456.5147447 C-228.00471715 456.51025599 -229.96699641 456.51259531 -231.92922783 456.52224785 C-234.58581396 456.53431916 -237.24118371 456.52203201 -239.89770508 456.50336456 C-241.05460877 456.51741156 -241.05460877 456.51741156 -242.23488426 456.53174233 C-245.75579573 456.48190478 -247.64702874 456.27217166 -250.47464752 454.09183073 C-252.15269894 451.79059245 -252.50460949 450.74791788 -252.51757812 447.9375 C-252.53649109 446.75607422 -252.53649109 446.75607422 -252.55578613 445.55078125 C-252.54768921 444.70902344 -252.53959229 443.86726563 -252.53125 443 C-252.5350769 442.12730469 -252.53890381 441.25460937 -252.54284668 440.35546875 C-252.5455649 438.51300908 -252.53820994 436.67051076 -252.52148438 434.828125 C-252.50007248 432.00954066 -252.52128801 429.19350515 -252.546875 426.375 C-252.54423171 424.58332771 -252.53910669 422.79165701 -252.53125 421 C-252.54339539 419.73736328 -252.54339539 419.73736328 -252.55578613 418.44921875 C-252.54317749 417.66160156 -252.53056885 416.87398438 -252.51757812 416.0625 C-252.51439575 415.37285156 -252.51121338 414.68320312 -252.50793457 413.97265625 C-252 412 -252 412 -248 408 C-233.48 408 -218.96 408 -204 408 C-204.33 332.43 -204.66 256.86 -205 179 C-214.24 184.61 -223.48 190.22 -233 196 C-241.49333333 200.85333333 -241.49333333 200.85333333 -248 200 C-250.20288086 198.63842773 -250.20288086 198.63842773 -252 196 C-252.61564995 192.43243989 -252.58408653 188.89834051 -252.56640625 185.28515625 C-252.57260483 184.23726425 -252.57880341 183.18937225 -252.58518982 182.10972595 C-252.59228985 179.89485605 -252.58911084 177.67993279 -252.57641602 175.46508789 C-252.56256314 172.07793782 -252.59660527 168.69355679 -252.63476562 165.30664062 C-252.63571694 163.15364516 -252.63385732 161.00064623 -252.62890625 158.84765625 C-252.64216446 157.83606949 -252.65542267 156.82448273 -252.66908264 155.78224182 C-252.57652009 148.78300285 -252.57652009 148.78300285 -249.82617188 145.04760742 C-246.99391486 142.99559122 -244.18923745 141.12709966 -241.15234375 139.390625 C-240.59242737 139.06693939 -240.03251099 138.74325378 -239.45562744 138.40975952 C-238.2500328 137.71363304 -237.04245765 137.02092717 -235.83309937 136.33135986 C-232.55092641 134.45901797 -229.28429014 132.55985413 -226.015625 130.6640625 C-225.34375656 130.27523895 -224.67188812 129.88641541 -223.97966003 129.48580933 C-217.32389713 125.62639908 -210.75185679 121.63773159 -204.1875 117.625 C-194.16891096 111.50793461 -184.10216021 105.47800523 -174 99.5 C-163.96290768 93.55968925 -153.9582 87.5716568 -144 81.5 C-133.36671155 75.01673213 -122.6763327 68.63522658 -111.95898438 62.29199219 C-102.60315969 56.75294929 -93.28309988 51.16003861 -84 45.5 C-73.37674894 39.02285207 -62.69700831 32.64640088 -51.98919678 26.31011963 C-40.77874366 19.67465 -29.62428212 12.95130389 -18.50390625 6.16601562 C-17.41207031 5.50021484 -16.32023438 4.83441406 -15.1953125 4.1484375 C-14.23641113 3.56239746 -13.27750977 2.97635742 -12.28955078 2.37255859 C-8.1096342 -0.13325192 -4.83525462 -0.93998097 0 0 Z M-10.1953125 21.05078125 C-11.28714844 21.71980469 -12.37898437 22.38882813 -13.50390625 23.078125 C-14.09187988 23.44099609 -14.67985352 23.80386719 -15.28564453 24.17773438 C-18.45787158 26.1347972 -21.63933118 28.0767412 -24.8203125 30.01953125 C-25.48830872 30.42789215 -26.15630493 30.83625305 -26.84454346 31.25698853 C-34.18927479 35.73962003 -41.59329262 40.12083625 -49 44.5 C-59.03769139 50.43928135 -69.04181482 56.42835224 -79 62.5 C-89.63328845 68.98326787 -100.3236673 75.36477342 -111.04101562 81.70800781 C-120.39684031 87.24705071 -129.71690012 92.83996139 -139 98.5 C-148.95820803 104.5716617 -158.96323009 110.55913493 -169 116.5 C-176.83020712 121.13570182 -184.65643511 125.77687998 -192.44140625 130.48828125 C-193.03861481 130.84935471 -193.63582336 131.21042816 -194.25112915 131.58244324 C-197.17529033 133.35371763 -200.09093821 135.1370798 -202.99316406 136.9440918 C-208.5177952 140.36556902 -214.03376251 143.57663896 -219.85546875 146.46875 C-230.19904286 151.12208966 -230.19904286 151.12208966 -236.96630859 159.55126953 C-237.94524375 165.54446929 -237.22930357 171.0969674 -236 177 C-227.20378113 172.31134706 -218.62182402 167.29003573 -210.0625 162.1875 C-208.64389293 161.34372861 -207.2252729 160.49997901 -205.80664062 159.65625 C-196.27004917 153.97821763 -186.77248311 148.23819878 -177.29568481 142.46102905 C-167.22957708 136.32598336 -157.10355896 130.29622126 -146.95898438 124.29199219 C-137.60315969 118.75294929 -128.28309988 113.16003861 -119 107.5 C-108.36671155 101.01673213 -97.6763327 94.63522658 -86.95898438 88.29199219 C-77.60315988 82.7529494 -68.28308446 77.1600643 -59 71.5 C-45.31027848 63.15471245 -31.53038615 54.96448312 -17.73060608 46.80276489 C-15.23848958 45.32848713 -12.75891497 43.84757332 -10.3112793 42.30004883 C-6.75241524 40.29825828 -3.88923207 40.09820586 0 41 C4.63581633 43.12254384 8.91969388 45.76471404 13.25 48.4375 C14.5390233 49.21525515 15.82899995 49.99143219 17.11987305 50.76611328 C20.4482594 52.76923525 23.76377289 54.79265032 27.0758667 56.8225708 C30.04602253 58.64008947 33.02503413 60.44290994 36.00390625 62.24609375 C39.4265945 64.32016043 42.84833958 66.39566964 46.26464844 68.48022461 C55.13513979 73.89060567 64.05811505 79.20859362 73 84.5 C83.61143998 90.78023027 94.18099555 97.122927 104.70898438 103.54199219 C114.09842559 109.26451936 123.53738361 114.89939881 133 120.5 C143.03695936 126.44053528 153.04186665 132.42822812 163 138.5 C173.84676963 145.11274409 184.75078972 151.62377549 195.68362427 158.09317017 C204.54929849 163.33967948 213.38942937 168.62052859 222.14111328 174.05615234 C224.88462116 176.08982166 224.88462116 176.08982166 228 177 C229.77243283 170.1986407 230.92814176 163.63052858 228 157 C221.54388608 150.32077453 212.33223424 146.36659468 204.140625 142.17138672 C197.93403331 138.96354075 191.98675633 135.31921285 186.00878906 131.70901489 C183.31339391 130.08675751 180.60577827 128.48552789 177.89794922 126.88414001 C169.32047092 121.81028366 160.79980417 116.64593774 152.29101562 111.45800781 C142.90157441 105.73548064 133.46261639 100.10060119 124 94.5 C113.38869902 88.21953143 102.81900773 81.877075 92.29101562 75.45800781 C82.90156978 69.73547782 73.46243641 64.10091129 64 58.5 C53.77961723 52.44924728 43.58598184 46.35816626 33.4375 40.1875 C32.86767395 39.84123566 32.2978479 39.49497131 31.71075439 39.13821411 C25.53529892 35.38459889 19.36991477 31.6150389 13.21484375 27.828125 C12.14500244 27.17175049 11.07516113 26.51537598 9.97290039 25.83911133 C7.95536069 24.60066726 5.94009941 23.35850127 3.92749023 22.11206055 C3.04134033 21.568479 2.15519043 21.02489746 1.2421875 20.46484375 C0.4672998 19.986521 -0.30758789 19.50819824 -1.10595703 19.01538086 C-4.89798941 16.98250349 -6.78233188 18.94627236 -10.1953125 21.05078125 Z M124 40 C120.5987767 58.89913309 120.5987767 58.89913309 125.21044922 76.73986816 C132.28766886 84.20590091 142.65949457 88.19458097 152 92 C153.32 92.66 154.64 93.32 156 94 C156 76.18 156 58.36 156 40 C145.44 40 134.88 40 124 40 Z M-7.63012695 59.03198242 C-8.57331787 59.63373291 -9.51650879 60.2354834 -10.48828125 60.85546875 C-11.57044922 61.5309375 -12.65261719 62.20640625 -13.76757812 62.90234375 C-14.3432251 63.27343262 -14.91887207 63.64452148 -15.51196289 64.02685547 C-17.98069393 65.61822461 -20.4738378 67.16946738 -22.96554565 68.72451782 C-24.28569293 69.54930929 -25.60445584 70.37632025 -26.92190552 71.20541382 C-33.53773156 75.36467911 -40.25334553 79.34706446 -46.98617554 83.31314087 C-57.70539122 89.63057282 -68.37665738 96.02279624 -79 102.5 C-89.63328845 108.98326787 -100.3236673 115.36477342 -111.04101562 121.70800781 C-120.39683634 127.24704836 -129.71706344 132.83969718 -139 138.5 C-150.87224894 145.7390502 -162.81397503 152.85621037 -174.78320312 159.93359375 C-175.44343979 160.32430557 -176.10367645 160.7150174 -176.78392029 161.11756897 C-178.02080789 161.84934804 -179.25813692 162.58038171 -180.49598694 163.31053162 C-183.04365891 164.81761075 -185.53598039 166.35732026 -188 168 C-188.44813927 169.8430887 -188.44813927 169.8430887 -188.36914349 171.9942646 C-188.37511663 172.83426164 -188.38108978 173.67425867 -188.38724393 174.53971016 C-188.3785054 175.46771207 -188.36976688 176.39571398 -188.36076355 177.35183716 C-188.36332682 178.33359857 -188.3658901 179.31535999 -188.36853105 180.32687175 C-188.37349746 183.63751184 -188.35692888 186.94770226 -188.34057617 190.25830078 C-188.33973052 192.62309763 -188.34020383 194.98789526 -188.34190369 197.35269165 C-188.34267765 203.12102649 -188.32963377 208.8892125 -188.31059071 214.65751328 C-188.2891765 221.36775629 -188.28465796 228.0779779 -188.2812262 234.78825031 C-188.27465582 246.75551218 -188.25467879 258.7227128 -188.22631836 270.68994141 C-188.19879294 282.31689141 -188.17755195 293.94382479 -188.16479492 305.57080078 C-188.16400675 306.28715427 -188.16321858 307.00350776 -188.16240653 307.74156894 C-188.15849149 311.33520467 -188.15470035 314.92884051 -188.15097082 318.52247643 C-188.11985665 348.34836055 -188.06678237 378.17417312 -188 408 C-185.36 408 -182.72 408 -180 408 C-179.98541748 407.40985107 -179.97083496 406.81970215 -179.95581055 406.21166992 C-179.88131156 403.53628771 -179.78466005 400.86215108 -179.6875 398.1875 C-179.65366211 396.7943457 -179.65366211 396.7943457 -179.61914062 395.37304688 C-179.5659668 394.0340332 -179.5659668 394.0340332 -179.51171875 392.66796875 C-179.48553467 391.84578857 -179.45935059 391.0236084 -179.43237305 390.17651367 C-178.88388012 387.41546653 -178.23989582 386.69457399 -176 385 C-173.08203125 384.48828125 -173.08203125 384.48828125 -169.8125 384.3125 C-168.72582031 384.24675781 -167.63914062 384.18101562 -166.51953125 384.11328125 C-165.68808594 384.07589844 -164.85664063 384.03851563 -164 384 C-163.99761165 383.28124286 -163.99522329 382.56248571 -163.99276257 381.82194805 C-163.93366787 364.34594398 -163.85815351 346.87008852 -163.76428509 329.39423656 C-163.71928869 320.94309421 -163.67988299 312.49199435 -163.65356445 304.04077148 C-163.63061539 296.67606061 -163.59725226 289.31148381 -163.55129844 281.94687921 C-163.52732426 278.04610557 -163.50862309 274.14546505 -163.50238609 270.24461937 C-163.49635405 266.57476569 -163.47642319 262.90525283 -163.44572449 259.23552513 C-163.4327054 257.2430047 -163.43451933 255.25040476 -163.4367218 253.25784302 C-163.42418365 252.07573746 -163.41164551 250.8936319 -163.39872742 249.67570496 C-163.39411845 248.64606219 -163.38950949 247.61641943 -163.38476086 246.55557537 C-163 244 -163 244 -161.74313068 242.16907787 C-159.57121832 240.71242593 -158.31706934 240.62292593 -155.71118164 240.61904907 C-154.83632111 240.6105896 -153.96146057 240.60213013 -153.06008911 240.59341431 C-151.62462234 240.60252335 -151.62462234 240.60252335 -150.16015625 240.61181641 C-148.64517044 240.60393097 -148.64517044 240.60393097 -147.09957886 240.59588623 C-143.7537296 240.58265877 -140.40835428 240.59143424 -137.0625 240.6015625 C-134.74226795 240.59954256 -132.42203651 240.59663179 -130.10180664 240.59286499 C-125.23610395 240.5884379 -120.37056634 240.59488519 -115.50488281 240.60888672 C-109.26002361 240.62597864 -103.01555118 240.61613954 -96.77070618 240.59816933 C-91.97868929 240.58734197 -87.18676449 240.59077304 -82.39474487 240.5985527 C-80.09178624 240.60055761 -77.78881932 240.59808532 -75.48587036 240.59111404 C-72.27030205 240.58351696 -69.05536491 240.59507975 -65.83984375 240.61181641 C-64.88286591 240.60574371 -63.92588806 240.59967102 -62.93991089 240.59341431 C-62.06505035 240.60187378 -61.19018982 240.61033325 -60.28881836 240.61904907 C-59.52854843 240.62018015 -58.7682785 240.62131123 -57.98497009 240.62247658 C-55.35467352 241.12273528 -54.51428658 241.79408983 -53 244 C-52.61523914 246.55557537 -52.61523914 246.55557537 -52.60127258 249.67570496 C-52.58873444 250.85781052 -52.57619629 252.03991608 -52.5632782 253.25784302 C-52.56471329 254.55616058 -52.56614838 255.85447815 -52.56762695 257.19213867 C-52.55861174 258.57188294 -52.54828511 259.95161916 -52.53674316 261.3313446 C-52.50911845 265.07900235 -52.4998813 268.82650836 -52.49388909 272.57425475 C-52.48451958 276.49010107 -52.45831741 280.40583342 -52.43388367 284.3216095 C-52.39017567 291.73759059 -52.36165518 299.15354962 -52.33856028 306.56962043 C-52.3115316 315.01215825 -52.26761871 323.45458166 -52.22227156 331.89703786 C-52.12936373 349.26463305 -52.05771117 366.63225294 -52 384 C-51.16855469 384.03738281 -50.33710938 384.07476562 -49.48046875 384.11328125 C-47.85044922 384.21189453 -47.85044922 384.21189453 -46.1875 384.3125 C-45.10855469 384.37050781 -44.02960938 384.42851562 -42.91796875 384.48828125 C-40 385 -40 385 -37 388 C-36.67 394.6 -36.34 401.2 -36 408 C35.28 408 106.56 408 180 408 C180.93283552 365.8085732 180.93283552 365.8085732 181.5625 323.61523438 C181.62514152 317.91167259 181.68979394 312.20813901 181.7578125 306.50463867 C181.76625246 305.7899055 181.77469242 305.07517233 181.78338814 304.33878058 C181.92216963 292.83397784 182.17418724 281.3343499 182.46888947 269.83260521 C182.76933059 258.00725802 182.94611534 246.18459669 183.01083183 234.35559064 C183.05062445 227.71797646 183.14934804 221.0899261 183.38336182 214.45589256 C185.71517241 187.86154793 185.71517241 187.86154793 176.93200684 163.99145889 C169.85276864 157.33416833 161.10650279 153.79272807 152.07806396 150.59046364 C145.51700924 148.18177832 139.84324955 144.27808706 134 140.5 C131.71617551 139.09084109 129.42115414 137.7015837 127.125 136.3125 C126.48046875 135.920625 125.8359375 135.52875 125.171875 135.125 C118.14470102 130.86610668 111.07120829 126.68520797 104 122.5 C93.38869902 116.21953143 82.81900773 109.877075 72.29101562 103.45800781 C62.23562308 97.32960722 52.12218565 91.30310431 41.98617554 85.30911255 C34.60675686 80.94463102 27.2433047 76.55750568 19.92578125 72.08984375 C19.2789035 71.695159 18.63202576 71.30047424 17.96554565 70.89382935 C14.89597672 69.01961227 11.82961068 67.14040972 8.76757812 65.25390625 C7.68541016 64.59132813 6.60324219 63.92875 5.48828125 63.24609375 C4.54509033 62.66529053 3.60189941 62.0844873 2.63012695 61.48608398 C-2.25115608 58.34977428 -2.25115608 58.34977428 -7.63012695 59.03198242 Z M-148 256 C-148 298.24 -148 340.48 -148 384 C-121.6 384 -95.2 384 -68 384 C-68 341.76 -68 299.52 -68 256 C-94.4 256 -120.8 256 -148 256 Z M-164 400 C-164 402.64 -164 405.28 -164 408 C-127.04 408 -90.08 408 -52 408 C-52 405.36 -52 402.72 -52 400 C-88.96 400 -125.92 400 -164 400 Z M-236 424 C-236 429.28 -236 434.56 -236 440 C-82.88 440 70.24 440 228 440 C228 434.72 228 429.44 228 424 C74.88 424 -78.24 424 -236 424 Z " fill="#000000" transform="translate(260,32)"/>
<path d="M0 0 C0.68663223 -0.00623996 1.37326447 -0.01247993 2.08070374 -0.01890898 C4.38097496 -0.03486111 6.68018972 -0.02222711 8.98046875 -0.00964355 C10.62972634 -0.01506373 12.27897909 -0.0221858 13.92822266 -0.03088379 C18.40757091 -0.04913268 22.886551 -0.04204323 27.36590576 -0.02936745 C32.05123901 -0.01924786 36.73654052 -0.02863023 41.421875 -0.03491211 C49.29042222 -0.04219156 57.15881932 -0.03259303 65.02734375 -0.0135498 C74.12742646 0.00821953 83.22715071 0.00116837 92.32722473 -0.02085543 C100.13710094 -0.03900097 107.94686917 -0.0415719 115.75675964 -0.03110075 C120.42269772 -0.02486116 125.08846725 -0.02404295 129.75439453 -0.0372467 C134.14085692 -0.04879232 138.52685669 -0.0408033 142.91326904 -0.01766968 C144.52414176 -0.01237565 146.13505333 -0.01390823 147.74591064 -0.02272034 C149.94311376 -0.03363283 152.13882949 -0.01996683 154.3359375 0 C156.18094849 0.00226215 156.18094849 0.00226215 158.06323242 0.00457001 C161.7714411 0.60577431 162.96300205 1.51126753 165.16796875 4.50793457 C165.54251856 7.12911786 165.67608071 9.32363319 165.62207031 11.93859863 C165.62265442 12.6804541 165.62323853 13.42230957 165.62384033 14.18664551 C165.621059 16.63276359 165.58996661 19.07765504 165.55859375 21.52355957 C165.55113149 23.22177464 165.54543848 24.91999833 165.54144287 26.6182251 C165.52618526 31.08349467 165.48690264 35.5482421 165.44262695 40.01330566 C165.40167682 44.57133928 165.38343242 49.12945744 165.36328125 53.68762207 C165.32040828 62.62795538 165.2521556 71.56790152 165.16796875 80.50793457 C165.9878125 80.46152832 166.80765625 80.41512207 167.65234375 80.36730957 C168.73 80.33121582 169.80765625 80.29512207 170.91796875 80.25793457 C171.9853125 80.21152832 173.05265625 80.16512207 174.15234375 80.11730957 C177.16796875 80.50793457 177.16796875 80.50793457 179.52624512 82.31555176 C181.88690973 85.46801934 181.68560657 87.85318488 181.69921875 91.75793457 C181.70304565 92.45306152 181.70687256 93.14818848 181.71081543 93.86437988 C181.71353055 95.33021498 181.7061971 96.79609885 181.68945312 98.26184082 C181.66803294 100.50122432 181.68926318 102.73740044 181.71484375 104.97668457 C181.7122004 106.40377496 181.70707525 107.83086336 181.69921875 109.25793457 C181.69470703 110.55215332 181.69019531 111.84637207 181.68554688 113.17980957 C181.06063536 117.19810855 180.40908462 118.11540165 177.16796875 120.50793457 C174.35481321 120.90078958 171.93308612 121.04871906 169.12109375 121.01586914 C167.89513489 121.02522908 167.89513489 121.02522908 166.64440918 121.03477812 C163.90197011 121.05075059 161.16041463 121.03808747 158.41796875 121.0255127 C156.45344524 121.03093193 154.48892579 121.03805347 152.52441406 121.04675293 C147.18560859 121.0650128 141.84711176 121.0579077 136.50830078 121.04523659 C130.92609819 121.03512275 125.34392236 121.04449777 119.76171875 121.05078125 C110.38667039 121.05806236 101.01174799 121.04845775 91.63671875 121.02941895 C80.79164536 121.00764938 69.94687274 121.01470041 59.10180664 121.03672457 C49.79725567 121.05486532 40.49279535 121.05744336 31.18823242 121.04696989 C25.62804228 121.04072769 20.0679936 121.03991933 14.5078125 121.05311584 C9.28090303 121.0646544 4.05438206 121.056685 -1.17248535 121.03353882 C-3.09297032 121.02824107 -5.01348787 121.02978365 -6.93395996 121.03858948 C-9.55146963 121.04948658 -12.16772685 121.03585268 -14.78515625 121.01586914 C-15.93087097 121.02925347 -15.93087097 121.02925347 -17.09973145 121.04290819 C-20.55094093 120.9916397 -22.49121425 120.7595195 -25.3026123 118.68419647 C-27.51956566 115.52961862 -27.34994351 113.08396028 -27.36328125 109.25793457 C-27.36710815 108.56280762 -27.37093506 107.86768066 -27.37487793 107.15148926 C-27.37759305 105.68565416 -27.3702596 104.21977029 -27.35351562 102.75402832 C-27.33209544 100.51464482 -27.35332568 98.2784687 -27.37890625 96.03918457 C-27.3762629 94.61209418 -27.37113775 93.18500578 -27.36328125 91.75793457 C-27.35876953 90.46371582 -27.35425781 89.16949707 -27.34960938 87.83605957 C-26.73202005 83.8648437 -25.979749 82.92065803 -22.83203125 80.50793457 C-19.81640625 80.11730957 -19.81640625 80.11730957 -16.58203125 80.25793457 C-15.504375 80.29402832 -14.42671875 80.33012207 -13.31640625 80.36730957 C-12.4965625 80.41371582 -11.67671875 80.46012207 -10.83203125 80.50793457 C-10.84535492 79.09305756 -10.84535492 79.09305756 -10.85894775 77.64959717 C-10.94001816 68.76235996 -10.99998912 59.87519773 -11.03927994 50.98767471 C-11.0601589 46.41842493 -11.08848196 41.84947355 -11.13378906 37.28039551 C-11.17723613 32.87132584 -11.20116603 28.46254327 -11.21154022 24.05327606 C-11.21893368 22.3707197 -11.23337142 20.68817914 -11.25495148 19.00574493 C-11.28397128 16.64968356 -11.287988 14.29480984 -11.28613281 11.93859863 C-11.30051392 11.24232361 -11.31489502 10.54604858 -11.32971191 9.82867432 C-11.30319579 6.71842 -11.09278201 4.86230872 -9.22896957 2.32928848 C-6.0173598 -0.11110724 -4.01362426 0.00492107 0 0 Z M5.16796875 16.50793457 C5.16796875 37.62793457 5.16796875 58.74793457 5.16796875 80.50793457 C52.68796875 80.50793457 100.20796875 80.50793457 149.16796875 80.50793457 C149.16796875 59.38793457 149.16796875 38.26793457 149.16796875 16.50793457 C101.64796875 16.50793457 54.12796875 16.50793457 5.16796875 16.50793457 Z M-10.83203125 96.50793457 C-10.83203125 99.14793457 -10.83203125 101.78793457 -10.83203125 104.50793457 C47.24796875 104.50793457 105.32796875 104.50793457 165.16796875 104.50793457 C165.16796875 101.86793457 165.16796875 99.22793457 165.16796875 96.50793457 C107.08796875 96.50793457 49.00796875 96.50793457 -10.83203125 96.50793457 Z " fill="#000000" transform="translate(250.83203125,271.4920654296875)"/>
<path d="M0 0 C2.45777238 1.66400293 4.76824948 3.4186264 7.07421875 5.28515625 C8.12609375 6.04828125 9.17796875 6.81140625 10.26171875 7.59765625 C19.88902401 16.79708128 26.79256296 30.15635578 27.54296875 43.546875 C27.57708455 45.35517696 27.58691674 47.16407708 27.57421875 48.97265625 C27.56849854 49.92946289 27.56277832 50.88626953 27.55688477 51.87207031 C27.2333109 64.85424587 23.29865432 75.12443166 15.07421875 85.28515625 C14.31109375 86.33703125 13.54796875 87.38890625 12.76171875 88.47265625 C3.56229372 98.09996151 -9.79698078 105.00350046 -23.1875 105.75390625 C-24.99580196 105.78802205 -26.80470208 105.79785424 -28.61328125 105.78515625 C-29.57008789 105.77943604 -30.52689453 105.77371582 -31.51269531 105.76782227 C-44.49487087 105.4442484 -54.76505666 101.50959182 -64.92578125 93.28515625 C-65.97765625 92.52203125 -67.02953125 91.75890625 -68.11328125 90.97265625 C-77.75458338 81.75985644 -84.71807558 68.34380378 -85.359375 54.91796875 C-85.38272733 53.08217931 -85.3835773 51.24598202 -85.36328125 49.41015625 C-85.35570801 48.44489014 -85.34813477 47.47962402 -85.34033203 46.48510742 C-85.17120423 39.15520735 -84.16003867 32.93335206 -80.92578125 26.28515625 C-80.466875 25.32351562 -80.00796875 24.361875 -79.53515625 23.37109375 C-71.81135436 8.28935428 -59.62816001 -0.28778317 -43.75390625 -5.8203125 C-29.11871314 -9.24016885 -13.00071128 -7.61990955 0 0 Z M-59.92578125 24.28515625 C-67.37959543 34.41430208 -69.16967133 44.90845 -67.92578125 57.28515625 C-65.56512636 68.283662 -58.92841308 76.75741767 -49.92578125 83.28515625 C-41.09193879 88.67615136 -30.82988318 90.13893965 -20.73828125 88.28515625 C-11.32963798 85.90163329 -2.82798093 81.14515876 3.07421875 73.28515625 C9.63698988 61.85227442 12.02500794 51.0626057 9.42578125 38.03515625 C5.72352746 26.89675169 -2.13368497 18.53310551 -12.34765625 12.96484375 C-29.51285861 5.52658939 -47.72048558 10.58134563 -59.92578125 24.28515625 Z " fill="#000000" transform="translate(284.92578125,134.71484375)"/>
<path d="M0 0 C0.66 -0.0103125 1.32 -0.020625 2 -0.03125 C4.91796104 0.7438334 6.0931088 2.19104167 8 4.5 C8.51757812 7.09375 8.51757812 7.09375 8.53125 10 C8.53640625 11.051875 8.5415625 12.10375 8.546875 13.1875 C8.53140625 14.280625 8.5159375 15.37375 8.5 16.5 C8.51546875 17.593125 8.5309375 18.68625 8.546875 19.8125 C8.54171875 20.864375 8.5365625 21.91625 8.53125 23 C8.52673828 23.9590625 8.52222656 24.918125 8.51757812 25.90625 C7.857725 29.21298564 6.58886445 30.40908706 4 32.5 C2 33.03125 2 33.03125 0 33 C-0.99 33.01546875 -0.99 33.01546875 -2 33.03125 C-4.91796104 32.2561666 -6.0931088 30.80895833 -8 28.5 C-8.51757812 25.90625 -8.51757812 25.90625 -8.53125 23 C-8.53640625 21.948125 -8.5415625 20.89625 -8.546875 19.8125 C-8.53140625 18.719375 -8.5159375 17.62625 -8.5 16.5 C-8.51546875 15.406875 -8.5309375 14.31375 -8.546875 13.1875 C-8.53914062 11.6096875 -8.53914062 11.6096875 -8.53125 10 C-8.52673828 9.0409375 -8.52222656 8.081875 -8.51757812 7.09375 C-7.60329874 2.51200272 -4.67433964 -0.07303656 0 0 Z " fill="#000000" transform="translate(176,343.5)"/>
</svg>
