<?xml version="1.0" encoding="UTF-8"?>
<svg version="1.1" xmlns="http://www.w3.org/2000/svg" width="512" height="512">
<path d="M0 0 C5.29607725 1.71640632 9.24412102 6.02624202 13.25390625 9.73046875 C14.24837585 10.64097689 15.24316995 11.55113073 16.23828125 12.4609375 C17.75453232 13.85097783 19.26801818 15.24358611 20.7746582 16.64404297 C23.98472178 19.61760823 27.2795082 22.42953679 30.69140625 25.16796875 C35.47012253 29.01156932 39.94548312 33.10007039 44.41772461 37.28881836 C47.76489952 40.4060082 51.18395648 43.36620673 54.75390625 46.23046875 C59.51499103 50.05040886 63.9666365 54.11985694 68.41796875 58.2890625 C71.76507494 61.40615429 75.18404766 64.36627988 78.75390625 67.23046875 C83.51499103 71.05040886 87.9666365 75.11985694 92.41796875 79.2890625 C95.76507494 82.40615429 99.18404766 85.36627988 102.75390625 88.23046875 C107.50672558 92.04377728 111.95394553 96.10308265 116.39379883 100.26928711 C120.79665952 104.37532573 125.37504641 108.1683198 130.109375 111.890625 C133.0079535 114.3773836 134.19011647 115.93850473 134.50000191 119.78579998 C134.49815832 121.05142175 134.49631474 122.31704351 134.49441528 123.62101746 C134.49697856 124.67841888 134.49697856 124.67841888 134.49959362 125.75718194 C134.50289414 128.1249264 134.49187573 130.49238897 134.48095703 132.86010742 C134.48039304 134.55510959 134.48070924 136.25011225 134.48184204 137.94511414 C134.48241702 142.55227018 134.47063925 147.15932256 134.45669413 151.76645446 C134.44421093 156.57910499 134.44301817 161.39175777 134.44064331 166.204422 C134.43442144 175.32041505 134.41800108 184.43636026 134.39794433 193.55233222 C134.3756073 203.92946488 134.36459743 214.3065998 134.35455346 224.68375051 C134.33363546 246.03268331 134.29844576 267.38157302 134.25390625 288.73046875 C135.07375 288.6840625 135.89359375 288.63765625 136.73828125 288.58984375 C137.8159375 288.55375 138.89359375 288.51765625 140.00390625 288.48046875 C141.07125 288.4340625 142.13859375 288.38765625 143.23828125 288.33984375 C146.92234353 288.81705389 148.00598445 289.84372018 150.25390625 292.73046875 C150.78515625 294.73046875 150.78515625 294.73046875 150.75390625 296.73046875 C150.76421875 297.39046875 150.77453125 298.05046875 150.78515625 298.73046875 C149.9893629 301.72639666 148.69204127 302.82699121 146.25390625 304.73046875 C143.58177015 305.12267309 141.3216691 305.26856791 138.65136719 305.23383331 C137.8780518 305.23964708 137.1047364 305.24546084 136.30798721 305.25145078 C133.70110606 305.26611859 131.09515648 305.2521344 128.48828125 305.23840332 C126.60676591 305.24300956 124.72525417 305.24936061 122.84375 305.2573123 C117.66129489 305.27406675 112.47913303 305.26573152 107.29667664 305.25336742 C101.71241227 305.24434422 96.12819953 305.25827307 90.54394531 305.26928711 C79.59958577 305.28710615 68.65533573 305.28321728 57.71097183 305.27163655 C48.81902414 305.2626158 39.92710721 305.26137233 31.03515625 305.26573181 C29.77128838 305.26634474 28.5074205 305.26695768 27.2052536 305.26758918 C24.63801065 305.26886804 22.07076771 305.27016489 19.50352478 305.27147955 C-3.90198837 305.28256961 -27.30743116 305.27105414 -50.71293068 305.25010916 C-72.08860042 305.2311261 -93.46417485 305.23282459 -114.83984375 305.25195312 C-138.84437585 305.27336226 -162.84884836 305.28179654 -186.85339355 305.26950407 C-189.41137694 305.26822983 -191.96936034 305.26697234 -194.52734375 305.26573181 C-196.41538097 305.26480616 -196.41538097 305.26480616 -198.34156036 305.26386181 C-207.22641781 305.26040305 -216.11124153 305.26624855 -224.99609375 305.27565002 C-235.81862759 305.28684973 -246.64104534 305.28387273 -257.46356583 305.26252705 C-262.98908124 305.25198931 -268.51440286 305.2479411 -274.03991699 305.26112366 C-279.09299103 305.27299707 -284.14569065 305.26656881 -289.19873047 305.24521345 C-291.03177518 305.24072587 -292.8648512 305.24306159 -294.69787598 305.2527166 C-297.18022538 305.26479406 -299.66127443 305.25249503 -302.14355469 305.23383331 C-303.2234498 305.24788031 -303.2234498 305.24788031 -304.32516098 305.26221108 C-307.73726713 305.21056515 -309.4624917 304.95187984 -312.18804932 302.82400846 C-313.87853921 300.55250218 -314.28976739 299.52558159 -314.24609375 296.73046875 C-314.25640625 296.07046875 -314.26671875 295.41046875 -314.27734375 294.73046875 C-313.45344641 291.62873757 -312.35469488 290.64147787 -309.74609375 288.73046875 C-306.40681074 288.16450532 -303.10875618 288.2657886 -299.73046875 288.33984375 C-298.75950256 288.34550354 -297.78853638 288.35116333 -296.78814697 288.35699463 C-293.69029206 288.37936564 -290.59359842 288.42956402 -287.49609375 288.48046875 C-285.39454797 288.50053278 -283.29298403 288.51878372 -281.19140625 288.53515625 C-276.04252205 288.57923295 -270.89450472 288.64826617 -265.74609375 288.73046875 C-265.3628853 279.20146532 -265.10536574 269.67893926 -264.9973774 260.14282799 C-264.94347214 255.71131754 -264.85035967 251.28872142 -264.65917969 246.86083984 C-263.178597 223.71739592 -263.178597 223.71739592 -273.19688988 203.81402779 C-277.32997894 199.57134453 -281.86155631 195.84410493 -286.64279175 192.35220337 C-288.74609375 190.73046875 -288.74609375 190.73046875 -289.74609375 188.73046875 C-290.31481413 181.67833605 -290.31481413 181.67833605 -288.24609375 178.23046875 C-285.4414981 176.54771136 -283.18837603 175.98948319 -279.90625 176.13671875 C-275.61635306 177.3158586 -272.76228648 180.6072714 -269.74609375 183.73046875 C-268.75609375 184.72046875 -267.76609375 185.71046875 -266.74609375 186.73046875 C-266.41609375 180.79046875 -266.08609375 174.85046875 -265.74609375 168.73046875 C-267.94265625 168.35921875 -267.94265625 168.35921875 -270.18359375 167.98046875 C-279.19518394 166.15276595 -286.34755856 162.07931488 -293.74609375 156.73046875 C-295.29296875 155.61671875 -295.29296875 155.61671875 -296.87109375 154.48046875 C-307.26111512 144.54218744 -313.85761904 130.41812892 -314.17749023 116.05371094 C-314.21086903 100.61401753 -311.71016172 89.04038955 -301.74609375 76.73046875 C-300.98296875 75.67859375 -300.21984375 74.62671875 -299.43359375 73.54296875 C-290.23416872 63.91566349 -276.87489422 57.01212454 -263.484375 56.26171875 C-261.67607304 56.22760295 -259.86717292 56.21777076 -258.05859375 56.23046875 C-256.62338379 56.23904907 -256.62338379 56.23904907 -255.15917969 56.24780273 C-242.17700413 56.5713766 -231.90681834 60.50603318 -221.74609375 68.73046875 C-220.69421875 69.49359375 -219.64234375 70.25671875 -218.55859375 71.04296875 C-208.93128849 80.24239378 -202.02774954 93.60166828 -201.27734375 106.9921875 C-201.24322795 108.80048946 -201.23339576 110.60938958 -201.24609375 112.41796875 C-201.25181396 113.37477539 -201.25753418 114.33158203 -201.26342773 115.31738281 C-201.58651853 128.280177 -205.50845209 138.59466805 -213.74609375 148.73046875 C-214.37257813 149.56320312 -214.9990625 150.3959375 -215.64453125 151.25390625 C-224.48818674 161.67561179 -236.78311642 166.13787328 -249.74609375 168.73046875 C-249.74609375 208.33046875 -249.74609375 247.93046875 -249.74609375 288.73046875 C-228.95609375 288.23546875 -228.95609375 288.23546875 -207.74609375 287.73046875 C-213.29304062 282.2230698 -213.29304062 282.2230698 -218.84545898 276.72119141 C-219.53325439 276.03589355 -220.2210498 275.3505957 -220.9296875 274.64453125 C-221.99014282 273.59193115 -221.99014282 273.59193115 -223.07202148 272.51806641 C-225.95420056 269.44043549 -226.09947444 266.89950316 -226.015625 262.70703125 C-225.74609375 260.73046875 -225.74609375 260.73046875 -224.24609375 258.23046875 C-221.4414981 256.54771136 -219.18837603 255.98948319 -215.90625 256.13671875 C-211.61635306 257.3158586 -208.76228648 260.6072714 -205.74609375 263.73046875 C-204.75609375 264.72046875 -203.76609375 265.71046875 -202.74609375 266.73046875 C-202.41609375 263.43046875 -202.08609375 260.13046875 -201.74609375 256.73046875 C-203.66421875 256.39015625 -203.66421875 256.39015625 -205.62109375 256.04296875 C-218.7581717 253.04138286 -229.02286633 244.58661877 -236.2734375 233.359375 C-242.85998941 221.60141894 -243.48877951 208.2379023 -241.0859375 195.12890625 C-237.22389505 182.18855623 -228.00512991 171.5367348 -216.3125 165.01953125 C-204.67152913 159.17246826 -189.60884719 158.54017238 -177.12109375 162.29296875 C-164.2982724 167.42933161 -154.50433909 176.88743183 -148.55078125 189.203125 C-143.42951664 201.93466044 -143.93868598 217.17138239 -149.203125 229.75 C-155.01252248 240.9716969 -164.79614999 250.35108595 -176.74609375 254.73046875 C-181.20109375 255.72046875 -181.20109375 255.72046875 -185.74609375 256.73046875 C-185.74609375 267.29046875 -185.74609375 277.85046875 -185.74609375 288.73046875 C-169.90609375 288.73046875 -154.06609375 288.73046875 -137.74609375 288.73046875 C-137.77227783 283.54626221 -137.79846191 278.36205566 -137.82543945 273.02075195 C-137.90818162 255.91771441 -137.96372939 238.81466914 -138.00515461 221.71148396 C-138.03094516 211.33888364 -138.06611201 200.96647283 -138.12329102 190.59399414 C-138.17309985 181.55418799 -138.20537857 172.51451907 -138.21653622 163.47457951 C-138.22305925 158.68715282 -138.23840786 153.90011873 -138.27474403 149.11281776 C-138.30866372 144.60741731 -138.3191549 140.10257145 -138.31163216 135.59705544 C-138.31300851 133.94302864 -138.32296526 132.28898343 -138.34212112 130.63506699 C-138.36699812 128.37653827 -138.36102092 126.12010358 -138.34736633 123.86152649 C-138.35427978 121.96585922 -138.35427978 121.96585922 -138.36133289 120.03189564 C-137.58184237 115.84908155 -135.95378622 114.42356138 -132.74609375 111.73046875 C-132.19228027 111.19647461 -131.6384668 110.66248047 -131.06787109 110.11230469 C-124.39819742 103.83934837 -117.67617702 97.76335477 -110.5234375 92.0390625 C-107.32166576 89.37767417 -104.28374457 86.57584629 -101.24609375 83.73046875 C-96.50745232 79.29211969 -91.62489796 75.13904422 -86.55859375 71.07421875 C-83.3475957 68.39838704 -80.29580238 65.58688599 -77.24609375 62.73046875 C-72.50742911 58.29214201 -67.62490049 54.13904625 -62.55859375 50.07421875 C-59.3475957 47.39838704 -56.29580238 44.58688599 -53.24609375 41.73046875 C-48.50742911 37.29214201 -43.62490049 33.13904625 -38.55859375 29.07421875 C-35.34758669 26.39837954 -32.29590754 23.58678576 -29.24609375 20.73046875 C-24.35341115 16.15077873 -19.35457376 11.81650777 -14.10546875 7.64453125 C-12.15060678 6.0586333 -10.36895664 4.4101997 -8.55859375 2.66796875 C-5.65178758 0.66550228 -3.57516774 -0.25100798 0 0 Z M-2.74609375 20.73046875 C-3.34035156 21.27574219 -3.93460937 21.82101563 -4.546875 22.3828125 C-8.95819035 26.3962176 -13.40777078 30.30863148 -18.05859375 34.04296875 C-22.87274963 37.93367583 -27.39533709 42.06047341 -31.90942383 46.28833008 C-36.09902984 50.19015264 -40.46764089 53.80357053 -44.93359375 57.38671875 C-48.1445918 60.06255046 -51.19638512 62.87405151 -54.24609375 65.73046875 C-58.98475839 70.16879549 -63.86728701 74.32189125 -68.93359375 78.38671875 C-72.1445918 81.06255046 -75.19638512 83.87405151 -78.24609375 86.73046875 C-82.98475839 91.16879549 -87.86728701 95.32189125 -92.93359375 99.38671875 C-96.71857718 102.54087161 -100.29183346 105.89927711 -103.88598633 109.26708984 C-108.30358903 113.38224394 -112.88454837 117.21743248 -117.6015625 120.98828125 C-119.78635378 122.70208387 -119.78635378 122.70208387 -121.74609375 124.73046875 C-122.04616462 127.67567265 -122.04616462 127.67567265 -121.98660278 131.197052 C-121.98831163 131.86846344 -121.99002048 132.53987488 -121.99178112 133.23163211 C-121.99508764 135.49193074 -121.98405349 137.75193555 -121.97314453 140.01220703 C-121.97258067 141.62824496 -121.97289649 143.24428341 -121.97402954 144.86032104 C-121.97460502 149.25680118 -121.96281917 153.65317291 -121.94888163 158.04962778 C-121.93640677 162.64073549 -121.93520634 167.23184549 -121.93283081 171.82296753 C-121.92660648 180.52108655 -121.9101828 189.21915549 -121.89013183 197.91725242 C-121.86362988 209.66803679 -121.85280789 221.41883479 -121.8411274 233.16964149 C-121.82230285 251.68995478 -121.78246354 270.21016237 -121.74609375 288.73046875 C-95.34609375 288.73046875 -68.94609375 288.73046875 -41.74609375 288.73046875 C-41.70871094 282.12402344 -41.67132813 275.51757812 -41.6328125 268.7109375 C-41.60254546 264.53187466 -41.5714059 260.35285508 -41.53710938 256.17382812 C-41.48272607 249.53704973 -41.43161871 242.90035691 -41.3996582 236.26342773 C-41.37369637 230.91407918 -41.3333447 225.56501694 -41.28290749 220.21584511 C-41.26619048 218.17249417 -41.25470641 216.12909366 -41.24847984 214.08568382 C-41.23889122 211.22893453 -41.21089521 208.37292578 -41.1784668 205.51635742 C-41.18061943 204.24213425 -41.18061943 204.24213425 -41.18281555 202.94216919 C-41.08987314 197.17335666 -41.08987314 197.17335666 -39.4132967 195.01343822 C-36.72448192 192.94430364 -34.17932821 193.34858683 -30.84375 193.34228516 C-30.14587372 193.3370282 -29.44799744 193.33177124 -28.72897339 193.32635498 C-26.42195255 193.31315029 -24.11562162 193.3218942 -21.80859375 193.33203125 C-20.2058092 193.33001064 -18.60302554 193.3270993 -17.00024414 193.32333374 C-13.64102425 193.31890977 -10.28204365 193.32534362 -6.92285156 193.33935547 C-2.61502536 193.35644759 1.69224015 193.34660677 6.00004578 193.32863808 C9.30973543 193.31780209 12.61929195 193.32124568 15.9289856 193.32902145 C17.51742621 193.33102398 19.10587888 193.32856232 20.69430542 193.32158279 C22.91371721 193.31397112 25.13221859 193.3255673 27.3515625 193.34228516 C28.61492432 193.34467194 29.87828613 193.34705872 31.17993164 193.34951782 C34.25390625 193.73046875 34.25390625 193.73046875 35.9211092 195.01343822 C38.26454747 198.0324688 37.69248509 201.84292232 37.6862793 205.51635742 C37.70156677 206.86300728 37.70156677 206.86300728 37.71716309 208.23686218 C37.74738304 211.20745003 37.75657278 214.1777159 37.765625 217.1484375 C37.78246501 219.20682352 37.80061432 221.26519921 37.82002258 223.32356262 C37.86760229 228.74373142 37.89736011 234.16385836 37.92346191 239.58416748 C37.95845964 246.08624543 38.01549496 252.58816257 38.06885529 259.09011078 C38.14746257 268.97021004 38.19799781 278.85009745 38.25390625 288.73046875 C64.65390625 288.73046875 91.05390625 288.73046875 118.25390625 288.73046875 C118.57446468 259.82633681 118.57446468 259.82633681 118.79101562 230.921875 C118.85625064 219.13178795 118.9328759 207.34256655 119.08374023 195.55322266 C119.19357041 186.96639448 119.26439072 178.38026942 119.28887969 169.79275835 C119.30319018 165.24758668 119.33668091 160.70442598 119.41693687 156.15990067 C119.49196714 151.87631751 119.51456521 147.59556018 119.49809074 143.31138229 C119.5011013 141.74479522 119.52277799 140.17810746 119.56516647 138.61209106 C119.80404344 129.59678266 119.80404344 129.59678266 115.91004372 121.663311 C113.13910285 119.10937277 110.32639664 116.90727698 107.25390625 114.73046875 C105.4545301 113.28165854 103.66172066 111.82461079 101.87890625 110.35546875 C100.97398437 109.62585938 100.0690625 108.89625 99.13671875 108.14453125 C95.32591823 104.95337309 91.71706852 101.56916872 88.09033203 98.17236328 C84.7430884 95.05507539 81.32394719 92.09480393 77.75390625 89.23046875 C72.99282147 85.41052864 68.541176 81.34108056 64.08984375 77.171875 C60.74273756 74.05478321 57.32376484 71.09465762 53.75390625 68.23046875 C48.99282147 64.41052864 44.541176 60.34108056 40.08984375 56.171875 C36.74273756 53.05478321 33.32376484 50.09465762 29.75390625 47.23046875 C25.58718645 43.88740286 21.650186 40.37886588 17.75390625 36.73046875 C8.4222759 27.23225046 8.4222759 27.23225046 -2.74609375 20.73046875 Z M-290.20703125 89.578125 C-296.92125866 98.96781866 -297.75259998 109.54371418 -296.74609375 120.73046875 C-294.41749723 131.68152553 -287.75146489 140.27471267 -278.74609375 146.73046875 C-274.28283957 149.22312636 -270.90385102 150.73046875 -265.74609375 150.73046875 C-265.74022751 150.11072678 -265.73436127 149.4909848 -265.72831726 148.85246277 C-265.66447025 142.41232454 -265.58007342 135.97269007 -265.48364258 129.53295898 C-265.45035199 127.12840408 -265.42233308 124.72377024 -265.3996582 122.3190918 C-265.36618865 118.86603096 -265.31387578 115.41369614 -265.2578125 111.9609375 C-265.25142258 110.88273239 -265.24503265 109.80452728 -265.2384491 108.69364929 C-265.21865494 107.69283829 -265.19886078 106.69202728 -265.1784668 105.66088867 C-265.16736374 104.77930588 -265.15626068 103.89772308 -265.14482117 102.98942566 C-264.66618731 100.27776548 -263.91049726 99.38255406 -261.74609375 97.73046875 C-259.80859375 97.33203125 -259.80859375 97.33203125 -257.74609375 97.35546875 C-257.06546875 97.34773438 -256.38484375 97.34 -255.68359375 97.33203125 C-253.12857386 97.85745873 -252.35401419 98.69101925 -250.74609375 100.73046875 C-250.34736633 102.98942566 -250.34736633 102.98942566 -250.3137207 105.66088867 C-250.28402946 107.16210518 -250.28402946 107.16210518 -250.2537384 108.69364929 C-250.24734848 109.7718544 -250.24095856 110.85005951 -250.234375 111.9609375 C-250.2164238 113.0664949 -250.1984726 114.17205231 -250.17997742 115.31111145 C-250.12573948 118.8466916 -250.09193483 122.38213571 -250.05859375 125.91796875 C-250.02543266 128.31317003 -249.99094415 130.70835332 -249.95507812 133.10351562 C-249.87000529 138.97904469 -249.80171257 144.85459107 -249.74609375 150.73046875 C-240.66525641 149.56745167 -233.65634844 145.54180488 -227.34765625 138.859375 C-219.43363371 128.33951577 -217.59627234 117.5100914 -218.74609375 104.73046875 C-221.07265391 93.78898869 -227.73746937 85.17220742 -236.74609375 78.73046875 C-255.7407111 68.40390578 -276.5066363 73.28153649 -290.20703125 89.578125 Z M-211.74609375 182.73046875 C-212.4009375 183.17648437 -213.05578125 183.6225 -213.73046875 184.08203125 C-219.36453969 188.39185475 -223.46451483 194.70081803 -224.74609375 201.73046875 C-225.72038547 211.99136379 -224.86545994 220.10890409 -218.74609375 228.73046875 C-214.76083412 233.16644227 -210.32525617 236.52475337 -204.74609375 238.73046875 C-203.75609375 238.73046875 -202.76609375 238.73046875 -201.74609375 238.73046875 C-201.73151123 237.95856201 -201.71692871 237.18665527 -201.7019043 236.39135742 C-201.62751342 232.89971782 -201.53082285 229.40904385 -201.43359375 225.91796875 C-201.41103516 224.70302734 -201.38847656 223.48808594 -201.36523438 222.23632812 C-201.32978516 221.07294922 -201.29433594 219.90957031 -201.2578125 218.7109375 C-201.23162842 217.63739014 -201.20544434 216.56384277 -201.1784668 215.45776367 C-200.74609375 212.73046875 -200.74609375 212.73046875 -199.33520508 210.8815918 C-197.34977955 209.44338602 -196.1815357 209.32779327 -193.74609375 209.35546875 C-193.06546875 209.34773438 -192.38484375 209.34 -191.68359375 209.33203125 C-189.09407809 209.86455262 -188.34898996 210.62997853 -186.74609375 212.73046875 C-186.3137207 215.45776367 -186.3137207 215.45776367 -186.234375 218.7109375 C-186.19892578 219.87431641 -186.16347656 221.03769531 -186.12695312 222.23632812 C-186.09311523 224.05874023 -186.09311523 224.05874023 -186.05859375 225.91796875 C-186.02443359 227.14451172 -185.99027344 228.37105469 -185.95507812 229.63476562 C-185.87249965 232.66657553 -185.80338006 235.69809254 -185.74609375 238.73046875 C-178.45327304 237.40319802 -172.93826184 233.6471443 -168.37109375 227.79296875 C-162.53534199 219.13660364 -161.77969036 212.20716005 -162.74609375 201.73046875 C-164.64977835 193.27720261 -169.30848439 186.90115757 -176.3046875 181.90234375 C-187.57382595 175.35798655 -200.90358688 175.14071394 -211.74609375 182.73046875 Z M-25.74609375 208.73046875 C-25.74609375 235.13046875 -25.74609375 261.53046875 -25.74609375 288.73046875 C-20.46609375 288.73046875 -15.18609375 288.73046875 -9.74609375 288.73046875 C-9.74609375 262.33046875 -9.74609375 235.93046875 -9.74609375 208.73046875 C-15.02609375 208.73046875 -20.30609375 208.73046875 -25.74609375 208.73046875 Z M6.25390625 208.73046875 C6.25390625 235.13046875 6.25390625 261.53046875 6.25390625 288.73046875 C11.53390625 288.73046875 16.81390625 288.73046875 22.25390625 288.73046875 C22.25390625 262.33046875 22.25390625 235.93046875 22.25390625 208.73046875 C16.97390625 208.73046875 11.69390625 208.73046875 6.25390625 208.73046875 Z " fill="#000000" transform="translate(321.74609375,119.26953125)"/>
<path d="M0 0 C0.69641602 -0.00700928 1.39283203 -0.01401855 2.11035156 -0.02124023 C4.40730932 -0.03881383 6.70303021 -0.02720107 9 -0.01367188 C10.59896073 -0.01636701 12.19791987 -0.0202496 13.796875 -0.02526855 C17.14599226 -0.03116269 20.49468243 -0.0226038 23.84375 -0.00390625 C28.13478591 0.01888377 32.42482111 0.00576017 36.71582031 -0.01819611 C40.01700366 -0.03265667 43.31795011 -0.02804703 46.61914062 -0.01768494 C48.20117308 -0.01501834 49.78322711 -0.0182851 51.36523438 -0.02760315 C53.57740163 -0.03777366 55.787953 -0.02226378 58 0 C59.8871875 0.00477356 59.8871875 0.00477356 61.8125 0.00964355 C65 0.51757812 65 0.51757812 67.40515137 2.11242676 C69.56880448 5.37537794 69.50770302 7.61353723 69.51757812 11.51757812 C69.5245874 12.21399414 69.53159668 12.91041016 69.53881836 13.62792969 C69.55639196 15.92488744 69.54477919 18.22060833 69.53125 20.51757812 C69.53394513 22.11653886 69.53782773 23.715498 69.54284668 25.31445312 C69.54874082 28.66357038 69.54018192 32.01226056 69.52148438 35.36132812 C69.49869435 39.65236403 69.51181796 43.94239924 69.53577423 48.23339844 C69.5502348 51.53458179 69.54562515 54.83552823 69.53526306 58.13671875 C69.53259646 59.71875121 69.53586322 61.30080524 69.54518127 62.8828125 C69.55535179 65.09497975 69.5398419 67.30553112 69.51757812 69.51757812 C69.51439575 70.77570313 69.51121338 72.03382813 69.50793457 73.33007812 C69 76.51757812 69 76.51757812 67.40515137 78.92272949 C64.14220018 81.0863826 61.90404089 81.02528115 58 81.03515625 C57.30358398 81.04216553 56.60716797 81.0491748 55.88964844 81.05639648 C53.59269068 81.07397008 51.29696979 81.06235732 49 81.04882812 C47.40103927 81.05152326 45.80208013 81.05540585 44.203125 81.0604248 C40.85400774 81.06631894 37.50531757 81.05776005 34.15625 81.0390625 C29.86521409 81.01627248 25.57517889 81.02939608 21.28417969 81.05335236 C17.98299634 81.06781292 14.68204989 81.06320328 11.38085938 81.05284119 C9.79882692 81.05017459 8.21677289 81.05344135 6.63476562 81.0627594 C4.42259837 81.07292991 2.212047 81.05742003 0 81.03515625 C-1.258125 81.03197388 -2.51625 81.0287915 -3.8125 81.0255127 C-7 80.51757812 -7 80.51757812 -9.40515137 78.92272949 C-11.56880448 75.65977831 -11.50770302 73.42161902 -11.51757812 69.51757812 C-11.5245874 68.82116211 -11.53159668 68.12474609 -11.53881836 67.40722656 C-11.55639196 65.11026881 -11.54477919 62.81454792 -11.53125 60.51757812 C-11.53394513 58.91861739 -11.53782773 57.31965825 -11.54284668 55.72070312 C-11.54874082 52.37158587 -11.54018192 49.02289569 -11.52148438 45.67382812 C-11.49869435 41.38279222 -11.51181796 37.09275701 -11.53577423 32.80175781 C-11.5502348 29.50057446 -11.54562515 26.19962802 -11.53526306 22.8984375 C-11.53259646 21.31640504 -11.53586322 19.73435101 -11.54518127 18.15234375 C-11.55535179 15.9401765 -11.5398419 13.72962513 -11.51757812 11.51757812 C-11.51439575 10.25945312 -11.51121338 9.00132812 -11.50793457 7.70507812 C-11 4.51757812 -11 4.51757812 -9.40515137 2.11242676 C-6.14220018 -0.05122635 -3.90404089 0.0098751 0 0 Z M5 16.51757812 C5 21.79757813 5 27.07757813 5 32.51757812 C10.28 32.51757812 15.56 32.51757812 21 32.51757812 C21 27.23757812 21 21.95757812 21 16.51757812 C15.72 16.51757812 10.44 16.51757812 5 16.51757812 Z M37 16.51757812 C37 21.79757813 37 27.07757813 37 32.51757812 C42.28 32.51757812 47.56 32.51757812 53 32.51757812 C53 27.23757812 53 21.95757812 53 16.51757812 C47.72 16.51757812 42.44 16.51757812 37 16.51757812 Z M5 48.51757812 C5 53.79757812 5 59.07757813 5 64.51757812 C10.28 64.51757812 15.56 64.51757812 21 64.51757812 C21 59.23757813 21 53.95757812 21 48.51757812 C15.72 48.51757812 10.44 48.51757812 5 48.51757812 Z M37 48.51757812 C37 53.79757812 37 59.07757813 37 64.51757812 C42.28 64.51757812 47.56 64.51757812 53 64.51757812 C53 59.23757813 53 53.95757812 53 48.51757812 C47.72 48.51757812 42.44 48.51757812 37 48.51757812 Z " fill="#000000" transform="translate(291,215.482421875)"/>
<path d="M0 0 C0.7115625 -0.01546875 1.423125 -0.0309375 2.15625 -0.046875 C5.60314984 -0.02115187 7.64752229 0.24568064 10.46875 2.28125 C12.08267327 4.61979188 12.54379543 5.69709278 12.5 8.5 C12.5103125 9.16 12.520625 9.82 12.53125 10.5 C11.72167176 13.54782397 10.55457707 14.65682414 8 16.5 C5.16934716 16.90100915 2.81653341 17.06122899 0 17 C-0.7115625 17.01546875 -1.423125 17.0309375 -2.15625 17.046875 C-5.60314984 17.02115187 -7.64752229 16.75431936 -10.46875 14.71875 C-12.08267327 12.38020812 -12.54379543 11.30290722 -12.5 8.5 C-12.51546875 7.51 -12.51546875 7.51 -12.53125 6.5 C-10.82633794 0.08150756 -5.75061521 -0.12501337 0 0 Z " fill="#000000" transform="translate(492,407.5)"/>
</svg>
