<?xml version="1.0" encoding="UTF-8"?>
<svg version="1.1" xmlns="http://www.w3.org/2000/svg" width="512" height="512">
<path d="M0 0 C11.39729158 9.66470745 20.09518314 23.54125337 22.625 38.41796875 C24.23937128 58.92760343 21.29098323 77.34926282 7.69335938 93.38452148 C-2.61035178 104.82681458 -17.41932536 113.39367446 -32.96582031 114.62280273 C-53.1864446 115.34707409 -70.47751763 111.97080234 -85.875 98.10546875 C-97.40937764 87.19349725 -105.05326421 71.89142881 -105.7109375 55.96484375 C-105.87889452 45.10702571 -105.80390386 35.49554016 -101.375 25.41796875 C-100.83166016 24.10699219 -100.83166016 24.10699219 -100.27734375 22.76953125 C-92.57504006 5.79835363 -78.3307337 -4.88153347 -61.515625 -11.75 C-40.72526515 -18.14934487 -16.86893895 -13.4143956 0 0 Z M-71.75 13.79296875 C-73.31152461 15.31451833 -74.85523651 16.85470577 -76.375 18.41796875 C-77.25478516 19.26681641 -77.25478516 19.26681641 -78.15234375 20.1328125 C-87.25530609 29.6063789 -88.85521896 42.28468589 -88.65234375 54.7890625 C-88.12859906 67.58563048 -81.6420429 77.90859511 -72.5703125 86.56640625 C-61.12508934 96.21949482 -49.07392926 98.49702501 -34.50488281 97.625 C-22.81317383 96.48852943 -12.88810494 89.72308907 -4.96875 81.35546875 C4.87390124 69.38989273 7.09020632 56.49162429 5.625 41.41796875 C3.38313894 29.54144288 -3.9298078 18.87806971 -13.375 11.41796875 C-31.96129951 0.26618905 -54.6426982 -1.23994466 -71.75 13.79296875 Z " fill="#000000" transform="translate(481.375,205.58203125)"/>
<path d="M0 0 C11.39729158 9.66470745 20.09518314 23.54125337 22.625 38.41796875 C24.23937128 58.92760343 21.29098323 77.34926282 7.69335938 93.38452148 C-2.61035178 104.82681458 -17.41932536 113.39367446 -32.96582031 114.62280273 C-53.1864446 115.34707409 -70.47751763 111.97080234 -85.875 98.10546875 C-97.40937764 87.19349725 -105.05326421 71.89142881 -105.7109375 55.96484375 C-105.87889452 45.10702571 -105.80390386 35.49554016 -101.375 25.41796875 C-100.83166016 24.10699219 -100.83166016 24.10699219 -100.27734375 22.76953125 C-92.57504006 5.79835363 -78.3307337 -4.88153347 -61.515625 -11.75 C-40.72526515 -18.14934487 -16.86893895 -13.4143956 0 0 Z M-71.75 13.79296875 C-73.31152461 15.31451833 -74.85523651 16.85470577 -76.375 18.41796875 C-77.25478516 19.26681641 -77.25478516 19.26681641 -78.15234375 20.1328125 C-87.25530609 29.6063789 -88.85521896 42.28468589 -88.65234375 54.7890625 C-88.12859906 67.58563048 -81.6420429 77.90859511 -72.5703125 86.56640625 C-61.12508934 96.21949482 -49.07392926 98.49702501 -34.50488281 97.625 C-22.81317383 96.48852943 -12.88810494 89.72308907 -4.96875 81.35546875 C4.87390124 69.38989273 7.09020632 56.49162429 5.625 41.41796875 C3.38313894 29.54144288 -3.9298078 18.87806971 -13.375 11.41796875 C-31.96129951 0.26618905 -54.6426982 -1.23994466 -71.75 13.79296875 Z " fill="#000000" transform="translate(297.375,205.58203125)"/>
<path d="M0 0 C11.39729158 9.66470745 20.09518314 23.54125337 22.625 38.41796875 C24.23937128 58.92760343 21.29098323 77.34926282 7.69335938 93.38452148 C-2.61035178 104.82681458 -17.41932536 113.39367446 -32.96582031 114.62280273 C-53.1864446 115.34707409 -70.47751763 111.97080234 -85.875 98.10546875 C-97.40937764 87.19349725 -105.05326421 71.89142881 -105.7109375 55.96484375 C-105.87889452 45.10702571 -105.80390386 35.49554016 -101.375 25.41796875 C-100.83166016 24.10699219 -100.83166016 24.10699219 -100.27734375 22.76953125 C-92.57504006 5.79835363 -78.3307337 -4.88153347 -61.515625 -11.75 C-40.72526515 -18.14934487 -16.86893895 -13.4143956 0 0 Z M-71.75 13.79296875 C-73.31152461 15.31451833 -74.85523651 16.85470577 -76.375 18.41796875 C-77.25478516 19.26681641 -77.25478516 19.26681641 -78.15234375 20.1328125 C-87.25530609 29.6063789 -88.85521896 42.28468589 -88.65234375 54.7890625 C-88.12859906 67.58563048 -81.6420429 77.90859511 -72.5703125 86.56640625 C-61.12508934 96.21949482 -49.07392926 98.49702501 -34.50488281 97.625 C-22.81317383 96.48852943 -12.88810494 89.72308907 -4.96875 81.35546875 C4.87390124 69.38989273 7.09020632 56.49162429 5.625 41.41796875 C3.38313894 29.54144288 -3.9298078 18.87806971 -13.375 11.41796875 C-31.96129951 0.26618905 -54.6426982 -1.23994466 -71.75 13.79296875 Z " fill="#000000" transform="translate(113.375,205.58203125)"/>
</svg>
