<?xml version="1.0" encoding="UTF-8"?>
<svg version="1.1" xmlns="http://www.w3.org/2000/svg" width="512" height="512">
<path d="M0 0 C0.90045044 -0.00705963 1.80090088 -0.01411926 2.7286377 -0.02139282 C40.56271231 -0.2507174 40.56271231 -0.2507174 57.20703125 3.203125 C58.69759033 3.50911621 58.69759033 3.50911621 60.21826172 3.82128906 C108.26527345 13.98237789 150.85239831 36.16035228 186.20703125 70.203125 C186.73071289 70.70489258 187.25439453 71.20666016 187.79394531 71.72363281 C194.80978642 78.47882348 201.26043097 85.46946349 207.20703125 93.203125 C207.82263916 93.99614014 207.82263916 93.99614014 208.45068359 94.80517578 C239.28602088 134.74858339 260.14235599 185.01231785 260.41015625 235.99609375 C260.41721588 236.89654419 260.42427551 237.79699463 260.43154907 238.72473145 C260.66087365 276.55880606 260.66087365 276.55880606 257.20703125 293.203125 C256.90104004 294.69368408 256.90104004 294.69368408 256.58886719 296.21435547 C242.52658731 362.70826547 204.1064253 420.16577587 147.20458984 457.51757812 C142.9496871 460.21875509 138.59876172 462.73256245 134.20703125 465.203125 C133.58103027 465.56325684 132.9550293 465.92338867 132.31005859 466.29443359 C100.06958688 484.75358836 61.69340678 496.21043441 24.4140625 496.40625 C23.06338684 496.41683945 23.06338684 496.41683945 21.6854248 496.42764282 C-16.14864981 496.6569674 -16.14864981 496.6569674 -32.79296875 493.203125 C-34.28352783 492.89713379 -34.28352783 492.89713379 -35.80419922 492.58496094 C-92.94215126 480.50129985 -146.85751402 449.96251188 -182.79296875 403.203125 C-183.21400879 402.65849609 -183.63504883 402.11386719 -184.06884766 401.55273438 C-200.10377283 380.68801247 -212.68898336 357.86960489 -221.79296875 333.203125 C-222.07269531 332.44918457 -222.35242188 331.69524414 -222.640625 330.91845703 C-225.81598233 322.23416154 -228.36869098 313.45490936 -230.48046875 304.453125 C-230.67084717 303.65793457 -230.86122559 302.86274414 -231.05737305 302.04345703 C-235.00236877 284.34000913 -236.34846141 266.61023506 -236.23046875 248.515625 C-236.22742737 247.51698425 -236.22438599 246.51834351 -236.22125244 245.48944092 C-236.14916903 229.41612088 -235.22060276 213.95615528 -231.79296875 198.203125 C-231.47150879 196.67969482 -231.47150879 196.67969482 -231.14355469 195.12548828 C-222.96364457 157.25619553 -206.04642365 122.38466378 -181.79296875 92.203125 C-181.32068848 91.61515137 -180.8484082 91.02717773 -180.36181641 90.42138672 C-169.27900385 76.77778717 -156.86179504 63.77761342 -142.79296875 53.203125 C-142.1676123 52.72842773 -141.54225586 52.25373047 -140.89794922 51.76464844 C-100.55314472 21.29033548 -51.19282374 0.26889831 0 0 Z M-54.79296875 26.203125 C-55.44088379 26.39487305 -56.08879883 26.58662109 -56.75634766 26.78417969 C-66.74148469 29.76611987 -76.17413149 33.7792012 -85.60253906 38.18115234 C-87.00232244 38.83423897 -88.40506625 39.48104155 -89.81152344 40.11962891 C-109.47080411 49.06959304 -131.18215514 62.18960799 -144.79296875 79.203125 C-115.75296875 108.243125 -86.71296875 137.283125 -56.79296875 167.203125 C-52.65073924 165.13201024 -50.34416644 162.83355397 -47.41796875 159.390625 C-46.90121582 158.7831543 -46.38446289 158.17568359 -45.85205078 157.54980469 C-14.26876954 119.43887242 7.0818205 67.14563864 6.20703125 17.203125 C-14.29640925 15.96673663 -35.25344175 20.25007318 -54.79296875 26.203125 Z M23.20703125 17.203125 C23.06454956 18.61283569 23.06454956 18.61283569 22.91918945 20.05102539 C19.42250648 54.23883273 13.59183264 87.0822105 -1.79296875 118.203125 C-2.20949707 119.04858887 -2.62602539 119.89405273 -3.05517578 120.76513672 C-12.93407956 140.6204691 -24.67351082 159.02766181 -40.078125 175.08203125 C-42.29949091 177.82462422 -42.29949091 177.82462422 -42.79296875 181.203125 C-41.24543703 183.23282644 -39.77105259 184.8570601 -37.94946289 186.61425781 C-37.42291611 187.14153473 -36.89636932 187.66881165 -36.35386658 188.21206665 C-34.60687456 189.95556944 -32.84282745 191.68069017 -31.078125 193.40625 C-29.86491755 194.61013413 -28.65280785 195.81512545 -27.4417572 197.0211792 C-24.24850039 200.19532864 -21.04051454 203.35418041 -17.82928467 206.51013184 C-14.55624008 209.73206514 -11.2972725 212.96816717 -8.03710938 216.203125 C-1.63613406 222.55044664 4.78048263 228.88170454 11.20703125 235.203125 C15.49731329 233.54649916 18.36552262 230.31656335 21.53448486 227.11618042 C22.16676963 226.48560451 22.79905439 225.85502859 23.4504993 225.20534432 C25.57106726 223.08807446 27.68440106 220.96372824 29.79785156 218.83935547 C31.31523411 217.32140887 32.833057 215.80390234 34.35128784 214.2868042 C38.47524492 210.1634219 42.59299831 206.03389386 46.70968723 201.90325689 C51.01160847 197.5888492 55.31917868 193.28008923 59.62615967 188.97073364 C67.7827946 180.80787782 75.93431706 172.63993626 84.08402705 164.47016728 C93.36174442 155.1701099 102.64512861 145.87571806 111.92899942 136.58180404 C131.02800074 117.4618869 150.11985417 98.33484563 169.20703125 79.203125 C168.27801014 78.09492378 167.3454151 76.98971815 166.41137695 75.88574219 C165.89243362 75.269953 165.3734903 74.65416382 164.83882141 74.01971436 C162.27907063 71.17007343 159.40076823 68.81433169 156.39453125 66.453125 C155.74782471 65.94217285 155.10111816 65.4312207 154.43481445 64.90478516 C122.21502096 39.88307165 83.85941627 24.02846364 43.51953125 18.390625 C42.63555664 18.2666333 41.75158203 18.1426416 40.84082031 18.01489258 C34.93797294 17.25778824 29.15473695 17.06706377 23.20703125 17.203125 Z M-160.96875 94.21875 C-164.61005129 97.91849765 -167.84626663 101.81982542 -170.98046875 105.953125 C-171.53436279 106.68265381 -172.08825684 107.41218262 -172.65893555 108.16381836 C-182.49232914 121.31921007 -190.99457111 135.25018183 -197.79296875 150.203125 C-198.12248535 150.9240332 -198.45200195 151.64494141 -198.79150391 152.38769531 C-207.32059127 171.27324026 -213.46178417 190.74261577 -216.79296875 211.203125 C-216.9101123 211.92226074 -217.02725586 212.64139648 -217.14794922 213.38232422 C-218.65824725 223.02534154 -219.04488794 232.46224974 -218.79296875 242.203125 C-166.12372271 240.9609258 -116.31395268 221.4281873 -75.91796875 187.828125 C-75.30405273 187.32804932 -74.69013672 186.82797363 -74.05761719 186.31274414 C-72.15165335 184.73387686 -72.15165335 184.73387686 -69.79296875 182.203125 C-69.39899289 178.35852073 -69.39899289 178.35852073 -71.14888668 176.35222244 C-71.78915578 175.7143417 -72.42942488 175.07646095 -73.08909607 174.41925049 C-73.81968231 173.68172043 -74.55026855 172.94419037 -75.30299377 172.18431091 C-76.52090858 170.98561119 -76.52090858 170.98561119 -77.76342773 169.76269531 C-78.61038208 168.91355057 -79.45733643 168.06440582 -80.32995605 167.18952942 C-82.65542006 164.862148 -84.98944871 162.54403921 -87.32786822 160.22971821 C-89.76994545 157.80890991 -92.20110283 155.37718361 -94.63356018 152.94671631 C-98.71859413 148.86813169 -102.81095694 144.79702568 -106.90844727 140.73095703 C-112.17480475 135.50493062 -117.42962868 130.26746815 -122.68066311 125.02605057 C-127.18810783 120.52689458 -131.70001778 116.03222463 -136.21306348 111.53868771 C-137.66741878 110.09040774 -139.12130602 108.64165891 -140.57519341 107.19290924 C-143.27787468 104.50061023 -145.98515691 101.81296825 -148.69311523 99.12597656 C-149.50303421 98.31874649 -150.31295319 97.51151642 -151.14741516 96.67982483 C-151.88082123 95.95357407 -152.61422729 95.2273233 -153.36985779 94.47906494 C-154.01050391 93.8426923 -154.65115004 93.20631966 -155.31120968 92.55066299 C-157.99299771 90.11179737 -158.68428025 91.94407941 -160.96875 94.21875 Z M181.20703125 91.203125 C129.72703125 142.683125 78.24703125 194.163125 25.20703125 247.203125 C27.20947467 251.20801185 29.06330708 253.30164104 32.20751953 256.43066406 C32.71499725 256.93843384 33.22247498 257.44620361 33.74533081 257.96936035 C35.41796994 259.64061009 37.09757342 261.30467056 38.77734375 262.96875 C39.94077403 264.12844877 41.10376251 265.28859092 42.2663269 266.44915771 C45.32301325 269.49821852 48.38565869 272.54122463 51.44958496 275.58300781 C54.5767829 278.68972413 57.69830632 281.80213045 60.8203125 284.9140625 C66.94368005 291.01599917 73.07335485 297.11155098 79.20703125 303.203125 C83.34191516 301.66104998 85.73554855 299.99873841 88.89453125 296.890625 C124.83343728 263.50160119 174.99367796 244.4138865 223.20703125 239.203125 C224.14240723 239.10161133 225.0777832 239.00009766 226.04150391 238.89550781 C231.75943858 238.28592809 237.48054706 237.72595116 243.20703125 237.203125 C244.88124046 186.16836315 219.629161 135.08979276 187.74584961 96.79272461 C185.75144024 94.73249941 183.44612359 92.99439887 181.20703125 91.203125 Z M-61.73046875 197.140625 C-62.72433594 197.965625 -63.71820313 198.790625 -64.7421875 199.640625 C-66.64534956 201.23918366 -68.54450409 202.84254059 -70.4375 204.453125 C-93.68968723 223.97520124 -121.89518749 238.2302727 -150.79296875 247.203125 C-151.64938965 247.47108887 -152.50581055 247.73905273 -153.38818359 248.01513672 C-174.70258695 254.55913641 -196.63680466 257.30259625 -218.79296875 259.203125 C-220.46717796 310.23788685 -195.2150985 361.31645724 -163.33178711 399.61352539 C-161.33737774 401.67375059 -159.03206109 403.41185113 -156.79296875 405.203125 C-105.31296875 353.723125 -53.83296875 302.243125 -0.79296875 249.203125 C-2.78854432 245.21197387 -4.63865712 243.10408868 -7.76171875 239.97558594 C-8.26598389 239.46781616 -8.77024902 238.96004639 -9.28979492 238.43688965 C-10.95253411 236.76537061 -12.62245498 235.1012465 -14.29296875 233.4375 C-15.45146482 232.27765663 -16.60966387 231.1175165 -17.76757812 229.95709229 C-20.19207311 227.52965147 -22.62014237 225.10585866 -25.05078125 222.68457031 C-28.17160317 219.57516803 -31.28332739 216.45683988 -34.39245605 213.33575058 C-36.780538 210.94045717 -39.17334368 208.54992856 -41.56762695 206.16083527 C-42.71739689 205.01240248 -43.86567477 203.86247395 -45.01245117 202.71105194 C-46.61159594 201.10685091 -48.21697125 199.50916308 -49.82421875 197.91308594 C-50.73751953 197.00137634 -51.65082031 196.08966675 -52.59179688 195.15032959 C-56.60276631 191.60213866 -58.08826506 194.08368216 -61.73046875 197.140625 Z M100.14453125 308.703125 C99.54213623 309.19546631 98.93974121 309.68780762 98.3190918 310.19506836 C96.46867885 311.73555918 96.46867885 311.73555918 94.20703125 314.203125 C93.81252778 318.04839148 93.81252778 318.04839148 95.56574249 320.05402756 C96.20731041 320.6919083 96.84887833 321.32978905 97.5098877 321.98699951 C98.2419191 322.72452957 98.9739505 323.46205963 99.72816467 324.22193909 C100.94843605 325.42063881 100.94843605 325.42063881 102.19335938 326.64355469 C103.04192001 327.49269943 103.89048065 328.34184418 104.76475525 329.21672058 C107.0943693 331.54402331 109.43251291 333.86208955 111.77486229 336.17653179 C114.22036129 338.5970468 116.65455752 341.02887374 119.08996582 343.45953369 C123.70378137 348.06091063 128.32769965 352.65199531 132.95531702 357.23948693 C138.22306084 362.46254059 143.47946791 367.69694 148.73494434 372.93233252 C159.54639133 383.70195514 170.37201617 394.45721076 181.20703125 405.203125 C182.31523247 404.27410389 183.4204381 403.34150885 184.52441406 402.4074707 C185.14020325 401.88852737 185.75599243 401.36958405 186.39044189 400.83491516 C189.24014053 398.27511254 191.59550549 395.3966808 193.95703125 392.390625 C194.4665332 391.74681885 194.97603516 391.1030127 195.50097656 390.43969727 C201.26204213 383.03019832 206.29986048 375.19469099 211.20703125 367.203125 C211.90441406 366.08808594 212.60179687 364.97304688 213.3203125 363.82421875 C232.65004617 331.6338206 244.17954557 291.80701216 243.20703125 254.203125 C191.66215619 252.81002027 139.11366278 276.24802727 100.14453125 308.703125 Z M6.86586273 265.28613091 C5.96411935 266.19661281 5.96411935 266.19661281 5.04415894 267.12548828 C4.40541592 267.76252245 3.7666729 268.39955662 3.10857403 269.05589485 C0.95414814 271.20700773 -1.19301872 273.36522624 -3.34033203 275.5234375 C-4.87712392 277.06079311 -6.41435551 278.5977093 -7.95199585 280.13421631 C-12.13805326 284.31969768 -16.31789686 288.51133607 -20.49669504 292.70406342 C-24.8600314 297.07986547 -29.22899675 301.45003969 -33.59738159 305.82080078 C-41.87449423 314.10414046 -50.1464936 322.39256716 -58.41669166 330.68280983 C-67.82971916 340.11831807 -77.24855578 349.5480168 -86.66780496 358.977314 C-106.04917653 378.37961528 -125.42340144 397.78903987 -144.79296875 417.203125 C-143.86394764 418.31132622 -142.9313526 419.41653185 -141.99731445 420.52050781 C-141.47837112 421.136297 -140.9594278 421.75208618 -140.42475891 422.38653564 C-137.86509635 425.23607835 -134.9870114 427.59245617 -131.98046875 429.953125 C-131.33013672 430.46552734 -130.67980469 430.97792969 -130.00976562 431.50585938 C-110.08078062 446.95129771 -87.49123617 458.70344246 -63.79296875 467.203125 C-62.78024902 467.56760742 -62.78024902 467.56760742 -61.74707031 467.93945312 C-41.74133381 474.98613001 -20.02164377 479.46831602 1.20703125 479.203125 C1.30201904 478.26331787 1.39700684 477.32351074 1.49487305 476.35522461 C3.39936904 457.73238982 5.42924479 439.35106353 10.20703125 421.203125 C10.53525879 419.935896 10.53525879 419.935896 10.87011719 418.64306641 C18.03764661 391.52816737 30.66007644 364.8585042 47.20703125 342.203125 C47.62194824 341.63416504 48.03686523 341.06520508 48.46435547 340.47900391 C53.42970953 333.7344457 58.68663499 327.37464518 64.4921875 321.32421875 C66.71213748 318.5813903 66.71213748 318.5813903 67.20703125 315.203125 C65.67052248 313.17372809 64.2064055 311.54997341 62.39526367 309.79199219 C61.87192947 309.26471527 61.34859528 308.73743835 60.80940247 308.19418335 C59.07234375 306.45039885 57.3179686 304.72523471 55.5625 303 C54.35422335 301.7959715 53.14690358 300.59098204 51.94050598 299.3850708 C49.40825018 296.85898728 46.8679337 294.34140606 44.32104492 291.83007812 C41.05038916 288.60471948 37.79521732 285.36427717 34.54528332 282.11805344 C32.05228855 279.62947947 29.55390169 277.14638229 27.05355263 274.66519928 C25.8511597 273.47170877 24.64985336 272.27712257 23.44963646 271.08144379 C21.77381922 269.41463243 20.09150998 267.75468165 18.40698242 266.09667969 C17.90766205 265.59802399 17.40834167 265.09936829 16.89389038 264.58560181 C12.28510705 260.07707433 11.33311443 260.851377 6.86586273 265.28613091 Z M77.2109375 331.08203125 C65.46738987 343.99053881 55.95501467 358.12725075 47.20703125 373.203125 C46.83449219 373.84217773 46.46195312 374.48123047 46.078125 375.13964844 C28.434131 405.75620998 17.57771885 443.78999984 18.20703125 479.203125 C70.32682598 482.34602719 124.97947137 456.9428097 163.66796875 423.578125 C165.84213224 421.54444592 167.47268026 419.59724912 169.20703125 417.203125 C157.77386286 405.72329127 146.33501778 394.24914957 134.88932991 382.78179932 C129.57535376 377.45749881 124.26327137 372.13133402 118.95556641 366.80078125 C114.33081316 362.15612953 109.70258666 357.51497241 105.07010829 352.87802505 C102.61606247 350.42136583 100.16382375 347.96296056 97.71573257 345.50036621 C94.9866383 342.75523469 92.24979792 340.0179097 89.51220703 337.28125 C88.69653259 336.45838501 87.88085815 335.63552002 87.04046631 334.78771973 C86.29727142 334.04727417 85.55407654 333.30682861 84.7883606 332.54394531 C84.14126192 331.89500305 83.49416325 331.24606079 82.82745552 330.57745361 C80.28059738 328.41738968 79.60856763 328.82516219 77.2109375 331.08203125 Z " fill="#000000" transform="translate(243.79296875,7.796875)"/>
</svg>
