<?xml version="1.0" encoding="UTF-8"?>
<svg version="1.1" xmlns="http://www.w3.org/2000/svg" width="512" height="512">
<path d="M0 0 C0.94655708 0.27906818 1.89311417 0.55813637 2.8683548 0.84566116 C3.74334373 1.11064281 4.61833267 1.37562447 5.51983643 1.64863586 C6.27026844 1.87447515 7.02070045 2.10031443 7.79387283 2.33299732 C15.62544304 5.19605427 15.62544304 5.19605427 17.45349503 8.79850388 C17.72039013 9.83564152 17.98728523 10.87277916 18.26226807 11.94134521 C18.73171215 13.69219547 18.73171215 13.69219547 19.21063995 15.47841644 C19.51334557 16.70201118 19.81605118 17.92560593 20.12792969 19.1862793 C20.43702019 20.34991249 20.74611069 21.51354568 21.06456757 22.71244049 C22.06514804 26.50291537 23.02567952 30.30256738 23.97851562 34.10522461 C24.34337042 35.55071531 24.70849594 36.99613771 25.0738678 38.4414978 C26.05437886 42.32462911 27.03036639 46.20888223 28.00488186 50.09352207 C28.61535543 52.52656303 29.22664511 54.95939758 29.83817291 57.39217377 C31.75607033 65.02289044 33.6711932 72.65429519 35.58221507 80.28673673 C37.78013349 89.06493607 39.98729946 97.84074155 42.2024343 106.61461186 C43.92125458 113.42497426 45.63189919 120.23735751 47.33639169 127.05131984 C48.35181356 131.10987276 49.37060331 135.1675061 50.39794159 139.22306061 C51.362731 143.03264672 52.3173009 146.844652 53.2642498 150.65871048 C53.61208306 152.05234638 53.96349759 153.44509442 54.31887245 154.83682632 C56.1646215 162.07417532 57.7378764 168.6981868 57.12792969 176.1862793 C54.46758077 180.26715415 50.41330629 181.52238165 45.97167969 183.0769043 C44.89300629 183.46986191 44.89300629 183.46986191 43.7925415 183.87075806 C41.40804035 184.73658583 39.01817118 185.58644063 36.62792969 186.4362793 C34.95600535 187.03957088 33.28446253 187.6439207 31.61328125 188.24926758 C28.03345916 189.54444342 24.45148911 190.83344585 20.86816406 192.11889648 C14.86741003 194.27516709 8.88000319 196.467226 2.89355469 198.6628418 C-0.12479249 199.76812649 -3.14329355 200.87298972 -6.16186523 201.97766113 C-8.13554553 202.7001502 -10.1090157 203.42321354 -12.08227539 204.14685059 C-14.84958001 205.16062605 -17.61840553 206.17012897 -20.38769531 207.1784668 C-21.21928162 207.48402496 -22.05086792 207.78958313 -22.90765381 208.10440063 C-28.64344972 210.1862793 -28.64344972 210.1862793 -30.87207031 210.1862793 C-30.86838314 211.49164013 -30.86469597 212.79700096 -30.86089706 214.14191818 C-30.77430649 245.11336389 -30.70832875 276.08477698 -30.66780899 307.05631463 C-30.66280604 310.86656348 -30.65762876 314.67681208 -30.65234375 318.48706055 C-30.65129451 319.24562746 -30.65024527 320.00419437 -30.64916423 320.78574815 C-30.63174863 333.07595235 -30.60020461 345.36608188 -30.56345913 357.65624174 C-30.52608178 370.26267474 -30.50384126 382.86906857 -30.49571633 395.4755547 C-30.49022188 403.25741361 -30.47285476 411.03906146 -30.44040444 418.82085541 C-30.41680445 424.78321784 -30.41424236 430.74547135 -30.41963959 436.70788193 C-30.41853584 439.15730211 -30.41053564 441.60673002 -30.39524841 444.05610275 C-30.37544396 447.39184636 -30.38009684 450.72667566 -30.39105225 454.06243896 C-30.37940088 455.03908847 -30.36774951 456.01573797 -30.35574508 457.02198291 C-30.38912866 460.76411746 -30.48494394 463.43334246 -32.20938492 466.78727341 C-36.61783332 469.1035235 -41.05393448 468.73489999 -45.95605469 468.69421387 C-47.10004478 468.70045383 -48.24403488 468.70669379 -49.42269135 468.71312284 C-52.59858047 468.72633113 -55.77385967 468.72155901 -58.94973373 468.70917797 C-62.37448144 468.7001399 -65.79914573 468.71409098 -69.22387695 468.72509766 C-75.93308833 468.74290087 -82.6421209 468.73903495 -89.35133934 468.72744709 C-94.80317021 468.71842009 -100.25495091 468.71718558 -105.70678711 468.72154236 C-106.86989355 468.72246176 -106.86989355 468.72246176 -108.0564971 468.72339973 C-109.63162805 468.72467861 -111.20675899 468.72597546 -112.78188992 468.72729009 C-127.55812012 468.73870117 -142.33425112 468.72557395 -157.11046505 468.70408863 C-169.79407066 468.68621715 -182.47752985 468.68932111 -195.16113281 468.70776367 C-209.88383649 468.72916111 -224.60645318 468.73760248 -239.32917023 468.72531462 C-240.89856464 468.7240404 -242.46795907 468.72278291 -244.03735352 468.72154236 C-244.80956159 468.72092526 -245.58176967 468.72030815 -246.37737799 468.71967235 C-251.82379078 468.71621606 -257.27014848 468.72205379 -262.71655273 468.73146057 C-269.35232522 468.74266945 -275.98790839 468.7396641 -282.62365913 468.7183376 C-286.01053412 468.70781198 -289.39709329 468.70373059 -292.78396606 468.7169342 C-296.45232455 468.72780858 -300.1197852 468.71422283 -303.78808594 468.69421387 C-304.86317162 468.70313675 -305.93825729 468.71205964 -307.04592133 468.72125292 C-313.9945152 468.64735697 -313.9945152 468.64735697 -317.53475571 466.78727341 C-319.66719025 462.63982024 -319.40793272 458.65964227 -319.35308838 454.06243896 C-319.35650608 453.02179897 -319.35992378 451.98115897 -319.36344504 450.90898442 C-319.37005019 447.41096935 -319.34800354 443.91371624 -319.32617188 440.41577148 C-319.32504397 437.91275043 -319.32567614 435.40972805 -319.32794189 432.90670776 C-319.3288537 427.51223648 -319.31748539 422.1180038 -319.29499054 416.72359467 C-319.26248807 408.92421876 -319.25206534 401.12493645 -319.24703857 393.32550016 C-319.23828315 380.67161829 -319.21166091 368.01783955 -319.17382812 355.36401367 C-319.13711441 343.07170121 -319.10879953 330.77941676 -319.09179688 318.48706055 C-319.09022053 317.35059157 -319.09022053 317.35059157 -319.08861235 316.19116363 C-319.08339221 312.39029224 -319.07833738 308.58942066 -319.07336473 304.78854895 C-319.03189501 273.25438408 -318.96114264 241.72034734 -318.87207031 210.1862793 C-319.55429808 209.98312349 -320.23652586 209.77996769 -320.9394272 209.57065564 C-322.2853596 209.16864054 -322.2853596 209.16864054 -323.65848255 208.75850391 C-324.54696032 208.49347311 -325.4354381 208.2284423 -326.35083944 207.95538026 C-329.38966184 207.02838811 -332.37998363 205.99808136 -335.36889648 204.92138672 C-336.54099167 204.50052292 -337.71308685 204.07965912 -338.92070007 203.64604187 C-340.77414787 202.97566643 -340.77414787 202.97566643 -342.66503906 202.29174805 C-343.98239036 201.81700605 -345.29979983 201.34242546 -346.61726379 200.86799622 C-349.36697348 199.87711295 -352.11598542 198.88432459 -354.86450195 197.89013672 C-358.34102773 196.63277974 -361.81922975 195.38013833 -365.29798412 194.12896252 C-368.01775567 193.15015867 -370.73660005 192.16879932 -373.45519447 191.18673134 C-375.34586538 190.50421902 -377.23727306 189.82374875 -379.12870789 189.14335632 C-382.71725371 187.84334684 -386.29700469 186.52290766 -389.87207031 185.1862793 C-390.54949406 184.93372501 -391.2269178 184.68117073 -391.92486954 184.42096329 C-394.00470827 183.63976066 -396.07823951 182.84368375 -398.15063477 182.04296875 C-399.11494431 181.68213212 -399.11494431 181.68213212 -400.09873486 181.31400585 C-403.52367694 179.96997174 -404.76715846 179.34364707 -406.87207031 176.1862793 C-407.650042 167.78383485 -405.39215346 160.01415585 -403.33959961 151.93945312 C-402.95934853 150.41115488 -402.58000915 148.88262956 -402.20150757 147.35389709 C-401.17595167 143.22358009 -400.13722054 139.09668337 -399.09563041 134.97038484 C-398.00519898 130.64273374 -396.92571905 126.3123506 -395.84468079 121.98234558 C-394.02855878 114.71521337 -392.20402756 107.450233 -390.37426758 100.18652344 C-388.26083496 91.79633916 -386.15990727 83.40310109 -384.06582516 75.00806791 C-382.04780016 66.91886946 -380.0217646 58.83169908 -377.99180031 50.74548912 C-377.1293634 47.30965102 -376.26957656 43.873166 -375.41190147 40.43613625 C-374.40146658 36.38873521 -373.38397023 32.34317301 -372.36104965 28.29891014 C-371.9873655 26.81687145 -371.61605488 25.33423191 -371.2473278 23.85095215 C-370.7425494 21.8221267 -370.22908805 19.79568941 -369.71342468 17.76960754 C-369.42859065 16.63643003 -369.14375662 15.50325251 -368.85029125 14.33573627 C-367.82678522 11.04048047 -366.59125547 8.17727188 -364.87207031 5.1862793 C-362.52128601 3.96209717 -362.52128601 3.96209717 -359.58178711 3.23217773 C-358.41070404 2.918573 -357.23962097 2.60496826 -356.03305054 2.28186035 C-355.37261623 2.11159836 -354.71218193 1.94133636 -354.03173447 1.76591492 C-350.80675343 0.90035724 -347.62533414 -0.09789277 -344.43524647 -1.08313751 C-252.55025426 -29.36235149 -162.73426177 -40.89911335 0 0 Z M-221.87207031 -11.8137207 C-217.61157597 2.03288592 -212.54792735 13.29005392 -199.87207031 21.0144043 C-187.16062452 27.56079888 -173.20813699 29.84875488 -159.30957031 25.5612793 C-146.49435975 20.49521121 -137.02705964 11.66202635 -131.06347656 -0.72387695 C-129.67957349 -4.31295017 -128.80501739 -8.08193239 -127.87207031 -11.8137207 C-158.89207031 -11.8137207 -189.91207031 -11.8137207 -221.87207031 -11.8137207 Z M-246.43299866 -7.80888367 C-247.34289047 -7.58603699 -248.25278229 -7.36319031 -249.19024658 -7.1335907 C-250.1810321 -6.88583389 -251.17181763 -6.63807709 -252.19262695 -6.3828125 C-253.76635323 -5.99502121 -253.76635323 -5.99502121 -255.37187195 -5.59939575 C-258.84327161 -4.74232909 -262.31283575 -3.87809958 -265.78222656 -3.01293945 C-268.19068275 -2.41467222 -270.59916598 -1.81651388 -273.00767517 -1.21846008 C-278.05651728 0.03663124 -283.1043396 1.29573815 -288.15161133 2.55712891 C-293.34019184 3.85373229 -298.53064181 5.14252257 -303.72290039 6.42431641 C-309.98683679 7.97095716 -316.24812911 9.52786444 -322.50753593 11.09273338 C-324.89615119 11.68824216 -327.2856361 12.28027368 -329.67598152 12.86879921 C-333.01354299 13.69161747 -336.34751154 14.52768057 -339.6809082 15.3671875 C-340.67371796 15.60887161 -341.66652771 15.85055573 -342.68942261 16.0995636 C-343.5964946 16.33086975 -344.50356659 16.5621759 -345.43812561 16.80049133 C-346.2265941 16.99683324 -347.01506258 17.19317514 -347.82742405 17.3954668 C-350.25211076 18.33326841 -351.31151939 19.10283626 -352.87207031 21.1862793 C-353.87654185 23.86807064 -353.87654185 23.86807064 -354.59953308 27.00038147 C-354.90656662 28.21325333 -355.21360016 29.42612518 -355.52993774 30.67575073 C-355.85926978 32.02174064 -356.18839492 33.36778119 -356.51733398 34.71386719 C-356.87154904 36.12999194 -357.22668983 37.54588541 -357.58268738 38.96156311 C-358.5466204 42.80616245 -359.49737495 46.65391255 -360.44569945 50.50238729 C-361.43935864 54.52582566 -362.44463281 58.54636008 -363.44856262 62.56724548 C-365.13246152 69.31849531 -366.80855009 76.07164375 -368.47924805 82.82617188 C-370.83744916 92.36011918 -373.21060244 101.89029921 -375.58631551 111.41989529 C-377.22934126 118.01302322 -378.86860274 124.60708781 -380.50727677 131.20129848 C-380.90519682 132.80239614 -381.30324448 134.40346209 -381.70141768 136.00449681 C-382.83594785 140.5666776 -383.96816625 145.12941838 -385.09649849 149.69313622 C-385.4391689 151.07768534 -385.78263207 152.46203853 -386.12693024 153.84618378 C-386.59533389 155.7299652 -387.06053838 157.61454125 -387.52555847 159.49916077 C-387.7871384 160.55532624 -388.04871832 161.61149172 -388.31822491 162.69966221 C-388.94453804 165.08704832 -388.94453804 165.08704832 -388.87207031 167.1862793 C-381.07456514 170.00421544 -373.27662552 172.8209448 -365.47814274 175.6361742 C-361.85623011 176.94371592 -358.23446323 178.25165825 -354.61303711 179.56054688 C-351.11206399 180.82588305 -347.61069808 182.0901267 -344.10906792 183.35364342 C-342.77943587 183.83363392 -341.44994099 184.31400461 -340.12059212 184.79477882 C-338.24523828 185.47294533 -336.36933107 186.14958098 -334.4934082 186.82617188 C-333.42973526 187.21033768 -332.36606232 187.59450348 -331.27015686 187.99031067 C-327.15369951 189.43911245 -323.01582423 190.81786699 -318.87207031 192.1862793 C-318.86327095 190.54256599 -318.86327095 190.54256599 -318.85429382 188.86564636 C-318.79713871 178.55041814 -318.72441511 168.2354022 -318.6363554 157.92039013 C-318.59158327 152.61702677 -318.55234232 147.31374145 -318.52563477 142.01025391 C-318.49966997 136.89431716 -318.45931625 131.77867965 -318.40888405 126.66292763 C-318.39216904 124.7088931 -318.38068372 122.75480677 -318.37445641 120.80071068 C-318.36486556 118.06847971 -318.33686716 115.33702234 -318.30444336 112.60498047 C-318.30659599 111.38686172 -318.30659599 111.38686172 -318.30879211 110.14413452 C-318.2167265 104.67687918 -318.2167265 104.67687918 -316.46614075 102.18501282 C-314.477956 100.93935472 -313.21031766 100.7847083 -310.87207031 100.8112793 C-309.85113281 100.79967773 -309.85113281 100.79967773 -308.80957031 100.7878418 C-306.22563712 101.31921515 -305.47077227 102.09200542 -303.87207031 104.1862793 C-303.49306279 106.79026097 -303.49306279 106.79026097 -303.48730946 109.99026775 C-303.47785291 111.20846256 -303.46839637 112.42665737 -303.45865327 113.68176717 C-303.46328344 115.04066859 -303.46818996 116.39956909 -303.4733429 117.75846863 C-303.46790689 119.19649372 -303.46115678 120.63451435 -303.453201 122.07252771 C-303.43511036 126.03354907 -303.43574068 129.9943836 -303.43933046 133.95543659 C-303.4399525 138.22334848 -303.42335131 142.49119668 -303.40881348 146.75907898 C-303.38598565 154.1566076 -303.37413517 161.554089 -303.36968422 168.95165062 C-303.36323307 179.64734586 -303.34031398 190.3429556 -303.31334092 201.03861646 C-303.27003058 218.39047839 -303.24008811 235.74233673 -303.21850586 253.09423828 C-303.19750888 269.95265472 -303.17021071 286.81104159 -303.13452148 303.66943359 C-303.13120122 305.24336418 -303.13120122 305.24336418 -303.12781388 306.84909135 C-303.11045415 315.05488028 -303.09272828 323.2606684 -303.07488668 331.46645629 C-302.98748804 371.70637897 -302.93203433 411.94628833 -302.87207031 452.1862793 C-218.39207031 452.1862793 -133.91207031 452.1862793 -46.87207031 452.1862793 C-46.8346875 427.09983398 -46.79730469 402.01338867 -46.75878906 376.16674805 C-46.72853098 360.32103959 -46.69753877 344.47533774 -46.66308594 328.62963867 C-46.64503476 320.30957079 -46.62717064 311.98950254 -46.60961914 303.66943359 C-46.60741145 302.62659547 -46.60520376 301.58375734 -46.60292917 300.50931805 C-46.5675237 283.6560384 -46.54268539 266.8027588 -46.52172329 249.9494557 C-46.49998901 232.66361167 -46.46696129 215.37781605 -46.42336875 198.09201318 C-46.39681104 187.41893756 -46.37914605 176.74592232 -46.37272427 166.07281528 C-46.36748295 158.76173661 -46.3513085 151.45073403 -46.32640465 144.13969608 C-46.31234639 139.91660661 -46.30323488 135.69365345 -46.30706215 131.47053909 C-46.31045627 127.6084323 -46.3002015 123.74661735 -46.2788348 119.8845704 C-46.27353833 118.48345958 -46.27336168 117.08231867 -46.27867468 115.68120792 C-46.28513825 113.7842249 -46.27155661 111.88720463 -46.25683117 109.99026775 C-46.25493257 108.93426552 -46.25303397 107.87826328 -46.25107783 106.79026097 C-45.87207031 104.1862793 -45.87207031 104.1862793 -44.46911651 102.34843236 C-42.4786077 100.89996085 -41.31718092 100.78349395 -38.87207031 100.8112793 C-37.85113281 100.79967773 -37.85113281 100.79967773 -36.80957031 100.7878418 C-34.12468588 101.33997529 -33.46391592 101.92037115 -31.87207031 104.1862793 C-31.56226983 107.06231044 -31.43461016 109.72632015 -31.43969727 112.60498047 C-31.42950562 113.46373276 -31.41931396 114.32248505 -31.40881348 115.20726013 C-31.37860004 118.04798841 -31.36940484 120.88837997 -31.36035156 123.72924805 C-31.34351106 125.69795357 -31.32536168 127.66664831 -31.30595398 129.6353302 C-31.25837958 134.81876249 -31.22861836 140.00215102 -31.20251465 145.18572998 C-31.17274663 150.47441247 -31.12620344 155.76294408 -31.08105469 161.05151367 C-30.99493694 171.42969008 -30.92762936 181.80789747 -30.87207031 192.1862793 C-18.75918318 188.20085185 -6.7014804 184.12772577 5.25292969 179.6862793 C6.53097355 179.21421033 7.8091331 178.74245445 9.08740234 178.27099609 C11.59959997 177.3439139 14.11102274 176.414821 16.62207031 175.48461914 C20.67701749 173.98293327 24.73467737 172.48871291 28.79296875 170.99609375 C31.02392643 170.17506113 33.25447677 169.3529447 35.48480225 168.53019714 C37.28815033 167.86495781 37.28815033 167.86495781 39.12792969 167.1862793 C35.71429983 151.21782396 31.78025549 135.37948605 27.84277344 119.53393555 C27.49363924 118.12796298 27.14451891 116.72198697 26.79541206 115.31600761 C25.34485853 109.47551639 23.89311982 103.6353222 22.43799496 97.79596806 C20.36515161 89.47763928 18.29968092 81.15755744 16.24417585 72.83492666 C14.7890474 66.9456646 13.32585099 61.05844361 11.8565684 55.17269701 C10.98219111 51.66919008 10.11134891 48.16489329 9.24912834 44.65837288 C8.29188898 40.76635705 7.31800669 36.87869573 6.3425293 32.99121094 C6.06037567 31.83338104 5.77822205 30.67555115 5.48751831 29.4826355 C5.21992203 28.42751266 4.95232574 27.37238983 4.67662048 26.28529358 C4.44860213 25.36752168 4.22058378 24.44974977 3.98565578 23.5041666 C3.0423528 20.95501947 2.2879731 19.81618066 0.12792969 18.1862793 C-1.94491536 17.3357194 -1.94491536 17.3357194 -4.30601501 16.80049133 C-5.21308701 16.56918518 -6.120159 16.33787903 -7.05471802 16.0995636 C-8.04752777 15.85787949 -9.04033752 15.61619537 -10.06323242 15.3671875 C-11.11063095 15.10340302 -12.15802948 14.83961853 -13.23716736 14.56784058 C-16.70542287 13.69724174 -20.17725321 12.84193921 -23.64941406 11.98706055 C-26.05712734 11.38679042 -28.46464144 10.78572081 -30.8719635 10.18388367 C-36.56706992 8.76273036 -42.2646152 7.35170065 -47.96328026 5.94489211 C-53.79626985 4.50402952 -59.62559154 3.04869687 -65.45462704 1.59193134 C-70.42668605 0.35015886 -75.39998069 -0.88659928 -80.37372017 -2.12162209 C-82.76264549 -2.7150378 -85.15130205 -3.3095365 -87.5396862 -3.90512657 C-90.87579767 -4.73581547 -94.2133916 -5.5602459 -97.55151367 -6.3828125 C-98.54229919 -6.63056931 -99.53308472 -6.87832611 -100.55389404 -7.1335907 C-101.46378586 -7.35643738 -102.37367767 -7.57928406 -103.31114197 -7.80888367 C-104.09998748 -8.0040945 -104.88883299 -8.19930532 -105.70158291 -8.40043163 C-108.15872281 -8.93842219 -108.15872281 -8.93842219 -111.87207031 -8.8137207 C-111.99582031 -8.12149414 -112.11957031 -7.42926758 -112.24707031 -6.71606445 C-115.64773869 9.41585618 -124.42836431 23.84668956 -138.30957031 33.0612793 C-154.59945696 42.65574643 -172.05791561 46.26968855 -190.87207031 42.53393555 C-194.02727648 41.63300045 -196.89054961 40.55331668 -199.87207031 39.1862793 C-200.95359375 38.70030273 -202.03511719 38.21432617 -203.14941406 37.71362305 C-219.39147169 29.69683148 -229.56187731 16.97237866 -235.87207031 0.1862793 C-236.70826844 -2.81445251 -237.31836138 -5.743153 -237.87207031 -8.8137207 C-241.14520937 -8.8137207 -243.33306461 -8.5760056 -246.43299866 -7.80888367 Z " fill="#000000" transform="translate(430.8720703125,35.813720703125)"/>
</svg>
